<svg width="32" height="33" xmlns="http://www.w3.org/2000/svg"><g fill="#A4A9B5" fill-rule="evenodd"><path d="M10.693 21.86H9v-6.553l-2.021.63v-1.383l3.533-1.27h.181v8.577zm7.366-8.653v1.4h-.164c-.766.012-1.382.212-1.85.6-.466.388-.746.928-.84 1.618.453-.463 1.025-.694 1.717-.694.742 0 1.332.266 1.77.8.437.533.656 1.235.656 2.106 0 .557-.12 1.06-.36 1.512a2.59 2.59 0 0 1-1.02 1.053c-.44.25-.937.376-1.491.376-.899 0-1.624-.314-2.177-.941-.553-.628-.83-1.465-.83-2.512v-.612c0-.93.176-1.75.525-2.462a3.855 3.855 0 0 1 1.506-1.653c.654-.39 1.413-.587 2.276-.59h.282zm-1.653 4.289a1.347 1.347 0 0 0-1.236.782v.518c0 .568.111 1.012.334 1.332.223.32.535.48.937.48.364 0 .658-.145.882-.433.225-.288.337-.662.337-1.12 0-.467-.113-.844-.34-1.13-.226-.286-.53-.43-.914-.43zm7.43-.43h2.115v1.536h-2.115v2.4h-1.611v-2.4h-2.121v-1.536h2.12v-2.3h1.612v2.3z"/><path d="m9 2.785-7 8.032v12.048l7 8.031h14l7-8.031V10.817l-7-8.032H9zM24 .777l8 9.036v14.056l-8 9.035H8L0 23.87V9.813L8 .777h16z" fill-rule="nonzero"/></g></svg>