<svg width="126" height="20" fill="none" xmlns="http://www.w3.org/2000/svg"><path fill-rule="evenodd" clip-rule="evenodd" d="M63.85 5c1.358 0 2.257.064 2.87.213a3.824 3.824 0 0 1 2.287 1.551A5.07 5.07 0 0 1 70 9.794V20h-4V9.82c0-.258-.055-.498-.18-.705a2.474 2.474 0 0 0-.547-.6A2.196 2.196 0 0 0 63.833 8H60v12h-4V5h7.85zm46.181 0 .01 3h-3.351a1.8 1.8 0 0 0-1.251.497c-.2.184-.358.385-.466.582a1.41 1.41 0 0 0-.157.684L104.805 20h-3.774V9.8c0-1.1.312-2.118.936-3.034.528-.8 1.246-1.316 2.147-1.551.577-.151 1.511-.215 2.787-.215h3.13zM93 5v15h-4V5h4zm-4.985 0-6.983 7.625 7 7.375H83l-6.5-7.48L83 5h5.015zM99 16v4h-4v-4h4zm27-11v15h-7.626c-1.403 0-2.398-.09-2.978-.224a3.985 3.985 0 0 1-2.317-1.54c-.643-.881-1.017-1.902-1.017-3.034V5l3.938.02-.021 10c0 .5.186 1.094.583 1.464.438.409 1.153.537 1.626.537l3.83-.021V5H126zM47.41 5c1.429 0 2.502.114 3.193.363.706.232 1.309.581 1.81 1.065.658.647 1.079 1.345 1.282 2.092.218.748.274 1.692.274 2.87v8.594l-10.6.016c-1.225 0-2.281-.416-3.135-1.23-.855-.812-1.292-1.86-1.292-3.101 0-1.311.386-2.405 1.175-3.249.787-.863 1.76-1.298 2.952-1.298l6.93.007.019-1.066c0-.257-.051-.496-.134-.68a3.118 3.118 0 0 0-.421-.665c-.267-.325-.552-.529-.838-.613-.303-.087-.704-.119-1.225-.119l-7.421-.007L39.962 5h7.448zM76 0v20h-4V0h4zM18 16v4H0v-4h18zm8-16v5h3.833c2.867 0 4.8.739 6.185 2.34 1.095 1.233 1.675 2.989 1.675 4.96 0 2.957-1.224 5.267-3.447 6.59-1.449.863-2.705 1.11-5.54 1.11H22V0h4zm18.743 13.97-.008.014c-.507 0-.918.124-1.288.42-.348.292-.524.674-.524 1.158 0 .432.176.778.509 1.054.35.28.75.417 1.189.417L50 17v-3l-5.257-.03zm-15.485-6H26V17h3.258c2.6 0 4.179-1.747 4.179-4.596 0-2.978-1.382-4.434-4.179-4.434zM18 7.999v4H5V8h13zM93 0v4h-4V0h4zM18 0v4h-8V0h8z" fill="#fff" fill-opacity=".6"/></svg>