<svg xmlns="http://www.w3.org/2000/svg" width="40" height="40" viewBox="0 0 32 32"><path fill="#f48100" d="M26.4 4H5.6a3.203 3.203 0 00-3.2 3.2V20c0 1.765 1.435 3.2 3.2 3.2H12v3.992H9.6c-.442 0-.8.366-.8.808s.358.8.8.8h12.8a.8.8 0 00.8-.8v-.008a.8.8 0 00-.8-.8h-1.6v.008h-3.2v-.008h-4V23.2h.25a3.293 3.293 0 01.196-1.6H5.6c-.882 0-1.6-.718-1.6-1.6v-.8h11.851l-1.147-1.6H4V7.2c0-.882.718-1.6 1.6-1.6h20.8c.882 0 1.6.718 1.6 1.6v5.29c.283.221.54.477.752.774l.848 1.182V7.2c0-1.765-1.435-3.2-3.2-3.2zm-11.237 7.102a.608.608 0 00-.491.961l5.942 8.288a.798.798 0 01-.391 1.223l-3.117 1.07a.15.15 0 00-.087.2c.013.03.041.069.098.084l3.418.887c.44.114.895.138 1.347.075 1.188-.167 4.114-.734 5.643-2.386 1.045-1.127 1.118-2.9.175-4.215v.001l-1.55-2.162a.616.616 0 00-.547-.254c-2.94.162-5.389 1.554-5.414 1.569a.8.8 0 01-1.049-.227l-3.484-4.859a.608.608 0 00-.494-.253zm6.231 14.422c-.425 0-.846-.054-1.26-.162l-3.418-.887a1.74 1.74 0 01-1.161-.986 1.742 1.742 0 01.054-1.522c.208-.394.555-.692.978-.838l2.101-.721-5.316-7.414c-.709-.99-.482-2.37.507-3.079s2.37-.482 3.079.507l3.082 4.299c1.008-.478 3.079-1.315 5.476-1.447a2.228 2.228 0 011.935.92l1.55 2.161c1.383 1.93 1.257 4.552-.301 6.234-1.81 1.958-4.91 2.646-6.595 2.883a5 5 0 01-.711.05z"></path></svg>