<svg xmlns="http://www.w3.org/2000/svg" width="40" height="40" viewBox="0 0 40 40"><g fill-rule="evenodd"><path fill="#f48100" d="M19 31a1 1 0 01-1 1h-7a1 1 0 110-2h7a1 1 0 011 1zm-4.5-9a2.503 2.503 0 01-2.5-2.5c0-1.378 1.122-2.5 2.5-2.5s2.5 1.122 2.5 2.5c0 1.379-1.122 2.5-2.5 2.5zm0-7a4.505 4.505 0 00-4.5 4.5c0 2.481 2.019 4.5 4.5 4.5s4.5-2.019 4.5-4.5-2.019-4.5-4.5-4.5zM25 31v-2h5c1.103 0 2-.897 2-2h2v4h-9zm-2 4a1 1 0 01-1 1H7c-.551 0-1-.448-1-1V13c0-.551.449-1 1-1h15c.552 0 1 .449 1 1v22zM18 9h12v12h-5v-8c0-1.654-1.346-3-3-3h-4V9zm0-2h12V4H18v3zm14 4h2V8h-2v3zm0 14h2V13h-2v12zm-7 2h5v-4h-5v4zm9-21h-2V4c0-1.103-.897-2-2-2H18c-1.103 0-2 .897-2 2v6H7c-1.654 0-3 1.346-3 3v22c0 1.654 1.346 3 3 3h15c1.654 0 3-1.346 3-3v-2h9c1.103 0 2-.897 2-2V8c0-1.103-.897-2-2-2z"></path></g></svg>