<svg xmlns="http://www.w3.org/2000/svg" width="40" height="40" viewBox="0 0 40 40"><g fill-rule="evenodd"><path fill="#f48100" d="M23.965 21.733c.146.527-.178 1.07-.724 1.21l-3.952 1.023a1.073 1.073 0 01-.266.034c-.452 0-.865-.29-.988-.732-.146-.527.177-1.07.724-1.21l3.952-1.023c.547-.144 1.109.17 1.254.698m-8 2.102c.147.601-.179 1.22-.726 1.379l-5.948 1.748a.948.948 0 01-.265.038c-.454 0-.869-.33-.99-.834-.147-.6.177-1.218.725-1.379l5.947-1.748c.548-.163 1.11.195 1.257.796m17.622 2.318l-22.526 5.74a3.37 3.37 0 01-2.47-.31 3.1 3.1 0 01-1.517-1.88L5 22.343 33.815 15l2.074 7.36c.464 1.65-.568 3.35-2.302 3.793M6.393 13.973l22.338-5.864c.277-.074.558-.109.834-.109 1.425 0 2.733.933 3.12 2.345L33 11.498 4.426 19l-.315-1.152c-.462-1.685.563-3.423 2.282-3.875m31.425 7.512L34.678 9.91c-.763-2.81-3.702-4.483-6.543-3.731L5.961 12.05c-2.845.753-4.541 3.653-3.778 6.464l3.139 11.572a5.253 5.253 0 002.49 3.205 5.355 5.355 0 004.053.526L34.04 27.95c2.845-.754 4.54-3.653 3.778-6.464"></path></g></svg>