<svg xmlns="http://www.w3.org/2000/svg" width="40" height="40" viewBox="0 0 32 32"><path fill="#f48100" d="M26.869 15.2h.637l-3.004 3.434A4.003 4.003 0 0121.491 20h-5.022v-1.6h5.022a5.603 5.603 0 004.215-1.912l1.132-1.294c.011.001.02.006.031.006zm.637 3.2l-3.004 3.434a4.003 4.003 0 01-3.011 1.366h-5.022v-1.6h5.022a5.603 5.603 0 004.215-1.912l1.126-1.288h.674zm-16.637 4.8v-7.474c0-.632.256-1.25.703-1.697L16.8 8.8h3.338l-4.097 4.098a3.975 3.975 0 00-1.172 2.828V23.2h-4zM5.56 21.641c.012-.012.016-.028.027-.041h3.682v1.6H4l1.559-1.559zm.001-6.441H9.32c-.023.174-.051.347-.051.526V16.8H4l1.485-1.484c.034-.034.05-.078.076-.116zM4.001 20l1.6-1.6H9.27V20H4.001zM7.629 9.972A3.977 3.977 0 0110.458 8.8h4.081l-4.097 4.098a4.072 4.072 0 00-.552.702H4.001l3.628-3.628zm16.873 2.262a4.003 4.003 0 01-3.011 1.366h-3.89l4.8-4.8h5.106l-3.004 3.434zM26.969 12h.537l-3.004 3.434a4.003 4.003 0 01-3.011 1.366h-5.022v-1.074c0-.178.025-.354.064-.526h4.958a5.603 5.603 0 004.215-1.912l1.147-1.311c.039.006.074.023.116.023zm1.994-.662a1.578 1.578 0 00-.847-.805l.595-.68c.418-.479.514-1.136.252-1.715s-.821-.938-1.457-.938H10.457a5.564 5.564 0 00-3.96 1.64l-3.628 3.629a1.596 1.596 0 00-.347 1.743c.174.421.516.727.926.878l-.578.578a1.596 1.596 0 00-.347 1.743c.174.421.516.727.926.878l-.578.578a1.596 1.596 0 00-.347 1.743c.174.421.516.727.926.878l-.578.578c-.459.459-.595 1.143-.347 1.743s.83.988 1.478.988h17.49a5.603 5.603 0 004.215-1.912l3.005-3.434a1.586 1.586 0 00-.595-2.52l.595-.68a1.586 1.586 0 00-.595-2.52l.595-.68a1.586 1.586 0 00.252-1.715z"></path></svg>