<svg xmlns="http://www.w3.org/2000/svg" width="40" height="40" viewBox="0 0 32 32"><path fill="#f48100" d="M28.831 16.179c.59-2.059.338-3.961-.713-5.354-.984-1.306-2.586-2.025-4.51-2.025-4.299 0-8.803 3.508-10.04 7.821-.59 2.058-.338 3.96.713 5.354.984 1.306 2.586 2.025 4.51 2.025 4.299 0 8.803-3.508 10.04-7.821zm.565-6.317c1.36 1.804 1.706 4.204.973 6.758-1.42 4.951-6.614 8.979-11.578 8.979-2.438 0-4.494-.946-5.787-2.662-1.36-1.805-1.706-4.205-.973-6.758C13.45 11.228 18.645 7.2 23.609 7.2c2.438 0 4.494.946 5.787 2.662zm-5.591 4.318c.054-.19.043-.354-.031-.452-.08-.106-.23-.128-.342-.128h-1.797l-.458 1.6h1.338c.531 0 1.134-.477 1.29-1.02zM23.432 12c.662 0 1.254.279 1.62.765.378.502.485 1.179.29 1.856-.35 1.222-1.592 2.179-2.827 2.179h-1.798l-.23.8h.938a.8.8 0 110 1.6h-1.398l-.292 1.021a.8.8 0 11-1.538-.441l.181-.63a.79.79 0 01-.554-.75.8.8 0 01.8-.8h.198l1.439-5.02a.795.795 0 01.135-.26c.018-.024.041-.042.061-.063a.744.744 0 01.238-.173.862.862 0 01.178-.058c.035-.007.068-.014.103-.017.018-.002.035-.01.054-.01h2.4zM4.8 8a.8.8 0 110-1.6h.8a.8.8 0 110 1.6h-.8zM8 8a.8.8 0 110-1.6h8.8a.8.8 0 110 1.6H8zm-4 6.4h-.8a.8.8 0 110-1.6H4a.8.8 0 110 1.6zm5.6-1.6a.8.8 0 110 1.6H6.4a.8.8 0 110-1.6h3.2zM4 19.2a.8.8 0 110 1.6h-.8a.8.8 0 110-1.6H4zm4.8 0a.8.8 0 110 1.6H6.4a.8.8 0 110-1.6h2.4z"></path></svg>