<svg xmlns="http://www.w3.org/2000/svg" width="40" height="40" viewBox="0 0 32 32"><path fill="#f48100" d="M6.61 26.521L26.521 6.61a.8.8 0 00-1.131-1.131L5.479 25.39a.799.799 0 00.566 1.365c.205 0 .41-.078.566-.234zM24 20c-2.206 0-4 1.794-4 4s1.794 4 4 4 4-1.795 4-4c0-2.206-1.794-4-4-4zm0 9.6c-3.088 0-5.6-2.513-5.6-5.6s2.512-5.6 5.6-5.6 5.6 2.512 5.6 5.6c0 3.087-2.512 5.6-5.6 5.6zM8 4C5.794 4 4 5.794 4 8s1.794 4 4 4 4-1.795 4-4c0-2.206-1.794-4-4-4zm0 9.6c-3.088 0-5.6-2.513-5.6-5.6S4.912 2.4 8 2.4s5.6 2.512 5.6 5.6c0 3.087-2.512 5.6-5.6 5.6z"></path></svg>