<svg xmlns="http://www.w3.org/2000/svg" width="16" height="16" viewBox="0 0 32 32"><path d="M21.288 5.106c.472.943.662 1.852.703 2.59l.008.305-.001 2h3.151c3.09 0 5.364 2.841 4.737 5.872l-.075.314-2.934 9.566a6.008 6.008 0 01-5.369 4.236l-.375.012h-3.918a6 6 0 01-2.953-.776l-.378-.232-4.49-2.992H4a2 2 0 01-2-2v-12a2 2 0 012-2h4.363c1.719 0 3.125-1.066 4.278-3.017.444-.751.809-1.57 1.095-2.391.17-.487.272-.854.313-1.035a2 2 0 011.95-1.557c2.536 0 4.336 1.2 5.289 3.106zM12 22.93l4.101 2.733c.264.176.565.286.877.323l.236.014h3.918c.801 0 1.519-.477 1.837-1.197l.083-.223 2.916-9.505a.851.851 0 00-.657-1.059l-.163-.015h-5.15a2 2 0 01-1.987-1.767l-.013-.233v-4c0-.217-.078-.683-.289-1.106a1.853 1.853 0 00-.225-.353l-.142-.146-.049.138a17.273 17.273 0 01-.92 1.972l-.29.511c-1.085 1.836-2.441 3.268-4.085 4.117v9.796zM8 14H6v8h2v-8z"></path></svg>