<svg width="116" height="27" fill="none" xmlns="http://www.w3.org/2000/svg"><g clip-path="url(#a)"><path fill-rule="evenodd" clip-rule="evenodd" d="M33.3 5.8c.2.5.5.8 1 1a3 3 0 0 0 3 0c.4-.2.8-.5 1-1 .3-.4.3-1 .3-1.6l-.2-1.5-1-1c-.5-.2-.9-.3-1.5-.3a3 3 0 0 0-1.6.4c-.4.2-.7.5-1 1-.3.4-.3 1-.3 1.6 0 .5.1 1 .3 1.4zm4.1-.4c-.1.3-.3.6-.6.8-.3.2-.6.2-1 .2s-.8-.1-1-.3c-.3-.2-.5-.4-.6-.7-.2-.4-.2-.7-.2-1.2l.2-1c.1-.3.3-.6.6-.8.3-.2.6-.2 1-.2l1 .2c.3.2.5.5.6.9.2.2.2.6.2 1l-.2 1.1zm1.4-3.1h1.7V7h1V2.3h1.8v-.8h-4.4l-.1.8zm7 2.3 1.7 2.5h1l-2-3.1 1-1.4.3-.4h.3l.3.1.2-.9H48c-.3 0-.5 0-.7.2l-.5.5-1.1 1.7h-.6V1.5h-1v5.6h1V4.6h.7zm5.1-3.1h-1.6V7h1V5h.8l1-.2.7-.6c.3-.3.3-.7.3-1 0-.6-.2-1-.6-1.3-.4-.3-.9-.4-1.6-.4zm1.2 1.7c0 .3-.1.6-.3.8h.1c-.3.2-.6.2-1 .2h-.6v-2h.5c.5 0 .8.1 1 .3.3.1.3.4.3.7zM54 5.8c.2.5.5.8 1 1a3 3 0 0 0 3 0c.4-.2.8-.5 1-1 .2-.4.4-1 .4-1.6l-.3-1.5-1-1c-.5-.2-.9-.3-1.5-.3a3 3 0 0 0-1.6.4c-.4.2-.7.5-1 1-.2.4-.3 1-.3 1.6 0 .5.1 1 .3 1.4zm4.1-.4c-.1.3-.3.6-.6.8-.3.2-.6.2-1 .2s-.7-.1-1-.3c-.3-.2-.5-.4-.6-.7-.2-.4-.2-.7-.2-1.2l.2-1c.1-.3.3-.6.6-.8.3-.2.6-.2 1-.2l1 .2c.3.2.5.5.6.9.2.2.2.6.2 1l-.2 1.1zm6.2-1.3V7h.9V1.5h-1.1l-2.8 4.4V1.5h-.8V7h1l2.8-4.3v1.4zM61.6.6l.5.4h.1l.8.2.7-.2.5-.4c.2-.2.2-.4.2-.6h-.7c-.1.4-.3.6-.7.6-.4 0-.7-.2-.8-.6h-.7l.1.6zM66 2.3h1.8V7h1V2.3h1.7v-.8h-4.4l-.1.8zm8.7-.8h-3.3v5.6h3.3v-.8h-2.4V4.6h2.2v-.8h-2.2V2.3h2.3l.1-.8zM82 4.8l-.5-.5-.6-.2c.3-.1.6-.3.7-.5.3-.2.3-.5.3-.8 0-.5-.1-.8-.4-1-.4-.3-.8-.3-1.4-.3h-1.8v5.6h1.9c.4 0 .8 0 1.1-.2l.7-.5c.2-.3.2-.6.2-.9l-.2-.7zm-2.1-1h-.6V2.2h.6l.8.2c.2.1.2.2.2.5l-.1.4-.4.4-.5.1zm1.3 1.7c0 .3-.1.5-.3.7h.1c-.088.03-.176.067-.266.106-.218.094-.451.194-.735.194h-.7v-2h.6c.4 0 .8.1 1 .3.3.1.3.4.3.7zM36.3 19.6h4.6l-.1.1 1.2 3h2.1l-4.6-11.5h-1.8l-4.5 11.4h2l1.1-3zm4-1.5h-3.4l1.2-3.3.5-1.5.5 1.5 1.2 3.3zm4.8-3.9v12l2-.2v-3.4a5 5 0 0 0 1.7.3c.8 0 1.5-.2 2.1-.6.6-.3 1.1-.9 1.4-1.6.4-.7.5-1.5.5-2.5s-.1-1.8-.4-2.4c-.3-.6-.7-1.1-1.2-1.4a3 3 0 0 0-1.6-.4c-1 0-1.8.4-2.6 1.2l-.1-1h-1.8zm5.7 4c0 1.1-.2 1.9-.6 2.4-.4.5-.9.8-1.7.8a3.5 3.5 0 0 1-1.5-.3v-4.6l1-.7c.3-.2.6-.3 1-.3.6 0 1 .2 1.3.7.4.4.5 1 .5 2zm3.3-4v12l2-.2v-3.4a5 5 0 0 0 1.7.3c.8 0 1.5-.2 2.1-.6.6-.3 1.1-.9 1.4-1.6.4-.7.5-1.5.5-2.5s-.1-1.8-.4-2.4c-.3-.6-.7-1.1-1.2-1.4a3 3 0 0 0-1.6-.4c-1 0-1.8.4-2.7 1.2v-1h-1.8zm5.7 4c0 1.1-.2 1.9-.6 2.4-.4.5-1 .8-1.7.8a3.5 3.5 0 0 1-1.5-.3v-4.6l1-.7c.3-.2.6-.3 1-.3.6 0 1 .2 1.3.7.3.4.5 1 .5 2zm3.7 1.9a4.7 4.7 0 0 0 2 2c.9.5 1.9.7 3 .7.7 0 1.4 0 2.2-.2l2-.7v-4.8h-4.5v1.5h2.6v2.3a7 7 0 0 1-2.2.4c-.8 0-1.5-.2-2.1-.6-.5-.3-1-.8-1.2-1.5-.3-.6-.4-1.3-.4-2.2 0-.9.2-1.7.5-2.4.3-.6.8-1.1 1.5-1.5.5-.3 1.2-.5 2-.5a7 7 0 0 1 3 .8l.5-1.5a8.201 8.201 0 0 0-3.6-.8c-1.1 0-2.1.2-3 .7a5 5 0 0 0-2.2 2c-.5.9-.7 2-.7 3.3 0 1.1.2 2.2.6 3zm16.1 1.5.2 1.1v-.1h1.8l-.1-1.6v-3.3c0-1-.1-1.7-.4-2.2-.2-.6-.7-1-1.2-1.2-.5-.3-1.2-.3-1.9-.3a8.4 8.4 0 0 0-3.2.6l.3 1.4 1.3-.4c.5-.2.9-.2 1.3-.2.6 0 1.1.2 1.4.5.3.3.5.8.5 1.6v.1l-1.5-.1c-1.5 0-2.5.3-3 .8-.7.5-1 1.1-1 2 0 .5.2 1 .4 1.4.2.4.6.7 1 .8.3.3.8.3 1.3.3a3.8 3.8 0 0 0 2.8-1.2zm-.1-1.3a3 3 0 0 1-1 .7l-1.2.3c-.4 0-.7-.1-.9-.3-.3-.2-.4-.5-.4-1 0-.4.2-.8.5-1 .3-.3.9-.4 1.7-.4l1.3.1v1.6zm5.7-9.9-2 .2v10h.1c0 1.5.6 2.2 2 2.2h.7l.7-.2-.2-1.3H86l-.6-.2c-.2-.2-.2-.4-.2-.8v-9.9zm4.9 0-2 .2v10c0 1.5.7 2.2 2 2.2h.8l.7-.2-.3-1.3h-.5l-.6-.2-.1-.8v-9.9zm4 8.3h5.6v-.6c0-.7-.2-1.4-.4-2.1-.3-.5-.7-1.1-1.3-1.5-.5-.3-1.1-.5-2-.5-.7 0-1.4.2-2 .5-.6.4-1 .9-1.4 1.6-.3.7-.5 1.4-.5 2.4 0 .9.2 1.7.5 2.4.3.6.8 1.1 1.4 1.4.6.4 1.3.5 2.3.5 1.2 0 2.2-.2 3.2-.7l-.4-1.3-1.2.4-1.2.1c-1.6 0-2.5-.9-2.6-2.6zm3.2-2.8c.3.3.4.8.4 1.5h-3.6c.1-.7.4-1.2.7-1.5.3-.4.7-.5 1.2-.5s1 .1 1.3.5zm5.699-1.8h-1.8l.1 2.2v6.4h2v-5.5l1-1.2a2 2 0 0 1 1.2-.3c.204.003.407.036.6.1l.3-1.8h-.8l-1 .2-.7.6-.8 1V15l-.1-.9zm4.2 10.5-.3 1.4.6.2h1c.7 0 1.2-.1 1.7-.4.4-.2.8-.5 1.2-1l1-2 3.1-8.7h-2l-1.6 4.8-.5 2-.5-2-1.6-4.8h-2l3 8.7v.3c-.5 1.1-1.1 1.6-2 1.6l-.6-.1h-.5z" fill="#fff"/><path fill-rule="evenodd" clip-rule="evenodd" d="M18.6 0h-11C2.4 0 .5 1.9.5 7.1v11c0 5.3 1.9 7.2 7.1 7.2h11c5.3 0 7.2-2 7.2-7.1v-11c0-5.3-2-7.2-7.2-7.2z" fill="#C8102E"/><path d="M5.5 12.6h.7V16h-.7v-1.3H4V16h-.7v-3.3H4V14h1.5v-1.4zm3.8 2c0 .4-.3.7-.8.7s-.7-.3-.7-.8v-1.9h-.7v2c0 .9.5 1.4 1.4 1.4 1 0 1.4-.6 1.4-1.5v-1.9h-.6v2zm7.7.3-.7-2.3h-.6l-.7 2.3-.8-2.3h-.7l1.2 3.3h.5l.8-2.1.7 2.1h.6l1.1-3.3h-.7l-.7 2.3zm2.6-.4h1.3v-.6h-1.4v-.7h2v-.6h-2.4V16h2.4v-.6h-2v-.8l.1-.1zm2.7 1.4h.6v-3.3h-.6V16v-.1zm-11-.7-.3.7h-.7l1.4-3.3h.6l1.5 3.3h-.7l-.3-.7h-1.5zm.2-.6h1l-.5-1.1-.5 1.1zm1.6-6.2a4.2 4.2 0 0 1-4.2-4.2h.6a3.6 3.6 0 1 0 7.2 0h.6c0 2.3-1.9 4.2-4.2 4.2z" fill="#fff"/></g><defs><clipPath id="a"><path fill="#fff" transform="translate(.5)" d="M0 0h115v27H0z"/></clipPath></defs></svg>