<svg width="108" height="27" fill="none" xmlns="http://www.w3.org/2000/svg"><path d="M16.476 12.638A5.415 5.415 0 0 1 18.95 8.21a5.365 5.365 0 0 0-4.304-2.376c-1.72-.216-3.55 1.08-4.41 1.08-.97 0-2.368-1.08-3.874-1.08-1 .033-1.975.33-2.825.861A5.715 5.715 0 0 0 1.52 8.858c-2.152 3.564-.538 8.963 1.506 11.879.969 1.404 2.152 3.023 3.659 2.915 1.506 0 2.044-.972 3.873-.972 1.722 0 2.26 1.08 3.766.972 1.614 0 2.69-1.404 3.658-2.915l1.614-3.24a5.17 5.17 0 0 1-2.36-1.93 5.197 5.197 0 0 1-.868-2.93h.108zm-3.013-8.64c.86-1.08 1.291-2.483 1.291-3.779-1 .095-1.952.47-2.75 1.08a5.398 5.398 0 0 0-1.769 2.376c-.215.648-.215 1.295-.215 1.943a4.291 4.291 0 0 0 3.443-1.727v.108zm21.842 16.09h-5.057l-1.291 3.564h-2.152l4.949-13.39h2.152l4.95 13.498h-2.153l-1.29-3.563-.108-.108zm-4.52-1.727h3.982L32.83 12.53l-2.152 5.831h.108zm18.292.432c0 3.024-1.507 4.967-3.981 4.967a3.218 3.218 0 0 1-1.82-.392 3.235 3.235 0 0 1-1.3-1.335V27H39.93V14.041h1.937v1.62a3.433 3.433 0 0 1 3.228-1.728c2.367 0 4.088 1.944 4.088 4.968l-.107-.108zm-1.937 0c0-1.944-1.076-3.24-2.582-3.24-1.614 0-2.583 1.296-2.583 3.24 0 1.944 1.076 3.24 2.583 3.24 1.506 0 2.474-1.296 2.474-3.24h.108zm12.696 0c0 3.024-1.614 4.967-4.089 4.967a3.22 3.22 0 0 1-3.012-1.727V27H50.69V14.041h1.936v1.62a3.433 3.433 0 0 1 3.228-1.728c2.367 0 3.981 1.944 3.981 4.968v-.108zm-2.044 0c0-1.944-1.076-3.24-2.583-3.24-1.506 0-2.582 1.296-2.582 3.24 0 1.944 1.076 3.24 2.582 3.24 1.614 0 2.583-1.296 2.583-3.24zm9.145 1.08c.108 1.404 1.399 2.267 3.228 2.267 1.614 0 2.905-.863 2.905-2.16 0-.971-.753-1.619-2.475-1.943l-1.721-.432c-2.475-.648-3.658-1.836-3.658-3.672 0-2.267 2.044-3.887 4.949-3.887 2.797 0 4.734 1.62 4.734 3.887h-1.937c-.215-1.295-1.29-2.16-2.905-2.16-1.614 0-2.69.865-2.69 2.053 0 .971.754 1.511 2.475 1.943l1.399.324c2.797.648 3.873 1.728 3.873 3.78 0 2.483-1.936 3.995-5.164 3.995-2.905 0-4.95-1.511-5.057-3.887h2.152l-.108-.108zm12.481-8.315v2.483h1.937v1.512h-1.937v5.4c0 .864.43 1.296 1.184 1.296h.753v1.511h-1.076c-2.152 0-2.798-.648-2.798-2.591v-5.616h-1.398v-1.512h1.398v-2.375h1.937v-.108zm3.013 7.235c0-3.132 1.721-4.967 4.626-4.967 2.798 0 4.627 1.835 4.627 4.967 0 3.132-1.83 4.967-4.627 4.967-2.905 0-4.626-1.835-4.626-4.967zm7.208 0c0-2.16-1.075-3.348-2.582-3.348-1.614 0-2.582 1.296-2.582 3.348 0 2.16.968 3.348 2.582 3.348 1.614 0 2.582-1.188 2.582-3.348zm3.659-4.86h1.936v1.62c.145-.512.457-.962.886-1.275a2.36 2.36 0 0 1 1.481-.453h.646v1.944l-.86-.108a2.037 2.037 0 0 0-1.615.648 2.054 2.054 0 0 0-.538 1.62v5.723h-1.936v-9.719zm14.202 6.912c-.323 1.728-2.044 2.915-4.304 2.915-2.69 0-4.519-1.835-4.519-4.967 0-3.024 1.829-4.967 4.519-4.967 2.69 0 4.304 1.835 4.304 4.75v.757h-6.778a2.498 2.498 0 0 0 .634 2.012 2.477 2.477 0 0 0 1.948.796 2.145 2.145 0 0 0 2.259-1.296h1.937zm-6.778-2.916h4.841a2.383 2.383 0 0 0-.654-1.75 2.366 2.366 0 0 0-1.713-.734 2.47 2.47 0 0 0-1.75.728 2.488 2.488 0 0 0-.724 1.756zM29.279 2.811h.861a1.072 1.072 0 0 0 1.161-.537c.074-.134.118-.282.13-.435 0-.54-.538-.972-1.29-.972a1.072 1.072 0 0 0-1.195.61c-.067.147-.1.308-.097.47h-.86a2.058 2.058 0 0 1 1.36-1.83 2.03 2.03 0 0 1 .791-.114c1.291 0 2.152.756 2.152 1.728a1.516 1.516 0 0 1-1.076 1.512 1.502 1.502 0 0 1 1.326 1.032c.063.19.087.389.073.587a2.166 2.166 0 0 1-.78 1.468 2.15 2.15 0 0 1-1.587.476 2.144 2.144 0 0 1-2.223-1.103 2.164 2.164 0 0 1-.252-.84h1.076c0 .647.538 1.08 1.399 1.08.86 0 1.398-.54 1.398-1.08 0-.648-.538-1.08-1.398-1.08h-.969V2.81zm4.412 2.483c0-.971.645-1.403 1.829-1.511h1.29v-.54c0-.432-.322-.756-.967-.756-.538 0-.861.216-1.076.54h-.861c0-.864.86-1.404 1.937-1.404 1.29 0 1.936.648 1.936 1.728v3.24h-.86v-.649h-.108a1.616 1.616 0 0 1-1.506.756 1.394 1.394 0 0 1-1.076-.324 1.511 1.511 0 0 1-.538-1.08zm3.227-.432v-.54h-1.29c-.646.109-.969.324-.969.756s.43.756.968.756a1.073 1.073 0 0 0 1.076-.648l.108-.432.108.108zm3.444-2.267v3.887h-1.076v-4.86h3.227v.865h-2.151v.108zm7.962 1.62c0 1.511-.754 2.483-1.937 2.483a1.61 1.61 0 0 1-1.507-.864V8.21h-1.076V1.73h.969v.865a1.724 1.724 0 0 1 1.614-.864c1.183 0 1.937.864 1.937 2.484zm-.969 0c0-1.08-.43-1.728-1.291-1.728-.753 0-1.291.648-1.291 1.728s.538 1.62 1.291 1.62c.86 0 1.291-.649 1.291-1.62zm2.26 4.103v-.756h.322a.858.858 0 0 0 .861-.648v-.432l-1.614-4.86h1.076l1.076 3.888h.108l1.183-3.887h1.076l-1.829 5.075c-.43 1.188-.86 1.62-1.829 1.62h-.43zm4.841-3.024h.969c0 .324.43.648 1.076.648.538 0 .968-.324.968-.756s-.323-.755-1.076-.755h-.646v-.648h.646c.645 0 .86-.324.86-.648 0-.432-.215-.648-.86-.648-.538 0-.86.216-.968.648h-.861a1.728 1.728 0 0 1 1.829-1.512c1.184 0 1.83.54 1.83 1.404a1.083 1.083 0 0 1-.754.972 1.075 1.075 0 0 1 .968 1.08c0 1.08-.753 1.62-2.044 1.62-1.076 0-1.83-.433-1.937-1.405zm5.38 1.296V1.73h.86v3.348h.108l2.152-3.24h1.076v4.644h-1.076v-3.24l-2.152 3.24h-1.076l.108.108zm9.36-3.995H67.69v3.887h-.968V2.487h-1.506v-.864h3.98v.972zm5.165 2.7a1.943 1.943 0 0 1-.81 1.11 1.93 1.93 0 0 1-1.342.293 2.145 2.145 0 0 1-1.648-.742 2.16 2.16 0 0 1-.504-1.741 2.168 2.168 0 0 1 .456-1.816 2.152 2.152 0 0 1 1.696-.776c1.399 0 2.152.972 2.152 2.484v.324h-3.335a1.301 1.301 0 0 0 .742 1.397c.172.078.36.117.549.114a1.073 1.073 0 0 0 1.076-.648h1.076-.108zm-3.335-1.512H73.5a1.192 1.192 0 0 0-.322-.972 1.075 1.075 0 0 0-.861-.324 1.288 1.288 0 0 0-1.184.756l-.107.54zM78.45 1.73h2.152c.968 0 1.506.54 1.506 1.296a1.082 1.082 0 0 1-.86 1.08 1.08 1.08 0 0 1 1.075 1.079c0 .864-.645 1.404-1.721 1.404H78.45V1.73zm.968.756v1.296h.86c.646 0 .861-.216.861-.648 0-.432-.215-.648-.753-.648H79.31h.108zm0 1.944v1.403h1.076c.538 0 .86-.216.86-.648 0-.54-.322-.755-.968-.755H79.31h.108z" fill="#fff"/></svg>