<svg width="115" height="28" fill="none" xmlns="http://www.w3.org/2000/svg"><path d="M57.79 15.752a4.191 4.191 0 0 0-2.336.726 4.242 4.242 0 0 0-1.544 1.911 4.28 4.28 0 0 0 .927 4.624 4.183 4.183 0 0 0 4.591.912 4.223 4.223 0 0 0 1.889-1.565 4.274 4.274 0 0 0 .709-2.358 4.22 4.22 0 0 0-1.224-3.03 4.127 4.127 0 0 0-3.012-1.22zm0 6.829a2.542 2.542 0 0 1-1.466-.345c-.444-.26-.8-.65-1.021-1.116a2.599 2.599 0 0 1 .435-2.87 2.54 2.54 0 0 1 2.807-.645 2.59 2.59 0 0 1 1.626 2.397 2.477 2.477 0 0 1-.65 1.795 2.44 2.44 0 0 1-1.73.784zm-9.233-6.829a4.191 4.191 0 0 0-2.34.721 4.243 4.243 0 0 0-1.548 1.91 4.281 4.281 0 0 0 .92 4.627c.59.593 1.341.997 2.159 1.16a4.184 4.184 0 0 0 2.434-.244 4.223 4.223 0 0 0 1.89-1.565c.463-.698.71-1.52.71-2.36a4.22 4.22 0 0 0-1.224-3.03 4.127 4.127 0 0 0-3.011-1.22h.01zm0 6.829a2.543 2.543 0 0 1-1.47-.34 2.572 2.572 0 0 1-1.025-1.114 2.597 2.597 0 0 1 .429-2.871 2.54 2.54 0 0 1 2.808-.65c.478.188.89.517 1.18.945.29.427.447.933.448 1.45a2.48 2.48 0 0 1-.65 1.796 2.44 2.44 0 0 1-1.73.784h.01zm-11-5.519v1.8h4.285a3.784 3.784 0 0 1-.992 2.27c-.429.44-.944.784-1.513 1.011a4.352 4.352 0 0 1-1.79.308 4.742 4.742 0 0 1-3.366-1.406 4.819 4.819 0 0 1-1.395-3.393 4.82 4.82 0 0 1 1.395-3.394 4.742 4.742 0 0 1 3.366-1.405 4.543 4.543 0 0 1 3.243 1.29l1.26-1.27a6.238 6.238 0 0 0-2.058-1.394 6.196 6.196 0 0 0-2.435-.476 6.508 6.508 0 0 0-2.586.427 6.548 6.548 0 0 0-2.214 1.414 6.613 6.613 0 0 0-1.487 2.175 6.655 6.655 0 0 0 1.487 7.351 6.548 6.548 0 0 0 2.214 1.414 6.508 6.508 0 0 0 2.586.427 5.907 5.907 0 0 0 2.485-.426 5.947 5.947 0 0 0 2.087-1.424 6.027 6.027 0 0 0 1.548-4.22 5.92 5.92 0 0 0-.1-1.129l-6.02.05zm44.94 1.4a3.997 3.997 0 0 0-1.387-1.921 3.947 3.947 0 0 0-2.223-.789 3.94 3.94 0 0 0-2.897 1.259A4.004 4.004 0 0 0 74.92 20a4.188 4.188 0 0 0 1.197 3.021 4.122 4.122 0 0 0 2.988 1.229 4.17 4.17 0 0 0 1.99-.494 4.207 4.207 0 0 0 1.521-1.386l-1.438-1c-.215.36-.519.66-.882.866a2.394 2.394 0 0 1-1.191.314 2.13 2.13 0 0 1-1.219-.328 2.155 2.155 0 0 1-.824-.962l5.643-2.35-.208-.45zm-5.753 1.42a2.346 2.346 0 0 1 .585-1.707 2.313 2.313 0 0 1 1.617-.773c.32-.021.64.053.918.213s.504.399.65.687l-3.77 1.58zM72.162 24h1.855V11.503h-1.855v12.498zm-3.035-7.299h-.07a2.977 2.977 0 0 0-2.221-1 4.21 4.21 0 0 0-2.855 1.317 4.278 4.278 0 0 0-1.166 2.938 4.28 4.28 0 0 0 1.166 2.937 4.21 4.21 0 0 0 2.855 1.317 2.856 2.856 0 0 0 2.222-1h.06v.61c0 1.63-.864 2.5-2.252 2.5a2.318 2.318 0 0 1-1.29-.43 2.347 2.347 0 0 1-.833-1.08l-1.616.68a4.042 4.042 0 0 0 1.489 1.83c.666.447 1.45.684 2.25.679 2.172 0 3.967-1.29 3.967-4.43v-7.568h-1.706v.7zm-2.123 5.879a2.56 2.56 0 0 1-1.668-.83 2.601 2.601 0 0 1 0-3.498 2.561 2.561 0 0 1 1.668-.831 2.364 2.364 0 0 1 1.666.811A2.405 2.405 0 0 1 69.256 20a2.398 2.398 0 0 1-.583 1.778 2.36 2.36 0 0 1-1.678.802h.01zm24.181-11.078h-4.433V24h1.855v-4.74h2.588a3.83 3.83 0 0 0 2.905-1.03 3.89 3.89 0 0 0 1.23-2.847 3.917 3.917 0 0 0-1.23-2.847 3.852 3.852 0 0 0-2.905-1.032h-.01zm0 5.999h-2.588v-4.26h2.628c.564 0 1.106.227 1.504.629a2.153 2.153 0 0 1 0 3.033c-.398.402-.94.628-1.504.628l-.04-.03zm11.436-1.8a3.45 3.45 0 0 0-1.934.458 3.487 3.487 0 0 0-1.369 1.452l1.647.69a1.746 1.746 0 0 1 1.686-.92 1.774 1.774 0 0 1 1.777.931c.113.21.183.44.207.679v.13a4.072 4.072 0 0 0-1.934-.48c-1.776 0-3.571 1-3.571 2.81a2.908 2.908 0 0 0 .961 2.029 2.866 2.866 0 0 0 2.114.72 2.59 2.59 0 0 0 1.353-.271 2.611 2.611 0 0 0 1.027-.93h.06v1h1.785v-4.808c0-2.19-1.647-3.46-3.759-3.46l-.05-.03zm-.228 6.849c-.605 0-1.448-.31-1.448-1.06 0-1 1.051-1.33 1.984-1.33a3.273 3.273 0 0 1 1.686.42 2.266 2.266 0 0 1-.715 1.41 2.233 2.233 0 0 1-1.457.59l-.05-.03zm10.543-6.549-2.122 5.42h-.06l-2.202-5.42h-1.983l3.303 7.579-1.885 4.209h1.934l5.078-11.788h-2.063zM96.264 24h1.854V11.503h-1.854v12.498z" fill="#fff"/><path d="M.46 2.07a2.01 2.01 0 0 0-.456 1.4v22.116a2.01 2.01 0 0 0 .456 1.4l.07.07 12.288-12.378v-.29L.529 2l-.07.07z" fill="url(#a)"/><path d="m16.961 18.557-4.066-4.13v-.29l4.066-4.139.09.05 4.87 2.79c1.388.79 1.388 2.09 0 2.89l-4.85 2.779-.11.05z" fill="url(#b)"/><path d="m16.544 18.217-4.186-4.22L0 26.456a1.61 1.61 0 0 0 2.063.06l14.49-8.298" fill="url(#c)"/><path d="M16.554 9.644 2.063 1.346A1.608 1.608 0 0 0 0 1.406l12.368 12.457 4.186-4.219z" fill="url(#d)"/><path opacity=".2" d="M16.425 17.997 2.053 26.245a1.648 1.648 0 0 1-1.984 0l-.069.07.07.07a1.638 1.638 0 0 0 1.983 0l14.49-8.298-.118-.09z" fill="#000"/><path opacity=".12" d="M.46 26.315a2.01 2.01 0 0 1-.456-1.4v.15a2.01 2.01 0 0 0 .456 1.4l.07-.07-.07-.08zm21.384-11.018-4.96 2.83.09.09 4.87-2.78a1.741 1.741 0 0 0 .991-1.44 1.868 1.868 0 0 1-.991 1.3z" fill="#000"/><path opacity=".25" d="m2.52 1.474 19.33 11.078a1.85 1.85 0 0 1 .992 1.3 1.758 1.758 0 0 0-.992-1.44L2.52 1.334C1.13.544 0 1.204 0 2.804v.15c.03-1.61 1.14-2.27 2.52-1.48z" fill="#fff"/><path d="M31.48 8.415h-.733v-2h.625a2.865 2.865 0 0 0 .753-2.3v-2.97h3.968v5.26h.664v2h-.734v-1.26h-4.542v1.27zm1.38-4.27a4.025 4.025 0 0 1-.566 2.3h2.976v-4.56h-2.41v2.26zm9.828 2.22a3.082 3.082 0 0 1-2.182.907 3.082 3.082 0 0 1-2.182-.907 3.253 3.253 0 0 1-.877-2.225c0-.827.314-1.623.877-2.224A3.073 3.073 0 0 1 40.506 1a3.054 3.054 0 0 1 2.182.916 3.243 3.243 0 0 1 0 4.45zm-3.798-.5a2.282 2.282 0 0 0 3.233 0 2.571 2.571 0 0 0 0-3.44 2.282 2.282 0 0 0-3.233 0 2.571 2.571 0 0 0 0 3.44zm8.53 1.41a3.013 3.013 0 0 1-2.21-.9 3.061 3.061 0 0 1-.885-2.23 3.081 3.081 0 0 1 .885-2.23 3.034 3.034 0 0 1 2.21-.899 2.728 2.728 0 0 1 2.181 1l-.535.52a1.987 1.987 0 0 0-1.657-.76 2.236 2.236 0 0 0-1.646.66 2.581 2.581 0 0 0 0 3.469 2.25 2.25 0 0 0 1.647.66 2.335 2.335 0 0 0 1.815-.89l.535.54a2.9 2.9 0 0 1-.992.78 3.103 3.103 0 0 1-1.349.28zm5.454-.13h-.763v-5.26h-1.666v-.74h4.086v.74h-1.657v5.26zm6.914-6-2.252 5.06c-.09.3-.27.563-.515.755a1.49 1.49 0 0 1-.854.315 1.517 1.517 0 0 1-.595-.13l.199-.71a.8.8 0 0 0 .396.11.7.7 0 0 0 .417-.1.94.94 0 0 0 .268-.38l.218-.48-1.984-4.43h.903l1.468 3.44 1.428-3.45h.903zm.863 6v-6h4.304v6h-.764v-5.26h-2.777v5.26h-.764zm5.663 0v-6h.764v2.57h2.975v-2.57h.764v6h-.764v-2.71h-2.975v2.71h-.764zm10.741-.78a3.082 3.082 0 0 1-2.182.907 3.082 3.082 0 0 1-2.182-.907 3.254 3.254 0 0 1-.877-2.225c0-.827.314-1.623.877-2.224A3.074 3.074 0 0 1 74.873 1a3.054 3.054 0 0 1 2.182.916 3.243 3.243 0 0 1 0 4.45zm-3.798-.5a2.282 2.282 0 0 0 3.233 0 2.571 2.571 0 0 0 0-3.44 2.282 2.282 0 0 0-3.233 0 2.57 2.57 0 0 0 0 3.44zm7.795 1.28v-6h2.153c.447-.008.88.157 1.21.46a1.51 1.51 0 0 1 .515 1.17c.005.267-.07.529-.218.75a1.381 1.381 0 0 1-.585.49c.288.096.54.278.724.52.19.245.293.549.288.86a1.581 1.581 0 0 1-.536 1.22 1.83 1.83 0 0 1-1.27.49l-2.28.04zm.764-3.43h1.389a.886.886 0 0 0 .694-.29.888.888 0 0 0 .29-.63.896.896 0 0 0-.25-.65.854.854 0 0 0-.665-.29h-1.418l-.04 1.86zm0 2.69h1.537a.906.906 0 0 0 .715-.31 1 1 0 0 0 .277-.68c0-.265-.104-.52-.29-.707a.988.988 0 0 0-.702-.293h-1.507l-.03 1.99z" fill="#fff" stroke="#fff" stroke-width=".2" stroke-miterlimit="10"/><defs><linearGradient id="a" x1="11.727" y1="3.24" x2="-5.049" y2="19.882" gradientUnits="userSpaceOnUse"><stop stop-color="#00A0FF"/><stop offset=".01" stop-color="#00A1FF"/><stop offset=".26" stop-color="#00BEFF"/><stop offset=".51" stop-color="#00D2FF"/><stop offset=".76" stop-color="#00DFFF"/><stop offset="1" stop-color="#00E3FF"/></linearGradient><linearGradient id="b" x1="23.735" y1="14.277" x2="-.257" y2="14.277" gradientUnits="userSpaceOnUse"><stop stop-color="#FFE000"/><stop offset=".41" stop-color="#FFBD00"/><stop offset=".78" stop-color="orange"/><stop offset="1" stop-color="#FF9C00"/></linearGradient><linearGradient id="c" x1="14.273" y1="16.297" x2="-8.482" y2="38.861" gradientUnits="userSpaceOnUse"><stop stop-color="#FF3A44"/><stop offset="1" stop-color="#C31162"/></linearGradient><linearGradient id="d" x1="-3.104" y1="-5.953" x2="7.053" y2="4.124" gradientUnits="userSpaceOnUse"><stop stop-color="#32A071"/><stop offset=".07" stop-color="#2DA771"/><stop offset=".48" stop-color="#15CF74"/><stop offset=".8" stop-color="#06E775"/><stop offset="1" stop-color="#00F076"/></linearGradient></defs></svg>