<svg width="180" height="72" viewBox="0 0 180 72" fill="none" xmlns="http://www.w3.org/2000/svg">
<path fill-rule="evenodd" clip-rule="evenodd" d="M11.9934 42.1654C12.3157 43.1671 12.7122 43.8517 13.1951 44.2205C13.7375 44.6581 14.4149 44.8763 15.2286 44.8763C16.1517 44.8763 16.8924 44.6159 17.447 44.0892C17.6683 43.8698 17.8544 43.5974 18.0015 43.2707C18.1475 42.9501 18.3567 42.3559 18.6303 41.4904L22.1963 29.7297L24.1386 41.5025C24.3125 42.5933 24.5679 43.3635 24.9133 43.8143C25.4411 44.5219 26.2025 44.8763 27.1864 44.8763C27.8748 44.8763 28.4987 44.6569 29.0533 44.2205C29.7295 43.6552 30.0688 42.926 30.0688 42.0208C30.0688 41.7122 30.0105 41.2192 29.8852 40.5394L26.6501 22.1275C26.5163 21.3212 26.1064 20.6329 25.4302 20.0555C24.6786 19.4492 23.8151 19.1431 22.8409 19.1431C21.9907 19.1431 21.2415 19.3817 20.5909 19.8567C19.849 20.3918 19.3248 21.1488 19.0171 22.1288L15.1179 34.4571L10.8672 21.5779C10.6325 20.8583 10.2214 20.2821 9.62911 19.8554C8.96384 19.3697 8.1733 19.125 7.26236 19.125C6.18114 19.125 5.26168 19.4492 4.50884 20.0965C3.93114 20.5943 3.55411 21.3621 3.38019 22.4024L0.388301 40.59C0.277626 41.2373 0.22168 41.7086 0.22168 42.0027C0.22168 42.9441 0.565869 43.6829 1.25546 44.241C1.79546 44.6629 2.40722 44.8775 3.08344 44.8775C4.08317 44.8775 4.83479 44.5231 5.34073 43.8155C5.67276 43.3551 5.9233 42.58 6.09722 41.5025L7.98236 29.7309L11.9934 42.1654ZM33.1774 28.1362C31.5246 29.8948 30.7 32.1946 30.7 35.0381C30.7 37.7911 31.5246 40.0704 33.1774 41.8724C34.0397 42.8126 35.0747 43.5527 36.28 44.077C37.4877 44.6146 38.7343 44.8762 40.015 44.8762C41.1838 44.8762 42.338 44.6435 43.4703 44.1831C44.7862 43.6552 45.91 42.8885 46.8343 41.8712C48.4859 40.0704 49.313 37.7754 49.313 35.0031C49.313 32.2235 48.4859 29.9297 46.8343 28.135C45.983 27.2177 44.9577 26.4909 43.7488 25.9485C42.5399 25.4036 41.3346 25.1288 40.1257 25.1288C37.3782 25.13 35.0601 26.1317 33.1774 28.1362ZM42.5468 31.433C43.4091 32.3261 43.8433 33.5194 43.8433 35.0225C43.8433 36.5111 43.4103 37.6972 42.5468 38.5783C41.7939 39.3558 40.9195 39.7463 39.9234 39.7463C38.7996 39.7463 37.8717 39.234 37.1298 38.2095C36.5144 37.3585 36.2066 36.2845 36.2066 35.0044C36.2066 33.7183 36.5144 32.66 37.1298 31.8175C37.8826 30.7772 38.7996 30.2601 39.8833 30.2601C40.9195 30.2601 41.8061 30.6519 42.5468 31.433ZM56.4103 25.8449C55.9384 25.4423 55.3595 25.2434 54.6724 25.2434C53.8429 25.2434 53.1606 25.5363 52.6194 26.1197C52.1013 26.6814 51.8447 27.4697 51.8447 28.4822V41.0842C51.8447 42.1317 51.9663 42.9067 52.2132 43.3961C52.4224 43.7963 52.7507 44.1205 53.1995 44.3845C53.6483 44.64 54.1251 44.7642 54.6152 44.7642C55.109 44.7642 55.5797 44.64 56.0272 44.3845C56.476 44.1205 56.8093 43.7975 57.0185 43.3961C57.2653 42.8935 57.3906 42.1232 57.3906 41.0842V33.1385C57.3906 32.3213 57.6399 31.5981 58.1471 30.9737C58.7467 30.242 59.5421 29.8768 60.5272 29.8768C61.4783 29.8768 62.253 30.2167 62.8599 30.9014C63.389 31.4992 63.6553 32.3261 63.6553 33.3772V41.0842C63.6553 42.1317 63.7758 42.9067 64.0202 43.3961C64.233 43.7963 64.5614 44.1205 65.0139 44.3845C65.4626 44.64 65.9321 44.7642 66.4235 44.7642C66.9197 44.7642 67.3916 44.6388 67.8501 44.3736C68.3074 44.1109 68.6309 43.789 68.8279 43.3961C69.076 42.9067 69.1964 42.1305 69.1964 41.0842V32.073C69.1964 30.9279 69.0943 29.9973 68.8851 29.2922C68.626 28.3846 68.0568 27.5565 67.1824 26.7995C65.9163 25.6882 64.3133 25.1301 62.3783 25.1301C61.2679 25.1301 60.2755 25.3109 59.401 25.6617C58.7589 25.9317 58.0413 26.4331 57.2386 27.1648C56.9917 26.5428 56.7168 26.1028 56.4103 25.8449ZM87.808 36.8402C89.4231 36.8402 90.2295 36.1133 90.2295 34.6753C90.2295 33.8931 90.1419 33.1084 89.9558 32.3321C89.4231 30.1335 88.3516 28.3918 86.7389 27.1081C85.063 25.7894 83.1475 25.1301 80.9923 25.1301C78.5258 25.1301 76.3962 25.9594 74.5962 27.6047C72.5129 29.5224 71.4742 32.0862 71.4742 35.3021C71.4742 37.6646 72.1735 39.6969 73.5807 41.3783C75.5266 43.7059 78.1926 44.8775 81.5822 44.8775C83.848 44.8775 85.8766 44.3688 87.6645 43.3587C89.1531 42.5162 89.9011 41.582 89.9011 40.5406C89.9011 40.0741 89.7162 39.6077 89.3453 39.1412C88.8989 38.5747 88.3589 38.2781 87.7192 38.2781C87.2497 38.2781 86.8241 38.3782 86.4446 38.5602C85.187 39.1641 84.4561 39.5136 84.2469 39.5968C83.4406 39.9198 82.6476 40.0777 81.8595 40.0777C80.777 40.0777 79.8746 39.8102 79.1522 39.2834C78.4297 38.7531 77.8654 37.9334 77.4616 36.8402H87.808ZM77.2597 33.0795C77.6136 32.02 78.0283 31.2437 78.4966 30.7544C79.2251 30.0094 80.1032 29.6394 81.1382 29.6394C82.3471 29.6394 83.2812 30.1191 83.9501 31.087C84.2578 31.5234 84.529 32.1911 84.7601 33.0795H77.2597ZM96.3689 27.8241C95.9736 26.8478 95.5711 26.1776 95.1673 25.8099C94.7112 25.4206 94.1372 25.2229 93.45 25.2229C92.8553 25.2229 92.3274 25.3796 91.8568 25.6991C91.0577 26.2487 90.6563 26.9683 90.6563 27.8603C90.6563 28.3508 90.8412 29.0319 91.2146 29.9106L96.7022 42.7717L94.5203 47.8463C94.1372 48.7262 93.9462 49.4169 93.9462 49.9147C93.9462 50.674 94.26 51.3225 94.89 51.8577C95.4178 52.3097 96.0296 52.5327 96.718 52.5327C97.6313 52.5327 98.3526 52.1844 98.8816 51.4696C99.0932 51.1779 99.3438 50.6885 99.6405 49.9822L108.102 29.9865C108.486 29.0957 108.677 28.3966 108.677 27.8988C108.677 27.1033 108.349 26.4331 107.696 25.8835C107.166 25.4423 106.551 25.2229 105.852 25.2229C105.146 25.2229 104.564 25.423 104.097 25.8304C103.675 26.1957 103.267 26.8767 102.873 27.8795L99.6211 35.9783L96.3689 27.8241Z" fill="#92C83E"/>
<path fill-rule="evenodd" clip-rule="evenodd" d="M178.183 44.3735C177.727 44.6387 177.251 44.764 176.765 44.764C176.264 44.764 175.791 44.6399 175.347 44.3843C174.894 44.1204 174.565 43.7961 174.363 43.3959C174.105 42.9066 173.991 42.1303 173.991 41.0841V33.377C173.991 32.3259 173.722 31.4991 173.189 30.9012C172.587 30.2166 171.812 29.8767 170.869 29.8767C169.874 29.8767 169.081 30.2419 168.479 30.9735C167.97 31.5979 167.722 32.3211 167.722 33.1383V41.0841C167.722 42.1231 167.601 42.8921 167.349 43.3959C167.142 43.7961 166.811 44.1204 166.359 44.3843C165.915 44.6399 165.442 44.764 164.948 44.764C164.454 44.764 163.987 44.6399 163.535 44.3843C163.084 44.1204 162.752 43.7961 162.546 43.3959C162.295 42.9066 162.18 42.1303 162.18 41.0841V28.4821C162.18 27.4696 162.439 26.6813 162.95 26.1196C163.496 25.5362 164.176 25.2433 165.004 25.2433C165.696 25.2433 166.273 25.4421 166.746 25.8447C167.05 26.1027 167.326 26.5426 167.57 27.1646C168.377 26.4329 169.094 25.9303 169.734 25.6615C170.607 25.3108 171.6 25.13 172.709 25.13C174.649 25.13 176.244 25.6868 177.514 26.7982C178.388 27.5563 178.958 28.3844 179.218 29.2908C179.43 29.996 179.533 30.9265 179.533 32.0728V41.0841C179.533 42.1303 179.41 42.9054 179.167 43.3947C178.97 43.7889 178.639 44.1107 178.183 44.3735ZM156.115 44.764C154.822 44.764 153.894 44.0444 153.34 42.5835C152.71 43.3441 152.162 43.8708 151.682 44.165C150.877 44.6399 149.899 44.8773 148.736 44.8773C146.683 44.8773 144.849 44.1794 143.252 42.7716C141.055 40.8502 139.959 38.2322 139.959 34.9126C139.959 31.9571 140.922 29.5295 142.859 27.6238C144.563 25.9629 146.506 25.13 148.686 25.13C149.91 25.13 150.964 25.4132 151.884 25.9725C152.272 26.2292 152.78 26.6692 153.404 27.2924C153.708 26.5728 154.057 26.0725 154.432 25.7893C154.939 25.4241 155.506 25.2433 156.153 25.2433C156.859 25.2433 157.501 25.4976 158.056 26.0123C158.626 26.5475 158.906 27.2321 158.906 28.0614V41.5216C158.906 42.5389 158.626 43.3441 158.056 43.9468C157.539 44.4904 156.897 44.764 156.115 44.764ZM152.029 31.4509C151.292 30.6553 150.379 30.26 149.299 30.26C148.173 30.26 147.251 30.7012 146.541 31.5799C145.851 32.461 145.502 33.6012 145.502 35.0043C145.502 36.3977 145.851 37.5343 146.541 38.4082C147.251 39.305 148.198 39.7462 149.369 39.7462C150.394 39.7462 151.268 39.3508 151.992 38.5589C152.811 37.6645 153.216 36.476 153.216 34.985C153.216 33.4711 152.819 32.2922 152.029 31.4509ZM135.949 44.8774C134.962 44.8774 134.212 44.523 133.673 43.8155C133.339 43.3635 133.072 42.5944 132.904 41.5024L130.962 29.7309L127.393 41.4903C127.12 42.357 126.915 42.95 126.769 43.2719C126.618 43.5985 126.435 43.8709 126.208 44.0903C125.652 44.617 124.915 44.8774 123.994 44.8774C123.181 44.8774 122.503 44.6592 121.963 44.2217C121.479 43.8528 121.079 43.1682 120.761 42.1653L116.749 29.7321L114.862 41.5036C114.69 42.58 114.436 43.3562 114.108 43.8155C113.599 44.5242 112.849 44.8774 111.849 44.8774C111.169 44.8774 110.561 44.664 110.021 44.241C109.331 43.6841 108.986 42.9452 108.986 42.0026C108.986 41.7097 109.04 41.2384 109.151 40.5899L112.144 22.4023C112.319 21.3633 112.695 20.5943 113.275 20.0965C114.024 19.4492 114.94 19.1261 116.025 19.1261C116.942 19.1261 117.727 19.3708 118.389 19.8566C118.981 20.2833 119.395 20.8594 119.631 21.579L123.881 34.4571L127.779 22.1287C128.089 21.1487 128.609 20.3918 129.347 19.8566C130.001 19.3829 130.76 19.1442 131.612 19.1442C132.577 19.1442 133.444 19.4492 134.196 20.0555C134.873 20.6328 135.285 21.3223 135.413 22.1287L138.649 40.5405C138.778 41.2203 138.837 41.7133 138.837 42.0219C138.837 42.9271 138.492 43.6564 137.816 44.2229C137.267 44.658 136.641 44.8774 135.949 44.8774Z" fill="#4D4D4D"/>
</svg>
