<svg width="96" height="96" viewBox="0 0 96 96" fill="none" xmlns="http://www.w3.org/2000/svg">
<rect width="96" height="96" fill="#F4F5F8"/>
<path fill-rule="evenodd" clip-rule="evenodd" d="M48.41 22.6191C45.5057 22.6191 43.4549 24.0453 41.8436 26.0083C40.4878 27.6601 39.2064 29.9887 37.7895 32.5636C37.6875 32.749 37.5848 32.9355 37.4814 33.1232C34.267 38.9552 25.8386 53.815 22.0181 60.5299L22.0173 60.5314C20.0502 63.993 20.6337 67.9683 22.9571 70.5207C25.4059 73.2102 29.4126 73.9441 33.2012 71.72C36.1675 69.9802 39.1108 68.272 41.7592 66.7349H41.7599C44.3406 65.2375 46.6414 63.9027 48.4102 62.8581C50.1593 63.8905 52.4294 65.2067 54.9753 66.6833L54.978 66.6845C57.6513 68.2344 60.6289 69.9614 63.627 71.72C67.4156 73.9441 71.4222 73.2102 73.8711 70.5207C76.1944 67.9683 76.7779 63.993 74.8108 60.5314L74.81 60.5299C70.9896 53.815 62.5612 38.9552 59.3468 33.1232C59.2487 32.9452 59.1513 32.7683 59.0546 32.5926C57.6303 30.0047 56.3425 27.665 54.9788 26.0063C53.3654 24.044 51.3131 22.6191 48.41 22.6191Z" fill="#FF3A1F"/>
<path fill-rule="evenodd" clip-rule="evenodd" d="M48.41 22.6191C45.5057 22.6191 43.4549 24.0453 41.8436 26.0083C40.4878 27.6601 39.2064 29.9887 37.7895 32.5636C37.6875 32.749 37.5848 32.9355 37.4814 33.1232C34.267 38.9552 25.8386 53.815 22.0181 60.5299L22.0173 60.5314C20.0502 63.993 20.6337 67.9683 22.9571 70.5207C25.4039 73.2078 29.4059 73.9429 33.1916 71.7259L66.6265 52.389C67.2989 52.0001 68.0953 51.5274 69.291 50.8073C68.9079 50.1348 68.6294 49.634 68.3774 49.1811C68.1744 48.8163 67.9887 48.4825 67.7795 48.1148L67.1022 46.9243C63.7835 41.0922 62.3647 38.5985 59.3468 33.1232C59.2487 32.9452 59.1513 32.7683 59.0546 32.5926C57.6303 30.0047 56.3425 27.665 54.9788 26.0063C53.3654 24.044 51.3131 22.6191 48.41 22.6191Z" fill="#293346"/>
</svg>
