<svg width="96" height="96" viewBox="0 0 96 96" fill="none" xmlns="http://www.w3.org/2000/svg">
<rect width="96" height="96" fill="#F4F5F8"/>
<path d="M33.8805 76.1228C33.8805 76.0704 33.8805 76.0181 33.9328 75.9658C34.1944 75.9658 34.4559 75.9658 34.7698 75.9658C42.7733 75.9658 50.8291 75.9658 58.8325 75.9658C61.3958 75.9658 63.959 75.9658 66.5222 75.9658H66.5745H66.6268C66.6268 76.0181 66.6268 76.0704 66.6268 76.0704C55.7462 76.1228 44.8134 76.1228 33.8805 76.1228Z" fill="#94A9DB"/>
<path d="M66.5222 75.9659C63.959 75.9659 61.3958 75.9659 58.8326 75.9659C50.8291 75.9659 42.7733 75.9659 34.7698 75.9659C34.5083 75.9659 34.2467 75.9659 33.9329 75.9659C33.9329 72.3565 33.9329 68.7471 33.9329 65.1377C40.8378 65.1377 47.6905 65.1377 54.5955 65.1377C55.9032 65.1377 57.211 65.1377 58.5187 65.1377C58.571 65.1377 58.6234 65.1377 58.6757 65.19C60.4019 67.5963 62.1805 70.0026 63.9067 72.4611C64.796 73.612 65.7899 74.7105 66.5222 75.9659Z" fill="#2D57B9"/>
<path d="M33.9328 29.9329C33.9328 26.4281 33.9328 22.9233 33.8805 19.4185C33.8805 19.1569 33.9328 19 34.2467 19C34.3513 19 34.5082 19 34.6128 19C44.9703 19 55.2754 19 65.6329 19C65.8421 19 66.1037 19 66.3129 19C66.2606 19.1046 66.2083 19.2092 66.156 19.2616C64.1159 22.034 62.0758 24.8588 60.088 27.6312C59.5649 28.3636 58.9372 29.0436 58.5187 29.8806H58.4664C58.2048 29.8806 57.9433 29.8806 57.6294 29.8806C49.8352 29.9329 41.884 29.9329 33.9328 29.9329Z" fill="#276DCB"/>
<path d="M58.728 65.138C58.6757 65.138 58.6234 65.138 58.5711 65.0857C57.8387 64.0395 57.0541 62.9933 56.3217 61.9471C52.9216 57.2915 49.5214 52.6358 46.1212 47.9802C45.9643 47.7187 45.7027 47.5617 45.9643 47.1956C48.1613 44.2139 50.3584 41.2322 52.5031 38.2505C53.7585 39.9244 54.9617 41.6507 56.2171 43.3246C57.2633 44.6847 58.2049 46.1494 59.3034 47.4571C60.0358 48.6603 60.9251 49.7588 61.762 50.9096C65.0576 55.4606 68.4054 60.0116 71.7533 64.5626C71.8579 64.7195 71.9102 64.8242 72.0149 64.9811C71.6487 65.1903 71.1779 65.0857 70.8117 65.0857C66.7838 65.138 62.7559 65.138 58.728 65.138Z" fill="#01E4B8"/>
<path d="M33.9852 65.0855C33.9852 65.0855 33.9329 65.1378 33.9852 65.0855C33.7759 65.1378 33.5667 65.1378 33.4098 65.1378C30.1665 65.1378 26.871 65.1378 23.6277 65.1378C23.3139 65.1378 23.0523 65.1901 23.0523 64.667C23 56.7681 23 48.817 23 40.8658V40.8135C26.6617 40.8135 30.2711 40.8135 33.9329 40.8135C33.9852 48.9216 33.9852 57.0297 33.9852 65.0855Z" fill="#2E5A7C"/>
<path d="M59.3558 47.4571C58.2573 46.1494 57.3157 44.6847 56.2695 43.3246C55.014 41.6507 53.7586 39.9768 52.5554 38.2505C52.6077 38.1982 52.66 38.0936 52.66 38.0413C54.6478 35.3211 56.6356 32.601 58.5711 29.8809H58.6234C63.1221 29.8809 67.6208 29.8809 72.1195 29.8809C71.1256 31.3979 69.9748 32.8626 68.9286 34.3272C65.7376 38.7213 62.5467 43.1154 59.3558 47.4571Z" fill="#1B689F"/>
<path d="M33.9852 40.8137C30.3235 40.8137 26.714 40.8137 23.0523 40.8137C23 37.3089 23 33.8041 23 30.3516C23 30.0377 23.1046 29.9331 23.4185 29.9331C26.9233 29.9331 30.4281 29.9331 33.9329 29.9331C33.9852 33.5425 33.9852 37.2042 33.9852 40.8137Z" fill="#02E4B9"/>
<path d="M72.1194 29.9328C67.6207 29.9328 63.122 29.9328 58.6233 29.9328C59.0418 29.0958 59.6172 28.4158 60.1926 27.6835C62.2327 24.911 64.2205 22.0862 66.2606 19.3138C66.3129 19.2092 66.3652 19.1046 66.4175 19.0522C66.6268 19.0522 66.6791 19.2615 66.7314 19.4184C68.5099 22.8709 70.2885 26.2711 72.1194 29.7236C72.1194 29.7759 72.1194 29.8282 72.1194 29.9328Z" fill="#1889B4"/>
<path d="M58.728 65.1379C62.7559 65.1379 66.7838 65.1379 70.864 65.0856C71.2825 65.0856 71.701 65.1902 72.0672 64.981C72.2764 65.1379 72.1195 65.2948 72.0672 65.3994C70.2886 68.9042 68.4578 72.4613 66.6792 75.9661H66.6269H66.5746C65.8422 74.7107 64.8483 73.5599 64.0114 72.3567C62.2328 69.9504 60.4543 67.5442 58.728 65.1379Z" fill="#15B1C5"/>
</svg>
