<svg width="180" height="72" viewBox="0 0 180 72" fill="none" xmlns="http://www.w3.org/2000/svg">
<g clip-path="url(#clip0_610_30)">
<path fill-rule="evenodd" clip-rule="evenodd" d="M18.4113 19C16.4726 19 15.1037 19.952 14.0282 21.2623C13.1232 22.3649 12.2678 23.9193 11.322 25.6381C11.2539 25.7618 11.1853 25.8863 11.1163 26.0116C8.97064 29.9046 3.34455 39.8237 0.794339 44.306L0.793791 44.3071C-0.51927 46.6177 -0.129764 49.2713 1.42113 50.975C3.05577 52.7703 5.73025 53.2603 8.25925 51.7756C10.2392 50.6143 12.204 49.474 13.9718 48.448H13.9723C15.695 47.4484 17.2308 46.5574 18.4115 45.8601C19.5791 46.5493 21.0943 47.4279 22.7938 48.4136L22.7956 48.4143C24.5801 49.449 26.5677 50.6017 28.569 51.7756C31.0979 53.2603 33.7724 52.7703 35.4071 50.975C36.9579 49.2713 37.3474 46.6177 36.0343 44.3071L36.0338 44.306C33.4836 39.8237 27.8575 29.9046 25.7118 26.0116C25.6464 25.8928 25.5814 25.7747 25.5168 25.6574C24.5661 23.93 23.7065 22.3682 22.7961 21.261C21.7192 19.9511 20.3492 19 18.4113 19Z" fill="#FF3A1F"/>
<path fill-rule="evenodd" clip-rule="evenodd" d="M18.4113 19C16.4726 19 15.1037 19.952 14.0282 21.2623C13.1232 22.3649 12.2678 23.9193 11.322 25.6381C11.2539 25.7618 11.1853 25.8863 11.1163 26.0116C8.97064 29.9046 3.34455 39.8237 0.794339 44.306L0.793791 44.3071C-0.51927 46.6177 -0.129764 49.2713 1.42113 50.975C3.05443 52.7688 5.72579 53.2595 8.25283 51.7796L30.5712 38.8718C31.02 38.6122 31.5516 38.2967 32.3497 37.816C32.0941 37.3671 31.9081 37.0329 31.7399 36.7305C31.6044 36.487 31.4804 36.2642 31.3408 36.0188L30.8887 35.2241C28.6734 31.3311 27.7263 29.6665 25.7118 26.0116C25.6464 25.8928 25.5814 25.7747 25.5168 25.6574C24.5661 23.93 23.7065 22.3682 22.7961 21.261C21.7192 19.9511 20.3492 19 18.4113 19Z" fill="#293346"/>
<path fill-rule="evenodd" clip-rule="evenodd" d="M100.226 25.8804H104.733V33.7164H114.348V25.8804H118.855V33.7164V38.2371V46.0732H114.348V38.2371H104.733V46.0732H100.226V38.2371V33.7164V25.8804Z" fill="#293346"/>
<path fill-rule="evenodd" clip-rule="evenodd" d="M57.035 41.5524C57.0767 41.4573 59.0323 36.9767 59.7243 30.4012H65.6725V41.5524H57.035ZM52.528 41.5524C52.5752 41.428 55.4569 33.8023 55.4569 25.8819V25.8804H65.6725H70.1796V30.4012V41.5524H73.785V46.0732H70.1796H65.6725H48.8467V41.5524H52.528Z" fill="#293346"/>
<path fill-rule="evenodd" clip-rule="evenodd" d="M89.1413 40.5489C88.167 41.274 86.9602 41.703 85.6533 41.703C83.2358 41.703 81.1603 40.2342 80.265 38.1379H85.6321H91.0423H95.7622C95.9305 37.3943 96.0197 36.6205 96.0197 35.826C96.0197 30.0834 91.3788 25.4282 85.6533 25.4282C79.9285 25.4282 75.2876 30.0834 75.2876 35.826C75.2876 41.5685 79.9285 46.2238 85.6533 46.2238C88.5505 46.2238 91.1691 45.032 93.0505 43.1107C93.2626 42.8937 93.466 42.6675 93.6586 42.4326L89.1413 40.5489ZM80.2227 33.617C81.093 31.4659 83.1966 29.949 85.6533 29.949C88.1106 29.949 90.2143 31.4659 91.0846 33.617H80.2227Z" fill="#293346"/>
<path fill-rule="evenodd" clip-rule="evenodd" d="M127.869 25.8804H123.362V33.415V37.9358V41.5524V46.0732H127.869H133.879C137.363 46.0732 140.188 43.2396 140.188 39.7441C140.188 36.2486 137.363 33.415 133.879 33.415H127.869V25.8804ZM127.869 37.9358V41.5524H133.879C134.874 41.5524 135.681 40.7428 135.681 39.7441C135.681 38.7454 134.874 37.9358 133.879 37.9358H127.869Z" fill="#293346"/>
<path fill-rule="evenodd" clip-rule="evenodd" d="M161.22 25.8804H165.728V39.6965L175.493 25.8804H180V46.0732H175.493V32.2571L165.728 46.0732H161.22V25.8804Z" fill="#293346"/>
<path fill-rule="evenodd" clip-rule="evenodd" d="M148.902 25.8804H144.395V30.4011V46.0732H148.902V30.4011H156.714V25.8804H148.902Z" fill="#293346"/>
</g>
<defs>
<clipPath id="clip0_610_30">
<rect width="180" height="72" fill="white"/>
</clipPath>
</defs>
</svg>
