<svg width="180" height="72" viewBox="0 0 180 72" fill="none" xmlns="http://www.w3.org/2000/svg">
<g clip-path="url(#clip0_311_30)">
<path d="M7.74548 46.9121V37.3526L16.5851 46.9121H26.4037L15.2606 35.1643L25.6839 25.4896H16.5564L7.74548 33.7822V25.4896H0V46.9121H7.74548Z" fill="#007AFF"/>
<path d="M35.4832 46.9116V38.619C35.4832 36.7763 36.203 35.8549 37.6427 35.8549C39.0536 35.8549 39.5719 36.7475 39.5719 38.5039V39.2813H46.9431C46.9718 38.6766 47.0294 38.0144 47.0294 36.949C47.0294 33.609 45.7625 30.4705 41.3283 30.4705H41.0979C37.5275 30.4705 35.9727 32.6012 35.4256 33.465V30.8448H28.0833V46.9116H35.4832Z" fill="#007AFF"/>
<path d="M60.8066 34.5018C63.6572 34.5018 64.3483 35.6823 64.3483 36.9492H57.1786C57.5242 35.3656 58.4168 34.5018 60.8066 34.5018ZM64.377 41.6713C64.2042 41.9306 63.8011 42.9095 61.2097 42.9095C58.5319 42.9095 57.4377 41.9017 57.121 40.1741H72.2089V39.5695C72.2089 34.9625 70.5389 30.4419 61.3249 30.4419H60.0292C51.3623 30.4419 49.4619 34.9913 49.4619 38.6769V39.08C49.4619 42.6791 51.3047 47.3149 60.3459 47.3149H61.6129C70.7115 47.3149 72.0361 43.5717 72.1513 41.6713H64.377Z" fill="#007AFF"/>
<path d="M86.3446 35.3368C89.1087 35.3368 89.9438 37.2948 89.9438 38.7633V38.9072C89.9438 40.4333 89.1087 42.3913 86.3446 42.3913H86.0854C83.35 42.3913 82.515 40.4046 82.515 38.8784V38.7921C82.515 37.2948 83.2924 35.3368 86.0854 35.3368H86.3446ZM89.8862 25.1151V32.2559C89.2239 31.7376 87.3811 30.5283 83.7531 30.5283H83.4363C76.9003 30.5283 74.7983 34.8186 74.7983 38.5617V39.2528C74.7983 43.0535 77.0155 47.2286 83.4652 47.2286H83.8107C87.5826 47.2286 89.3104 45.6161 89.915 45.0115V46.9119H97.2862V25.1151H89.8862Z" fill="#007AFF"/>
<path d="M108.929 25H101.529V29.3478H108.929V25ZM108.929 30.8451H101.529V46.912H108.929V30.8451Z" fill="#007AFF"/>
<path d="M122.787 47.2865C131.685 47.2865 132.923 44.5222 132.923 41.902V41.6429C132.923 38.8499 131.454 37.0359 125.091 36.7192L122.499 36.6328C120.513 36.5464 119.937 36.1721 119.937 35.4811C119.937 34.79 120.426 34.3869 122.356 34.3869H122.499C124.601 34.3869 124.861 35.1931 125.004 35.6538H132.664V35.625C132.664 33.0912 131.253 30.4998 122.759 30.4998H122.096C114.38 30.4998 112.479 32.6305 112.479 35.2795V35.4523C112.479 37.9573 113.804 40.232 119.994 40.5487L122.528 40.7503C124.774 40.8942 125.235 41.2109 125.235 41.9309C125.235 42.5931 124.688 43.1113 122.701 43.1113H122.643C120.426 43.1113 120.167 42.2187 120.081 41.7292H112.163V41.8157C112.163 43.6585 112.796 47.2865 121.981 47.2865H122.787Z" fill="#007AFF"/>
<path d="M143.712 46.9119V39.8862L148.866 46.9119H157.246L150.536 38.0434L156.525 30.845H148.406L143.712 36.8629V25.1151H136.312V46.9119H143.712Z" fill="#007AFF"/>
<path d="M167.417 43.2263C165.921 43.2263 165.201 42.6791 165.201 41.8441V41.7865C165.201 40.8652 165.777 40.4621 168.166 40.0878C169.405 39.8861 170.527 39.6846 171.074 39.5695V40.3469C171.074 41.6139 170.038 43.2263 167.417 43.2263ZM171.276 44.8963C171.564 45.7889 172.399 46.9119 174.011 46.9119H180V41.8154H179.107C178.504 41.8154 178.331 41.5563 178.331 40.9804V36.0278C178.331 33.5228 177.554 30.4419 168.771 30.4419H167.792C159.183 30.4419 158.29 33.8395 158.29 35.999V36.0278H165.575C165.575 35.6247 165.777 34.5306 168.282 34.5306H168.396C170.729 34.5306 171.074 35.1352 171.074 35.8263V35.8551C171.074 36.431 170.787 36.6901 169.951 36.7765L165.402 37.0356C159.73 37.4099 157.887 38.936 157.887 41.9306V42.0745C157.887 45.0691 160.046 47.2573 164.538 47.2573H165.028C168.972 47.2573 170.757 45.501 171.276 44.8963Z" fill="#007AFF"/>
</g>
<defs>
<clipPath id="clip0_311_30">
<rect width="180" height="72" fill="white"/>
</clipPath>
</defs>
</svg>
