<svg width="180" height="72" viewBox="0 0 180 72" fill="none" xmlns="http://www.w3.org/2000/svg">
<path d="M130.434 25.7602C130.053 27.1862 129.578 28.6123 129.198 30.0383C128.247 33.4607 127.201 36.7881 126.346 40.2106C125.966 41.3514 125.585 41.6366 124.444 41.6366H122.923C121.973 41.6366 121.497 41.2563 121.212 40.4007C120.357 37.5487 119.596 34.7917 118.74 31.9396C118.265 30.0383 117.6 28.232 117.124 26.2355C117.124 26.0454 117.029 25.9503 116.934 25.8553V40.0205C116.934 41.2563 116.459 41.6366 115.318 41.6366C114.557 41.6366 113.797 41.6366 113.036 41.6366C112.086 41.6366 111.61 41.1613 111.61 40.2106C111.61 33.841 111.61 27.4714 111.61 21.0068C111.61 20.1512 112.086 19.5808 113.036 19.5808C114.938 19.5808 116.744 19.5808 118.55 19.5808C119.311 19.5808 119.786 19.961 120.071 20.8167C120.737 23.1934 121.402 25.6651 122.068 28.1369C122.638 30.3235 123.304 32.5101 123.874 34.7917C123.969 34.5065 124.064 34.4114 124.064 34.3164C125.3 29.9432 126.441 25.6651 127.582 21.292C127.962 19.961 128.247 19.6758 129.673 19.6758H134.617C135.663 19.6758 136.138 20.1512 136.138 21.1969V40.2106C136.138 41.2563 135.663 41.7317 134.617 41.7317H132.335C131.289 41.7317 130.814 41.2563 130.814 40.2106L130.434 25.7602Z" fill="#232E2E"/>
<path d="M101.818 27.4714C100.582 29.9432 99.2513 32.415 98.0154 34.8868C97.0648 36.7881 96.019 38.5944 95.1634 40.5909C94.7831 41.2563 94.3078 41.5415 93.5472 41.5415C92.3114 41.5415 91.0755 41.5415 89.8396 41.5415C88.8889 41.5415 88.3185 41.0662 88.3185 40.1155V21.0068C88.3185 20.0561 88.7938 19.5808 89.7445 19.5808C90.6001 19.5808 91.3607 19.5808 92.2163 19.5808C93.167 19.5808 93.7374 20.0561 93.7374 21.1018V33.9361H93.8324C93.9275 33.7459 94.0226 33.5558 94.1176 33.4607C96.3042 29.1827 98.4908 24.9046 100.677 20.7216C101.058 19.866 101.628 19.4857 102.579 19.4857C103.72 19.5808 104.67 19.4857 105.811 19.4857C106.857 19.4857 107.332 19.961 107.332 21.0068V39.9254C107.332 40.9711 106.857 41.4465 105.811 41.4465H103.529C102.579 41.4465 102.008 40.9711 102.008 39.9254L101.818 27.4714Z" fill="#232E2E"/>
<path d="M145.455 36.8832H156.197C157.243 36.8832 157.718 37.3586 157.718 38.4043C157.718 38.9747 157.718 39.5451 157.718 40.1155C157.718 40.9711 157.243 41.5416 156.387 41.5416C151.444 41.5416 146.5 41.5416 141.462 41.5416C140.606 41.5416 140.131 40.9712 140.131 40.2106C140.131 33.841 140.131 27.3764 140.131 21.0068C140.131 20.1512 140.701 19.6758 141.462 19.6758C146.405 19.6758 151.349 19.6758 156.387 19.6758C157.243 19.6758 157.718 20.2463 157.718 21.0068C157.718 21.5772 157.718 22.1476 157.718 22.718C157.718 23.7638 157.243 24.2391 156.197 24.2391H145.455V28.3271H156.102C157.243 28.3271 157.718 28.8024 157.718 29.9432V31.4643C157.718 32.415 157.243 32.8903 156.292 32.8903C152.87 32.8903 149.447 32.8903 146.025 32.8903H145.55V36.8832H145.455Z" fill="#232E2E"/>
<path fill-rule="evenodd" clip-rule="evenodd" d="M77.4807 19.5808H75.5793C75.3892 19.5808 75.199 19.5808 75.199 19.5808C74.8188 19.5808 74.2484 19.5808 73.8681 19.5808C73.0125 19.5808 72.6322 19.866 72.347 20.6265C70.921 24.5243 69.3999 28.5172 67.8788 32.5101C67.6886 32.8903 67.4985 33.4607 67.4034 33.841C66.6429 35.8375 65.9774 37.7388 65.2169 39.8303C64.8366 40.8761 65.5021 41.6366 66.5478 41.6366C67.1182 41.6366 67.7837 41.6366 68.3541 41.6366C68.7344 41.6366 68.9245 41.6366 69.3048 41.6366C70.0654 41.6366 70.5407 41.3514 70.7308 40.5909C70.7308 40.4958 70.8259 40.4007 70.8259 40.2106C71.1111 39.45 71.3963 38.6895 71.6815 37.8339C71.7766 37.5487 71.8717 37.4536 72.1569 37.4536C74.5336 37.4536 76.8152 37.4536 79.1919 37.4536C79.4771 37.4536 79.5722 37.5487 79.6673 37.8339C79.8574 38.4043 80.0475 39.0698 80.3327 39.7353C80.4278 40.0205 80.5229 40.2106 80.6179 40.4007C80.9982 41.2563 81.2834 41.5415 82.2341 41.5415H84.6108C85.9418 41.5415 86.6072 40.6859 86.1319 39.45C83.7552 33.1755 81.3785 26.806 79.0018 20.5314C78.7166 19.7709 78.2412 19.5808 77.4807 19.5808ZM75.4843 25.8553L77.861 32.8903H73.1075L75.4843 25.8553Z" fill="#232E2E"/>
<path fill-rule="evenodd" clip-rule="evenodd" d="M167.225 40.0205V34.6016C167.605 34.6016 167.986 34.6016 168.366 34.6016C169.222 34.6016 170.172 34.6016 171.028 34.6016C172.169 34.5065 173.215 34.5065 174.355 34.2213C177.112 33.7459 179.014 32.2249 179.679 29.3728C179.964 28.3271 180.059 27.2813 179.964 26.2355C179.774 22.8131 177.968 20.7216 174.641 19.961C173.69 19.6758 172.644 19.5808 171.693 19.5808C169.697 19.5808 167.701 19.5808 165.704 19.5808C164.944 19.5808 164.183 19.5808 163.422 19.5808C162.472 19.5808 161.996 20.0561 161.996 21.0068C161.996 27.3764 161.996 33.7459 161.996 40.2106C161.996 41.0662 162.567 41.6366 163.422 41.6366C163.898 41.6366 164.468 41.6366 164.944 41.6366C165.229 41.6366 165.419 41.6366 165.704 41.6366C166.75 41.5416 167.225 41.0662 167.225 40.0205ZM167.225 29.9432V24.2391C167.701 24.2391 168.176 24.2391 168.651 24.2391C169.697 24.2391 170.648 24.2391 171.693 24.2391C173.215 24.3342 174.355 25.5701 174.355 27.0912C174.355 28.6123 173.119 29.9432 171.693 29.9432C170.648 29.9432 169.697 29.9432 168.556 29.9432C168.176 29.9432 167.701 29.9432 167.225 29.9432Z" fill="#232E2E"/>
<path d="M60.5585 29.4679C61.1289 29.8482 61.7944 30.0383 62.2697 30.5136C63.6007 31.5594 64.076 33.0805 63.981 34.6966C63.7908 38.3092 61.0339 40.6859 57.6114 41.2564C55.5199 41.6366 53.1432 41.6366 51.0517 40.8761C48.2947 40.1155 46.5835 38.4043 45.8229 35.5523C45.5377 34.5065 46.1081 33.746 47.1539 33.746C48.1046 33.746 48.9602 33.746 49.9109 33.746C50.6714 33.746 51.0517 34.0312 51.3369 34.6966C52.1925 36.8832 55.0446 37.8339 57.041 36.598C57.8966 36.1227 58.2769 35.3621 58.2769 34.4114C58.2769 33.4607 57.8015 32.6051 56.8508 32.3199C56.1854 32.0347 55.3298 31.9397 54.5692 31.9397C53.3333 31.8446 52.858 31.5594 52.858 30.2284C52.858 29.8482 52.858 29.563 52.858 29.0876C52.953 28.4221 53.4284 27.9468 54.0939 27.9468C54.5692 27.9468 55.1396 27.9468 55.615 27.8517C56.9459 27.5665 57.6114 26.7109 57.6114 25.5701C57.5163 24.4293 56.5656 23.5736 55.3298 23.4786C54.5692 23.4786 53.8087 23.5736 53.0481 23.7638C52.4777 23.9539 52.0024 24.3342 51.8122 24.9997C51.432 25.8553 50.8615 26.2356 49.9109 26.1405C49.2454 26.0454 48.675 26.1405 47.9144 26.1405C46.6785 26.1405 46.1081 25.3799 46.4884 24.1441C46.8687 22.5279 47.9144 21.292 49.3405 20.4364C50.5763 19.6758 52.0974 19.3906 53.5235 19.2005C55.2347 19.1054 57.041 19.2005 58.7522 19.6758C59.893 20.0561 60.8437 20.5315 61.6993 21.3871C63.981 23.6687 63.5056 27.3764 60.7487 28.9925L60.5585 29.4679Z" fill="#232E2E"/>
<path d="M98.3958 18.535C96.9697 18.535 95.6388 18.2498 94.593 17.5843C93.9276 17.2041 93.3572 16.7287 93.072 16.0632C92.6917 15.3978 92.9769 14.6372 93.5473 14.2569C94.1177 13.8767 94.8783 13.8767 95.4487 14.5421C96.5895 15.778 98.0155 15.8731 99.4415 15.4928C99.9169 15.3027 100.487 14.9224 100.868 14.5421C101.248 14.1619 101.818 13.9717 102.389 14.0668C102.864 14.1619 103.339 14.5421 103.434 15.2076C103.529 15.683 103.339 16.1583 103.054 16.5386C102.199 17.7745 100.963 18.2498 99.5366 18.4399C99.1563 18.535 98.681 18.535 98.3958 18.535Z" fill="#232E2E"/>
<path fill-rule="evenodd" clip-rule="evenodd" d="M49.3404 49.8125H46.2031V56.9426H48.1045V54.5659H49.7207C51.2417 54.5659 52.2875 53.8054 52.2875 52.1892C52.0974 50.478 50.9565 49.8125 49.3404 49.8125ZM50.2911 52.2843C50.2911 53.1399 49.7207 53.1399 49.0552 53.1399H48.0094V51.3336H49.2453C49.9108 51.3336 50.2911 51.5237 50.2911 52.2843Z" fill="#7D8888"/>
<path fill-rule="evenodd" clip-rule="evenodd" d="M52.7629 53.33C52.7629 55.5166 54.0939 57.0377 56.3755 57.0377C58.6572 57.0377 59.8931 55.4215 59.8931 53.33C59.8931 51.0484 58.5621 49.6224 56.3755 49.6224C54.284 49.6224 52.7629 51.2385 52.7629 53.33ZM54.7594 53.33C54.7594 51.9991 55.4248 51.1435 56.3755 51.1435C57.4213 51.1435 57.9917 51.9991 57.9917 53.33C57.9917 54.7561 57.4213 55.6117 56.3755 55.6117C55.3298 55.6117 54.7594 54.7561 54.7594 53.33Z" fill="#7D8888"/>
<path fill-rule="evenodd" clip-rule="evenodd" d="M60.9387 56.9426H64.4562C66.2625 56.9426 67.3083 56.2771 67.3083 54.5659C67.3083 52.9497 66.2626 52.1892 64.5513 52.1892H62.8401V51.3336H66.6428V49.8125H60.9387V56.9426ZM62.8401 53.6152H64.076C64.7415 53.6152 65.3119 53.7103 65.3119 54.4708C65.3119 55.1363 64.9316 55.4215 64.076 55.4215H62.745V53.6152H62.8401Z" fill="#7D8888"/>
<path fill-rule="evenodd" clip-rule="evenodd" d="M68.0688 53.33C68.0688 55.5166 69.3998 57.0377 71.6814 57.0377C73.9631 57.0377 75.199 55.4215 75.199 53.33C75.199 51.0484 73.868 49.6224 71.6814 49.6224C69.4949 49.6224 68.0688 51.2385 68.0688 53.33ZM69.9702 53.33C69.9702 51.9991 70.6357 51.1435 71.5864 51.1435C72.6321 51.1435 73.2025 51.9991 73.2025 53.33C73.2025 54.7561 72.6321 55.6117 71.5864 55.6117C70.6357 55.6117 69.9702 54.7561 69.9702 53.33Z" fill="#7D8888"/>
<path d="M82.044 51.4286H79.9525V57.0377H78.0511V51.4286H75.9596V49.8125H82.139L82.044 51.4286Z" fill="#7D8888"/>
<path fill-rule="evenodd" clip-rule="evenodd" d="M85.8468 53.33C85.8468 55.5166 87.1778 57.0377 89.4594 57.0377C91.741 57.0377 92.9769 55.4215 92.9769 53.33C92.9769 51.0484 91.646 49.6224 89.4594 49.6224C87.2728 49.6224 85.8468 51.2385 85.8468 53.33ZM87.7482 53.33C87.7482 51.9991 88.4137 51.1435 89.3643 51.1435C90.4101 51.1435 90.9805 51.9991 90.9805 53.33C90.9805 54.7561 90.4101 55.6117 89.3643 55.6117C88.4137 55.6117 87.7482 54.7561 87.7482 53.33Z" fill="#7D8888"/>
<path d="M100.202 56.9426H98.3008V53.9955H95.829V56.9426H93.9276V49.8125H95.829V52.3793H98.3008V49.8125H100.202V56.9426Z" fill="#7D8888"/>
<path d="M107.807 56.9426H105.906V51.3336H104.29L104.195 54.1856C104.1 56.1821 103.244 57.0377 102.008 57.0377C101.628 57.0377 101.343 56.9426 100.963 56.8476V55.3265C101.153 55.4215 101.343 55.4215 101.533 55.4215C101.913 55.4215 102.293 55.2314 102.389 53.8054L102.484 49.7174H107.807V56.9426Z" fill="#7D8888"/>
<path fill-rule="evenodd" clip-rule="evenodd" d="M113.702 56.9426H115.698L112.941 49.8125H111.04L108.283 56.9426H110.279L110.755 55.7067H113.226L113.702 56.9426ZM111.23 54.2807L112.086 51.8089L112.941 54.2807H111.23Z" fill="#7D8888"/>
<path fill-rule="evenodd" clip-rule="evenodd" d="M117.695 47.9111C117.695 49.0519 118.645 49.4322 119.596 49.4322C120.547 49.4322 121.497 49.0519 121.497 47.9111H120.642C120.547 48.2914 120.166 48.4815 119.596 48.4815C119.026 48.4815 118.74 48.2914 118.55 47.9111H117.695ZM120.642 56.9426H122.543V49.8125H120.547L118.075 54.5659L118.17 49.8125H116.269V56.9426H118.265L120.737 52.1892L120.642 56.9426Z" fill="#7D8888"/>
<path d="M130.054 56.9426H128.152V53.9955H125.68V56.9426H123.779V49.8125H125.68V52.3793H128.152V49.8125H130.054V56.9426Z" fill="#7D8888"/>
<path d="M137.469 57.1328C135.472 57.1328 134.332 56.1821 134.237 54.5659H136.138C136.138 55.4215 136.708 55.7067 137.374 55.7067C137.944 55.7067 138.515 55.3265 138.515 54.8511C138.515 54.2807 138.039 53.9004 137.279 53.9004H136.613V52.6646C136.803 52.6646 136.994 52.6646 137.089 52.6646C137.944 52.6646 138.229 52.2843 138.229 51.904C138.229 51.5237 137.849 51.1435 137.279 51.1435C136.518 51.1435 136.138 51.5237 136.043 51.9991H134.332C134.332 50.478 135.472 49.7174 137.184 49.7174C138.895 49.7174 140.036 50.478 140.036 51.7139C140.036 52.2843 139.56 52.9498 138.99 53.1399C139.751 53.33 140.321 53.9955 140.226 54.7561C140.416 56.1821 139.085 57.1328 137.469 57.1328Z" fill="#7D8888"/>
<path fill-rule="evenodd" clip-rule="evenodd" d="M145.93 56.9426H147.926L145.169 49.8125H143.268L140.511 56.9426H142.507L142.983 55.7067H145.455L145.93 56.9426ZM143.458 54.2807L144.314 51.8089L145.169 54.2807H143.458Z" fill="#7D8888"/>
<path fill-rule="evenodd" clip-rule="evenodd" d="M149.923 47.9111C149.923 49.0519 150.873 49.4322 151.824 49.4322C152.775 49.4322 153.725 49.0519 153.725 47.9111H152.87C152.775 48.2914 152.395 48.4815 151.824 48.4815C151.349 48.4815 150.969 48.2914 150.778 47.9111H149.923ZM152.965 56.9426H154.866V49.8125H152.87L150.398 54.5659L150.493 49.8125H148.592V56.9426H150.588L153.06 52.1892L152.965 56.9426Z" fill="#7D8888"/>
<path d="M156.102 49.8125H158.859L160.095 54.756L161.426 49.8125H164.088V56.9426H162.282L162.377 51.5237L160.76 56.9426H159.334L157.718 51.5237L157.813 56.9426H156.007L156.102 49.8125Z" fill="#7D8888"/>
<path fill-rule="evenodd" clip-rule="evenodd" d="M165.229 53.33C165.229 55.5166 166.56 57.0377 168.841 57.0377C171.028 57.0377 172.359 55.4215 172.359 53.33C172.359 51.0484 171.028 49.6224 168.841 49.6224C166.655 49.6224 165.229 51.2385 165.229 53.33ZM167.13 53.33C167.13 51.9991 167.796 51.1435 168.746 51.1435C169.792 51.1435 170.362 51.9991 170.362 53.33C170.362 54.7561 169.792 55.6117 168.746 55.6117C167.701 55.6117 167.13 54.7561 167.13 53.33Z" fill="#7D8888"/>
<path fill-rule="evenodd" clip-rule="evenodd" d="M173.405 49.8125H177.112C178.348 49.8125 179.394 50.2878 179.394 51.6188C179.394 52.2843 179.014 52.7596 178.443 53.0448C179.299 53.33 179.679 53.9004 179.679 54.8511C179.679 55.5166 179.394 56.087 179.014 56.4673C178.443 56.9426 177.778 56.9426 176.922 56.9426H173.405V49.8125ZM176.637 52.5695C177.207 52.5695 177.588 52.3793 177.588 51.904C177.588 51.3336 177.112 51.2385 176.542 51.2385H175.306V52.5695H176.637V52.5695ZM177.778 54.661C177.778 55.3264 177.302 55.5166 176.637 55.5166H175.211V53.9004H176.637C177.302 53.9004 177.778 53.9955 177.778 54.661Z" fill="#7D8888"/>
<path d="M12.0737 44.2985H0.0950928V56.1821H12.0737V44.2985Z" fill="#FF8900"/>
<path d="M11.9786 44.2985L0 56.2771V44.2985H11.9786Z" fill="#FFA700"/>
<path d="M23.9572 44.2985H11.9786V56.1821H23.9572V44.2985Z" fill="#FFB83A"/>
<path d="M24.0523 44.2985L11.9786 56.2771V44.2985H24.0523Z" fill="#FFCA49"/>
<path d="M23.9572 32.415H11.9786V44.2985H23.9572V32.415Z" fill="#B8BA3C"/>
<path d="M24.0523 32.415L11.9786 44.2985V32.415H24.0523Z" fill="#CACB4B"/>
<path d="M36.031 32.415H24.0524V44.2985H36.031V32.415Z" fill="#71BB3E"/>
<path d="M36.031 32.415L24.0524 44.2985V32.415H36.031Z" fill="#8DCC4E"/>
<path d="M36.031 20.4364H24.0524V32.3199H36.031V20.4364Z" fill="#4C9D33"/>
<path d="M36.031 20.4364L24.0524 32.3199V20.4364H36.031Z" fill="#5FB640"/>
</svg>
