<svg width="180" height="72" viewBox="0 0 180 72" fill="none" xmlns="http://www.w3.org/2000/svg">
<path d="M10.8805 64.1228C10.8805 64.0704 10.8805 64.0181 10.9328 63.9658C11.1944 63.9658 11.4559 63.9658 11.7698 63.9658C19.7733 63.9658 27.8291 63.9658 35.8325 63.9658C38.3958 63.9658 40.959 63.9658 43.5222 63.9658H43.5745H43.6268C43.6268 64.0181 43.6268 64.0704 43.6268 64.0704C32.7462 64.1228 21.8134 64.1228 10.8805 64.1228Z" fill="#94A9DB"/>
<path d="M180 37.9678C179.948 37.9678 179.895 37.9155 179.843 37.9155C179.843 32.9983 179.843 28.1335 179.843 23.2163C179.895 23.2163 179.948 23.2163 180 23.2163C180 28.0812 180 33.0507 180 37.9678Z" fill="#94A9DB"/>
<path d="M43.5222 63.9659C40.959 63.9659 38.3958 63.9659 35.8326 63.9659C27.8291 63.9659 19.7733 63.9659 11.7698 63.9659C11.5083 63.9659 11.2467 63.9659 10.9329 63.9659C10.9329 60.3565 10.9329 56.7471 10.9329 53.1377C17.8378 53.1377 24.6905 53.1377 31.5955 53.1377C32.9032 53.1377 34.211 53.1377 35.5187 53.1377C35.571 53.1377 35.6234 53.1377 35.6757 53.19C37.4019 55.5963 39.1805 58.0026 40.9067 60.4611C41.796 61.612 42.7899 62.7105 43.5222 63.9659Z" fill="#2D57B9"/>
<path d="M10.9328 17.9329C10.9328 14.4281 10.9328 10.9233 10.8805 7.41848C10.8805 7.15693 10.9328 7 11.2467 7C11.3513 7 11.5082 7 11.6128 7C21.9703 7 32.2754 7 42.6329 7C42.8421 7 43.1037 7 43.3129 7C43.2606 7.10462 43.2083 7.20924 43.156 7.26155C41.1159 10.034 39.0758 12.8588 37.088 15.6312C36.5649 16.3636 35.9372 17.0436 35.5187 17.8806H35.4664C35.2048 17.8806 34.9433 17.8806 34.6294 17.8806C26.8352 17.9329 18.884 17.9329 10.9328 17.9329Z" fill="#276DCB"/>
<path d="M35.728 53.138C35.6757 53.138 35.6234 53.138 35.5711 53.0857C34.8387 52.0395 34.0541 50.9933 33.3217 49.9471C29.9216 45.2915 26.5214 40.6358 23.1212 35.9802C22.9643 35.7187 22.7027 35.5617 22.9643 35.1956C25.1613 32.2139 27.3584 29.2322 29.5031 26.2505C30.7585 27.9244 31.9617 29.6507 33.2171 31.3246C34.2633 32.6847 35.2049 34.1494 36.3034 35.4571C37.0358 36.6603 37.9251 37.7588 38.762 38.9096C42.0576 43.4606 45.4054 48.0116 48.7533 52.5626C48.8579 52.7195 48.9102 52.8242 49.0149 52.9811C48.6487 53.1903 48.1779 53.0857 47.8117 53.0857C43.7838 53.138 39.7559 53.138 35.728 53.138Z" fill="#01E4B8"/>
<path d="M10.9852 53.0855C10.9852 53.0855 10.9329 53.1378 10.9852 53.0855C10.7759 53.1378 10.5667 53.1378 10.4098 53.1378C7.16652 53.1378 3.87097 53.1378 0.627725 53.1378C0.313862 53.1378 0.0523104 53.1901 0.0523104 52.667C0 44.7681 0 36.817 0 28.8658V28.8135C3.66173 28.8135 7.27114 28.8135 10.9329 28.8135C10.9852 36.9216 10.9852 45.0297 10.9852 53.0855Z" fill="#2E5A7C"/>
<path d="M36.3558 35.4571C35.2573 34.1494 34.3157 32.6847 33.2695 31.3246C32.014 29.6507 30.7586 27.9768 29.5554 26.2505C29.6077 26.1982 29.66 26.0936 29.66 26.0413C31.6478 23.3211 33.6356 20.601 35.5711 17.8809H35.6234C40.1221 17.8809 44.6208 17.8809 49.1195 17.8809C48.1256 19.3979 46.9748 20.8626 45.9286 22.3272C42.7376 26.7213 39.5467 31.1154 36.3558 35.4571Z" fill="#1B689F"/>
<path d="M142.912 35.8751C141.552 37.4967 139.878 38.1244 137.942 38.2813C136.896 38.386 135.902 38.229 134.908 37.8629C131.77 36.6074 131.142 32.5795 133.758 30.4348C135.222 29.2316 136.949 28.7608 138.779 28.6039C139.983 28.4993 141.133 28.4993 142.337 28.6039C142.807 28.6562 142.912 28.4993 142.86 28.0808C142.807 26.8254 141.918 25.9884 140.296 25.8838C138.309 25.7268 136.478 26.1453 134.752 27.0869C134.385 27.2962 134.228 27.2438 134.071 26.8777C133.81 26.25 133.496 25.6745 133.182 25.0991C133.025 24.7853 133.078 24.6806 133.339 24.5237C136.164 23.059 139.093 22.4836 142.232 23.2683C144.377 23.7914 146.207 25.4653 146.155 28.2901C146.051 31.3241 146.103 34.3581 146.155 37.3398C146.155 37.9152 145.946 38.0721 145.423 38.0198C144.743 37.9675 144.063 37.9675 143.435 38.0198C142.964 38.0721 142.86 37.8629 142.912 37.4444C142.912 36.9213 142.912 36.4505 142.912 35.8751ZM140.663 31.3241C139.093 31.3764 137.629 31.3764 136.321 32.161C135.693 32.5272 135.275 33.0503 135.432 33.8873C135.588 34.6719 136.059 35.0381 136.792 35.195C138.466 35.6135 140.087 35.352 141.552 34.4104C142.441 33.835 142.912 33.0503 142.912 31.9518C142.912 31.6379 142.86 31.481 142.493 31.4287C141.813 31.3764 141.186 31.3241 140.663 31.3241Z" fill="#305C7D"/>
<path d="M153.269 32.9984C155.048 29.9121 156.827 26.7735 158.605 23.6872C158.814 23.321 159.024 23.1641 159.494 23.1641C160.541 23.2164 161.587 23.1641 162.633 23.1641C162.999 23.1641 163.104 23.2687 163.104 23.6349C163.104 28.2382 163.104 32.8415 163.104 37.4448C163.104 37.8633 162.999 37.9679 162.633 37.9156C161.901 37.8633 161.116 37.8633 160.384 37.9156C159.808 37.9679 159.808 37.7063 159.808 37.2879C159.808 34.3062 159.808 31.2722 159.808 28.2905C159.808 28.0812 159.808 27.8197 159.808 27.5581C159.547 27.7151 159.442 27.9243 159.337 28.1335C157.559 31.2199 155.78 34.3062 154.054 37.3925C153.793 37.811 153.531 37.9679 153.06 37.9679C152.171 37.9156 151.282 37.9679 150.34 37.9679C150.026 37.9679 149.869 37.9156 149.869 37.5494C149.869 32.8938 149.869 28.2905 149.869 23.6349C149.869 23.2687 150.026 23.1641 150.34 23.2164C151.072 23.2164 151.857 23.2687 152.589 23.2164C153.06 23.2164 153.165 23.321 153.165 23.7918C153.165 26.6689 153.165 29.5459 153.165 32.423C153.165 32.6322 153.165 32.8415 153.165 33.0507C153.165 32.9984 153.217 32.9984 153.269 32.9984Z" fill="#325D7E"/>
<path d="M75.7978 27.035C75.9024 27.0873 76.0071 27.1396 76.1117 27.1919C79.198 28.3427 79.878 30.5921 79.4595 33.3122C79.0934 35.7185 77.4717 37.2355 74.8039 37.7063C73.81 37.9155 72.8161 37.9678 71.8222 37.9678C69.9391 37.9678 68.1082 37.9678 66.225 37.9678C65.7019 37.9678 65.5973 37.8109 65.5973 37.2878C65.5973 30.8013 65.5973 24.3671 65.5973 17.8807C65.5973 17.4622 65.6496 17.2529 66.1727 17.2529C68.2128 17.3052 70.2529 17.2529 72.293 17.2529C73.3392 17.2529 74.4377 17.4099 75.4316 17.7237C77.7856 18.5084 79.0411 20.4439 78.8318 22.9024C78.6749 24.9426 78.0995 25.7272 75.7978 27.035ZM67.7943 32.0045C67.7943 33.2076 67.7943 34.3584 67.7943 35.5616C67.7943 35.8231 67.7943 36.0324 68.1605 36.0324C69.9391 35.98 71.7699 36.1893 73.5485 35.9277C75.1178 35.7185 76.5302 35.1431 77.0533 33.5215C77.7333 31.5337 77.3671 28.8135 74.1239 28.1858C72.1361 27.7673 70.096 28.0289 68.0559 27.9766C67.6897 27.9766 67.742 28.2381 67.742 28.4473C67.7943 29.6505 67.7943 30.8536 67.7943 32.0045ZM67.7943 22.5886C67.7943 23.5825 67.7943 24.5764 67.7943 25.5703C67.7943 25.8318 67.742 26.0934 68.1605 26.0411C69.8867 25.9888 71.613 26.1457 73.2869 25.9365C75.6409 25.6749 76.8963 24.1579 76.5825 21.9609C76.3732 20.4962 75.1701 19.45 73.4438 19.1884C71.6653 18.9269 69.8867 19.1361 68.1082 19.0315C67.742 19.0315 67.742 19.2407 67.742 19.45C67.7943 20.6008 67.7943 21.5947 67.7943 22.5886Z" fill="#325D7E"/>
<path d="M179.843 23.2163C179.843 28.1334 179.843 32.9983 179.843 37.9155C178.901 37.9155 178.012 37.9155 177.071 37.9678C176.652 37.9678 176.547 37.8109 176.547 37.4447C176.547 34.6199 176.547 31.7952 176.547 29.0227C176.547 28.8135 176.547 28.6042 176.547 28.4473C176.495 28.4473 176.495 28.4473 176.443 28.395C175.972 29.5458 175.501 30.6966 175.083 31.8475C174.507 33.3122 174.507 33.2599 172.938 33.3645C172.153 33.4168 171.787 33.1552 171.578 32.4229C171.107 31.0628 170.584 29.7027 169.956 28.395C169.956 30.4351 169.956 32.4229 169.956 34.463C169.956 35.5092 169.956 36.5554 169.956 37.6016C169.956 37.9678 169.852 38.0724 169.486 38.0724C168.701 38.0724 167.916 38.0724 167.079 38.0724C166.713 38.0724 166.609 37.9678 166.609 37.6016C166.609 32.9983 166.609 28.395 166.609 23.7917C166.609 23.3732 166.765 23.3209 167.132 23.3209C168.073 23.3209 169.067 23.3732 170.009 23.3209C170.479 23.3209 170.636 23.4778 170.793 23.844C171.526 25.7272 172.31 27.6103 173.095 29.5458C173.147 29.6504 173.2 29.7027 173.252 29.912C173.775 28.6042 174.298 27.3488 174.821 26.1456C175.03 25.6225 175.24 25.0994 175.449 24.5763C175.92 23.3732 175.92 23.3732 177.28 23.3732C178.169 23.164 179.006 23.2163 179.843 23.2163Z" fill="#2E5A7C"/>
<path d="M10.9852 28.8137C7.32345 28.8137 3.71404 28.8137 0.0523104 28.8137C0 25.3089 0 21.8041 0 18.3516C0 18.0377 0.104621 17.9331 0.418483 17.9331C3.92328 17.9331 7.42807 17.9331 10.9329 17.9331C10.9852 21.5425 10.9852 25.2042 10.9852 28.8137Z" fill="#02E4B9"/>
<path d="M100.75 26.3028C103.522 22.2226 109.276 23.2165 111.421 25.6227C112.729 27.0874 113.252 28.8137 113.252 30.7492C113.357 36.8172 107.446 39.9035 102.476 37.5495C100.802 36.7648 99.8083 35.3525 99.2852 33.6262C98.1343 29.6506 98.082 25.7274 99.4421 21.8041C99.9652 20.3394 100.802 19.0316 102.11 18.09C103.784 16.8346 105.615 16.573 107.498 17.5146C108.701 18.1423 109.8 18.09 110.793 17.2531C111.107 16.9915 111.264 17.0961 111.473 17.3577C112.415 18.4039 112.415 18.4039 111.212 19.1362C109.8 19.9732 108.387 20.0778 106.922 19.3455C105.249 18.5085 103.627 18.8747 102.476 20.3394C101.43 21.6471 101.011 23.1641 100.802 24.7858C100.802 25.2042 100.698 25.675 100.75 26.3028ZM100.907 31.0107C100.907 31.1676 100.907 31.5338 100.959 31.8477C101.168 34.097 102.685 35.9279 104.778 36.294C107.236 36.7648 109.486 35.7709 110.427 33.7308C111.317 31.9 111.317 29.9645 110.532 28.0813C109.904 26.6166 108.753 25.7274 107.184 25.4658C106.242 25.3089 105.301 25.3089 104.359 25.5181C103.208 25.7797 102.319 26.4074 101.691 27.4536C101.116 28.4998 100.959 29.6506 100.907 31.0107Z" fill="#325D7E"/>
<path d="M126.591 30.4352C127.323 30.6967 127.846 30.9583 128.317 31.3245C129.73 32.5276 129.939 34.4108 128.788 35.8232C128.422 36.2939 128.003 36.7124 127.48 36.974C124.237 38.5956 120.942 38.7525 117.646 37.2878C116.757 36.9217 116.129 36.2416 115.554 35.457C115.344 35.1954 115.344 35.0385 115.658 34.8293C116.338 34.4108 116.966 33.9923 117.594 33.5215C117.751 33.4169 117.855 33.2599 118.064 33.5215C118.849 34.5677 119.948 34.9862 121.203 35.1431C122.511 35.3001 123.819 35.2477 125.074 34.7246C125.388 34.5677 125.702 34.4108 125.963 34.1492C126.382 33.6784 126.382 33.103 125.911 32.6322C125.126 31.8476 124.132 31.7953 123.139 31.7429C122.459 31.6906 121.778 31.7429 121.046 31.7429C120.732 31.7429 120.575 31.6383 120.628 31.3245C120.628 30.6444 120.628 29.9644 120.628 29.2844C120.628 28.9182 120.732 28.7613 121.151 28.8136C122.092 28.8136 123.086 28.8136 124.028 28.7613C124.603 28.7613 125.179 28.6043 125.702 28.2382C126.434 27.7674 126.486 27.035 125.754 26.5119C125.493 26.3027 125.126 26.1457 124.812 26.0411C123.4 25.6749 121.988 25.6226 120.628 25.9365C119.791 26.1457 119.058 26.5642 118.483 27.2966C118.274 27.5581 118.169 27.5581 117.908 27.4012C117.384 26.9827 116.809 26.6165 116.286 26.2504C115.92 26.0411 115.867 25.8319 116.129 25.518C116.861 24.5241 117.803 23.7395 118.954 23.321C121.831 22.3794 124.603 22.5363 127.376 23.8441C127.951 24.1056 128.422 24.5241 128.84 24.9949C130.305 26.8258 129.677 29.232 127.428 30.1213C127.166 30.2783 126.957 30.3306 126.591 30.4352Z" fill="#305C7D"/>
<path d="M90.2353 31.3243C88.2998 31.3243 86.3643 31.3243 84.4289 31.3243C84.0104 31.3243 83.9058 31.429 83.9581 31.8475C84.4289 34.8291 86.9921 36.7123 89.9738 36.3985C91.6477 36.1892 93.0601 35.6138 94.1586 34.2537C94.1586 34.2014 94.2109 34.1491 94.2109 34.1491C94.8386 34.1491 95.2048 34.6722 95.6756 34.9861C95.9895 35.1953 95.6756 35.4046 95.571 35.5092C93.9493 37.6016 91.7523 38.3862 89.1891 38.2816C85.2658 38.177 82.3888 35.7707 81.8133 32.0044C81.3949 29.2319 81.8656 26.6164 84.0627 24.6286C86.4167 22.5362 89.2414 22.2747 92.1185 23.3209C94.8909 24.2625 96.0941 26.5118 96.5126 29.2842C96.5649 29.8073 96.5649 30.3305 96.6695 30.8536C96.7218 31.272 96.5649 31.3243 96.1987 31.3243C94.1586 31.3243 92.1708 31.3243 90.2353 31.3243ZM88.9799 29.4412C90.6015 29.4412 92.1708 29.4412 93.7924 29.4412C94.1063 29.4412 94.2632 29.3889 94.1586 29.0227C93.897 27.8196 93.4262 26.721 92.4847 25.8841C89.9738 23.7393 85.0043 24.3148 83.9581 28.8658C83.8534 29.3366 83.9058 29.4412 84.3766 29.4412C85.9459 29.4412 87.4629 29.4412 88.9799 29.4412Z" fill="#305C7D"/>
<path d="M49.1194 17.9328C44.6207 17.9328 40.122 17.9328 35.6233 17.9328C36.0418 17.0958 36.6172 16.4158 37.1926 15.6835C39.2327 12.911 41.2205 10.0862 43.2606 7.3138C43.3129 7.20918 43.3652 7.10456 43.4175 7.05225C43.6268 7.05225 43.6791 7.26149 43.7314 7.41842C45.5099 10.8709 47.2885 14.2711 49.1194 17.7236C49.1194 17.7759 49.1194 17.8282 49.1194 17.9328Z" fill="#1889B4"/>
<path d="M35.728 53.1379C39.7559 53.1379 43.7838 53.1379 47.864 53.0856C48.2825 53.0856 48.701 53.1902 49.0672 52.981C49.2764 53.1379 49.1195 53.2948 49.0672 53.3994C47.2886 56.9042 45.4578 60.4613 43.6792 63.9661H43.6269H43.5746C42.8422 62.7107 41.8483 61.5599 41.0114 60.3567C39.2328 57.9504 37.4543 55.5442 35.728 53.1379Z" fill="#15B1C5"/>
<path d="M156.67 21.6471C154.629 21.6471 152.956 21.0717 151.543 19.8162C151.229 19.5547 151.282 19.3977 151.543 19.1362C152.014 18.7177 152.432 18.2992 152.851 17.8807C153.06 17.6715 153.217 17.6192 153.479 17.8284C155.623 19.5024 157.35 19.5024 159.442 17.8284C159.651 17.6715 159.808 17.6192 160.017 17.8284C160.436 18.2469 160.854 18.7177 161.325 19.0839C161.639 19.3454 161.691 19.5547 161.325 19.8685C159.913 21.0194 158.396 21.5948 156.67 21.6471Z" fill="#325D7E"/>
<path d="M73.3391 48.1681C74.5946 47.1742 76.007 47.1742 76.8962 48.1158C77.7332 49.0051 77.7855 50.6267 77.0009 51.5683C76.1116 52.6145 74.7515 52.6668 73.2868 51.6206C73.2868 52.3529 73.2868 53.033 73.2868 53.713C73.2868 53.9746 73.2868 54.1315 72.9207 54.1315C72.5545 54.1315 72.6068 53.9223 72.6068 53.6607C72.6068 51.8298 72.6068 49.9467 72.6068 48.1158C72.6068 47.8542 72.3452 47.4358 72.9207 47.4358C73.4961 47.4358 73.1299 47.9066 73.3391 48.1681ZM75.0654 48.0635C74.0192 48.0635 73.2868 48.7958 73.2345 49.8944C73.2345 50.9406 73.9669 51.7775 75.0131 51.7775C76.0593 51.7775 76.8439 50.9929 76.8439 49.9467C76.8962 48.8481 76.1116 48.0635 75.0654 48.0635Z" fill="#386182"/>
<path d="M129.311 48.7959C129.311 49.7898 129.311 50.7837 129.311 51.7776C129.311 51.9868 129.416 52.3007 128.997 52.3007C128.579 52.3007 128.684 52.0391 128.684 51.7776C128.684 50.4698 128.684 49.2144 128.684 47.9066C128.684 47.7497 128.527 47.4358 128.893 47.4358C129.154 47.3835 129.416 47.4358 129.573 47.7497C130.148 48.7959 130.776 49.7898 131.404 50.8883C131.979 49.8944 132.555 48.9528 133.13 48.0112C133.235 47.8543 133.287 47.7497 133.392 47.5927C133.548 47.3835 133.758 47.3835 133.967 47.4358C134.228 47.4881 134.124 47.6973 134.124 47.8543C134.124 49.2144 134.124 50.5221 134.124 51.8822C134.124 52.0914 134.176 52.353 133.81 52.353C133.444 52.353 133.496 52.1437 133.496 51.8822C133.496 50.836 133.496 49.8421 133.392 48.7959C132.868 49.6328 132.398 50.4175 131.875 51.2545C131.404 51.9868 131.351 51.9868 130.933 51.2545C130.462 50.4175 129.939 49.6328 129.468 48.7959C129.364 48.7959 129.364 48.7959 129.311 48.7959Z" fill="#386182"/>
<path d="M123.139 51.0978C124.028 49.9992 124.969 48.953 125.859 47.8545C125.963 47.7499 126.068 47.6453 126.173 47.5407C126.33 47.3837 126.539 47.436 126.696 47.4883C126.905 47.5407 126.8 47.7499 126.8 47.8545C126.8 49.2146 126.8 50.5747 126.8 51.9347C126.8 52.144 126.853 52.4055 126.486 52.4055C126.12 52.4055 126.12 52.1963 126.12 51.9347C126.12 50.8885 126.12 49.8946 126.016 48.7961C125.231 49.7377 124.446 50.7316 123.609 51.6209C123.296 51.9347 123.086 52.6148 122.511 52.3532C122.04 52.144 122.354 51.5686 122.302 51.2024C122.249 50.1562 122.302 49.0577 122.302 48.0115C122.302 47.8022 122.197 47.4883 122.615 47.4883C123.086 47.4883 122.982 47.7499 122.982 48.0115C122.982 49.0577 122.982 50.0516 122.982 51.0978C123.034 51.0455 123.086 51.0455 123.139 51.0978Z" fill="#3D6585"/>
<path d="M119.895 51.7254C119.215 52.4054 118.483 52.51 117.698 52.3531C116.914 52.2485 116.443 51.6731 116.443 50.8884C116.443 50.1561 116.914 49.6853 117.751 49.633C118.326 49.5807 118.901 49.5807 119.425 49.5807C119.791 49.5807 119.895 49.4237 119.843 49.1099C119.738 48.4822 119.372 48.116 118.797 48.0637C118.221 48.0114 117.646 48.0637 117.175 48.4298C117.018 48.5345 116.861 48.6914 116.757 48.3775C116.652 48.2206 116.6 48.0637 116.809 47.9067C117.489 47.3836 119.163 47.2267 119.843 47.7498C120.262 48.0114 120.523 48.4298 120.523 48.9529C120.575 49.8945 120.575 50.8361 120.575 51.7777C120.575 51.9869 120.732 52.3531 120.262 52.4054C119.843 52.4054 119.895 52.0916 119.895 51.7254ZM118.745 50.1038C118.431 50.1561 118.012 50.0515 117.646 50.2084C117.332 50.313 117.175 50.5223 117.123 50.8884C117.071 51.2023 117.228 51.4638 117.489 51.6208C118.221 52.1439 119.425 51.7777 119.791 50.993C120.052 50.3653 119.895 50.1561 119.215 50.1561C119.111 50.1038 119.006 50.1038 118.745 50.1038Z" fill="#386182"/>
<path d="M166.556 51.7776C165.929 52.353 165.249 52.4577 164.516 52.353C163.679 52.2484 163.156 51.673 163.156 50.9407C163.156 50.2083 163.679 49.6852 164.516 49.6329C165.039 49.5806 165.615 49.5806 166.138 49.6329C166.504 49.6329 166.556 49.5283 166.556 49.2144C166.504 48.639 166.138 48.2205 165.51 48.1159C164.935 48.0636 164.359 48.1159 163.836 48.4821C163.679 48.5867 163.522 48.6913 163.418 48.4298C163.261 48.2205 163.313 48.0636 163.522 47.959C164.412 47.4882 165.353 47.3313 166.295 47.6974C166.818 47.9067 167.132 48.3252 167.184 48.9006C167.341 49.9991 167.236 51.0453 167.236 52.1438C167.236 52.353 167.184 52.4054 166.922 52.4577C166.609 52.4054 166.609 52.0915 166.556 51.7776ZM165.51 50.1037C165.196 50.156 164.778 50.0514 164.412 50.2083C164.098 50.3129 163.941 50.5222 163.888 50.836C163.836 51.1499 163.993 51.4638 164.255 51.6207C164.935 52.0915 166.086 51.7776 166.504 51.0453C166.818 50.4176 166.661 50.1037 165.981 50.1037C165.772 50.1037 165.667 50.1037 165.51 50.1037Z" fill="#386182"/>
<path d="M68.9974 52.3533C67.4281 52.3533 66.1727 51.5163 65.7542 50.1562C65.3357 48.7962 65.7542 47.2269 66.8527 46.4422C68.0559 45.5529 69.8344 45.5006 70.9852 46.3376C71.2468 46.5468 71.5606 46.7038 71.0899 47.0699C70.8283 47.2792 70.7237 46.9653 70.5668 46.913C69.1021 45.9714 67.1143 46.5468 66.4865 48.1684C66.0681 49.2147 66.4342 50.4701 67.2712 51.1501C68.2651 51.9348 69.5729 51.9871 70.6191 51.3071C70.7237 51.2024 70.8283 50.9409 71.0899 51.0978C71.3514 51.2548 71.5607 51.464 71.1422 51.7256C70.5668 52.144 69.8344 52.3533 68.9974 52.3533Z" fill="#386182"/>
<path d="M172.833 48.5345C171.892 49.6331 171.107 50.627 170.27 51.5685C169.956 51.8824 169.799 52.5624 169.172 52.3532C168.701 52.144 169.015 51.5685 168.962 51.2024C168.91 50.1562 168.962 49.0576 168.962 48.0114C168.962 47.7499 168.91 47.4883 169.329 47.4883C169.695 47.4883 169.695 47.6976 169.695 47.9591C169.695 49.0053 169.695 50.0515 169.695 51.2547C170.375 50.47 170.95 49.79 171.526 49.11C171.892 48.6392 172.31 48.2207 172.624 47.7499C172.833 47.4883 173.043 47.3837 173.357 47.4883C173.618 47.593 173.514 47.8545 173.514 48.0114C173.514 49.2669 173.514 50.5223 173.514 51.7778C173.514 51.987 173.67 52.3532 173.2 52.3532C172.729 52.3532 172.833 52.0393 172.833 51.7778C172.833 50.7839 172.833 49.7377 172.833 48.5345Z" fill="#386182"/>
<path d="M106.085 50.1039C105.562 50.1039 104.987 50.1039 104.464 50.1039C104.098 50.1039 104.098 50.2608 104.15 50.5224C104.464 51.6732 105.981 52.144 107.079 51.4117C107.289 51.307 107.446 51.0455 107.707 51.3594C107.916 51.7255 107.602 51.8302 107.446 51.9348C106.609 52.5625 105.092 52.4579 104.255 51.7778C103.418 51.0455 103.156 49.7377 103.679 48.6915C104.15 47.6976 105.196 47.2268 106.347 47.4361C107.393 47.6453 108.23 48.6915 108.178 49.7377C108.178 50.0516 108.021 50.1039 107.812 50.0516C107.184 50.1039 106.661 50.1039 106.085 50.1039ZM107.446 49.5808C107.236 48.5346 106.713 48.0638 105.876 48.0115C105.144 47.9592 104.412 48.43 104.202 49.11C104.098 49.3716 103.993 49.5808 104.464 49.5808C105.405 49.5808 106.399 49.5808 107.446 49.5808Z" fill="#386182"/>
<path d="M175.344 49.8422C175.344 49.2145 175.344 48.5868 175.344 47.959C175.344 47.6975 175.24 47.3836 175.711 47.4359C176.129 47.4359 176.024 47.7498 176.024 47.959C176.024 48.2729 176.077 48.5868 176.024 48.9006C175.92 49.5284 176.181 49.6853 176.757 49.633C177.332 49.5807 177.908 49.5807 178.431 49.633C178.954 49.6853 179.058 49.476 179.006 49.0053C178.954 48.6391 179.006 48.2729 179.006 47.8544C179.006 47.5929 179.058 47.4359 179.372 47.4359C179.686 47.4359 179.686 47.5406 179.686 47.8021C179.686 49.1622 179.686 50.5746 179.686 51.9346C179.686 52.1439 179.686 52.3531 179.372 52.3531C179.058 52.3531 178.954 52.2485 178.954 51.9346C178.954 51.4638 178.954 50.993 178.954 50.5746C178.954 50.313 178.849 50.2084 178.588 50.2084C177.803 50.2084 177.018 50.2084 176.286 50.2084C176.024 50.2084 175.92 50.313 175.92 50.5746C175.92 50.993 175.92 51.4638 175.92 51.8823C175.92 52.0916 175.972 52.3531 175.606 52.3531C175.24 52.3531 175.24 52.1962 175.24 51.9346C175.344 51.2023 175.344 50.5223 175.344 49.8422Z" fill="#386182"/>
<path d="M150.131 49.8945C150.131 51.3592 149.085 52.3531 147.672 52.4054C146.208 52.4054 145.109 51.3069 145.161 49.8945C145.161 48.4822 146.26 47.436 147.672 47.436C149.085 47.3836 150.131 48.4299 150.131 49.8945ZM149.451 49.8945C149.451 48.796 148.771 48.0114 147.725 48.0114C146.678 48.0114 145.946 48.7437 145.894 49.7899C145.894 50.8884 146.574 51.6731 147.672 51.6731C148.718 51.7254 149.399 50.9931 149.451 49.8945Z" fill="#386182"/>
<path d="M83.4351 49.9469C83.4351 51.4115 82.3889 52.4054 80.9242 52.4054C79.4595 52.4054 78.4656 51.3592 78.4656 49.8422C78.4656 48.4299 79.5118 47.436 80.9242 47.436C82.4412 47.3836 83.4351 48.4299 83.4351 49.9469ZM80.9242 51.7254C81.9704 51.7254 82.7027 50.9931 82.755 49.8945C82.755 48.796 82.0227 48.0114 80.9242 48.0114C79.878 48.0114 79.1456 48.796 79.1456 49.8422C79.1456 50.9408 79.9303 51.7254 80.9242 51.7254Z" fill="#386182"/>
<path d="M161.744 49.8943C161.744 50.5743 161.744 51.2543 161.744 51.9344C161.744 52.2482 161.639 52.3529 161.325 52.3529C161.011 52.3529 161.011 52.1959 161.011 51.9344C161.011 50.7835 161.011 49.685 161.011 48.5342C161.011 48.168 160.907 48.0634 160.541 48.0111C158.71 48.0111 158.762 47.9588 158.657 49.7373C158.605 50.3651 158.553 50.9928 158.343 51.5682C158.134 52.1959 157.716 52.4052 157.14 52.3005C156.983 52.2482 156.879 52.1959 156.879 52.039C156.879 51.8821 156.826 51.6728 157.088 51.6728C157.768 51.6728 157.82 51.1497 157.925 50.6789C158.082 49.7373 158.082 48.7957 158.134 47.8018C158.134 47.488 158.239 47.3311 158.605 47.3311C159.494 47.3834 160.384 47.3834 161.273 47.3311C161.691 47.3311 161.744 47.488 161.744 47.8542C161.744 48.5865 161.744 49.2142 161.744 49.8943Z" fill="#3D6585"/>
<path d="M94.7864 49.8946C94.7864 50.5223 94.7864 51.2023 94.7864 51.83C94.7864 52.0916 94.8387 52.3531 94.4202 52.3531C93.9494 52.3531 94.0541 52.0393 94.0541 51.83C94.0541 51.4116 94.0541 51.0454 94.0541 50.6269C94.0541 50.2607 93.9494 50.2084 93.6356 50.2084C92.9032 50.2084 92.2232 50.2607 91.4909 50.2084C91.0724 50.2084 91.0201 50.3653 91.0201 50.7315C91.0201 51.15 91.0201 51.5685 91.0201 51.987C91.0201 52.2485 90.9678 52.3531 90.6539 52.3531C90.3923 52.3531 90.2877 52.1962 90.2877 51.987C90.2877 50.5746 90.2877 49.2145 90.2877 47.8021C90.2877 47.4883 90.4446 47.4883 90.6539 47.4883C90.9154 47.4883 90.9677 47.5929 90.9677 47.8545C90.9677 48.3252 90.9677 48.796 90.9677 49.2145C90.9677 49.5284 91.0201 49.6853 91.3862 49.6853C92.1186 49.6853 92.9032 49.6853 93.6356 49.6853C93.9494 49.6853 94.0017 49.5807 94.0017 49.2668C94.0017 48.796 94.0017 48.3252 94.0017 47.9068C94.0017 47.6452 94.0018 47.4883 94.3156 47.5406C94.6295 47.5406 94.7341 47.6452 94.7341 47.9591C94.7864 48.5345 94.7864 49.2145 94.7864 49.8946Z" fill="#3D6585"/>
<path d="M155.937 49.8946C155.937 50.5223 155.937 51.2024 155.937 51.8301C155.937 52.0393 156.042 52.3532 155.623 52.3532C155.153 52.3532 155.257 52.0917 155.257 51.8301C155.257 51.7778 155.257 51.7255 155.257 51.6209C155.257 50.2085 155.257 50.2085 153.897 50.2085C153.374 50.2085 152.746 49.9992 152.38 50.3131C152.066 50.627 152.328 51.2547 152.276 51.7778C152.276 51.9347 152.38 52.1963 152.171 52.3009C151.962 52.3532 151.595 52.5625 151.595 52.0917C151.595 50.627 151.595 49.2146 151.595 47.7499C151.595 47.4883 151.7 47.436 151.962 47.436C152.171 47.436 152.328 47.436 152.328 47.7499C152.328 48.2207 152.328 48.6915 152.328 49.1623C152.328 49.4761 152.38 49.6331 152.746 49.5808C153.479 49.5808 154.211 49.5808 154.943 49.5808C155.257 49.5808 155.309 49.4761 155.309 49.1623C155.309 48.6915 155.309 48.2207 155.309 47.8022C155.309 47.4883 155.414 47.436 155.728 47.436C156.042 47.436 156.042 47.593 156.042 47.8545C155.937 48.5346 155.937 49.2146 155.937 49.8946Z" fill="#3D6585"/>
<path d="M114.507 49.7899C115.083 50.0515 115.501 50.3654 115.449 50.9931C115.397 51.6731 114.926 52.0393 114.351 52.1962C113.461 52.4578 112.52 52.4578 111.683 51.987C111.473 51.8824 111.264 51.7777 111.421 51.4639C111.578 51.15 111.787 51.3593 111.944 51.4639C112.572 51.7777 113.252 51.8301 113.88 51.6731C114.298 51.5685 114.769 51.3593 114.717 50.8362C114.664 50.2607 114.246 50.1561 113.775 50.1038C113.461 50.0515 113.2 50.1038 112.886 50.1038C112.677 50.1038 112.572 50.0515 112.572 49.8423C112.572 49.5807 112.729 49.5807 112.886 49.5807C113.252 49.5807 113.618 49.5284 113.932 49.4761C114.246 49.4238 114.507 49.2145 114.56 48.8484C114.56 48.4822 114.351 48.2729 114.037 48.1683C113.357 47.9068 112.729 48.0114 112.101 48.2729C111.944 48.3253 111.735 48.5345 111.578 48.1683C111.421 47.8545 111.683 47.8021 111.892 47.6975C112.572 47.436 113.252 47.3314 113.984 47.4883C114.56 47.5929 115.083 47.8021 115.24 48.4299C115.449 49.0576 115.083 49.4761 114.507 49.7899Z" fill="#3D6585"/>
<path d="M96.5649 49.8946C96.5649 49.2145 96.5649 48.5345 96.5649 47.8545C96.5649 47.5929 96.5649 47.4883 96.8788 47.4883C97.1927 47.4883 97.245 47.5929 97.2973 47.9068C97.2973 48.3252 97.088 48.9007 97.4019 49.1622C97.6635 49.3715 98.1866 49.2145 98.605 49.2145C99.3897 49.2668 100.122 49.3714 100.436 50.2607C100.802 51.3069 100.174 52.3008 99.0235 52.4055C98.3435 52.4578 97.6111 52.4055 96.8788 52.4055C96.5649 52.4055 96.5649 52.2485 96.5649 51.987C96.5649 51.2546 96.5649 50.5746 96.5649 49.8946ZM97.2973 50.7315C97.2973 50.9931 97.2973 51.2546 97.2973 51.4639C97.2973 51.6208 97.3496 51.7254 97.5588 51.7777C98.1342 51.83 98.7097 51.8823 99.2328 51.7254C99.6512 51.5685 99.8605 51.2023 99.8605 50.7315C99.8605 50.313 99.6512 49.9992 99.2328 49.8422C98.9189 49.7376 98.605 49.7376 98.2912 49.7376C97.2973 49.6853 97.2973 49.6853 97.2973 50.7315Z" fill="#3D6585"/>
<path d="M135.955 49.8423C135.955 49.1623 135.955 48.5346 135.955 47.8545C135.955 47.593 135.955 47.436 136.321 47.436C136.582 47.436 136.687 47.5407 136.687 47.8022C136.687 48.2207 136.478 48.7961 136.792 49.0577C137.106 49.3192 137.629 49.11 138.047 49.1623C139.459 49.2669 140.14 49.9469 139.878 51.1501C139.721 51.8301 139.198 52.3009 138.309 52.3532C137.681 52.4055 137.001 52.3532 136.373 52.3532C136.007 52.3532 135.955 52.1963 135.955 51.9347C135.955 51.2024 135.955 50.5223 135.955 49.8423ZM136.687 50.7316C136.687 51.8301 136.687 51.8301 137.786 51.8301C137.995 51.8301 138.152 51.7778 138.361 51.7778C138.936 51.6732 139.198 51.307 139.198 50.7316C139.198 50.1039 138.832 49.8423 138.256 49.7377C138.099 49.6854 137.89 49.7377 137.681 49.7377C136.687 49.6854 136.687 49.6854 136.687 50.7316Z" fill="#3D6585"/>
<path d="M87.8291 50.3654C87.0444 50.5747 86.3644 50.7839 85.5797 50.627C84.7951 50.4177 84.3766 49.9992 84.3243 49.2146C84.272 48.7438 84.3243 48.273 84.3243 47.8022C84.3243 47.5407 84.4289 47.436 84.6904 47.436C84.952 47.436 85.0566 47.5407 85.0566 47.8022C85.0566 48.2207 85.0566 48.5869 85.0566 49.0053C85.0566 49.6854 85.3705 50.0516 86.0505 50.1039C86.2598 50.1039 86.4167 50.1039 86.6259 50.1039C87.7245 49.9992 87.8291 49.8946 87.8291 48.7961C87.8291 48.4822 87.8291 48.1684 87.8291 47.8545C87.8291 47.593 87.8814 47.436 88.1952 47.436C88.5091 47.436 88.5614 47.593 88.5614 47.8545C88.5614 49.2146 88.5614 50.5747 88.5614 51.9347C88.5614 52.1963 88.5614 52.3532 88.1952 52.3532C87.8814 52.3532 87.8291 52.1963 87.8291 51.9347C87.8291 51.4116 87.8291 50.9408 87.8291 50.3654Z" fill="#3D6585"/>
<path d="M141.395 49.8419C141.395 50.5219 141.395 51.202 141.395 51.882C141.395 52.1435 141.395 52.3005 141.029 52.3005C140.715 52.3005 140.715 52.0912 140.715 51.882C140.715 50.5219 140.715 49.1619 140.715 47.8018C140.715 47.5402 140.715 47.3833 141.081 47.3833C141.395 47.3833 141.395 47.5925 141.395 47.8018C141.395 48.5341 141.395 49.1619 141.395 49.8419Z" fill="#2E5A7C"/>
<path d="M102.005 49.8419C102.005 50.5219 102.005 51.202 102.005 51.882C102.005 52.1435 101.953 52.3005 101.639 52.3005C101.325 52.3005 101.325 52.0912 101.325 51.882C101.325 50.5219 101.325 49.1619 101.325 47.8018C101.325 47.5402 101.378 47.3833 101.691 47.3833C102.005 47.3833 102.005 47.5925 102.005 47.8018C102.005 48.5341 102.005 49.2142 102.005 49.8419Z" fill="#2E5A7C"/>
<path d="M124.551 46.8079C123.819 46.8079 123.243 46.494 123.139 45.9709C123.086 45.8663 123.034 45.6571 123.243 45.6047C123.4 45.5524 123.505 45.5524 123.662 45.7617C124.185 46.5986 124.813 46.5986 125.336 45.7617C125.44 45.5524 125.597 45.5524 125.754 45.6047C126.016 45.6571 125.911 45.8663 125.859 46.0232C125.649 46.5986 125.126 46.7556 124.551 46.8079Z" fill="#3D6585"/>
<path d="M171.212 46.8081C170.636 46.7558 170.113 46.5989 169.852 46.0235C169.799 45.8665 169.695 45.6573 169.904 45.605C170.061 45.5527 170.218 45.5527 170.322 45.8142C170.793 46.5989 171.526 46.5989 171.996 45.8142C172.101 45.605 172.258 45.5527 172.415 45.605C172.624 45.7096 172.52 45.8665 172.467 46.0235C172.31 46.6512 171.787 46.7558 171.212 46.8081Z" fill="#3D6585"/>
</svg>
