<svg xmlns="http://www.w3.org/2000/svg" width="24" height="24" viewBox="0 0 24 24"><path d="M12 3C8.14 3 5 5.964 5 9.609a6.2 6.2 0 001.239 3.755L12.055 20c1.525-1.734 4.565-5.209 5.713-6.643C18.574 12.35 19 11.053 19 9.61 19 5.964 15.86 3 12 3m.05 20c-.325-.038-.653-.146-.867-.4L4.67 14.9A8.551 8.551 0 013 9.8C3 4.948 7.038 1 12 1s9 3.948 9 8.8c0 1.925-.568 3.677-1.642 5.069-1.528 1.979-6.244 7.502-6.444 7.736-.213.25-.53.395-.863.395M12 7c-1.655 0-3 1.345-3 3s1.345 3 3 3 3-1.345 3-3-1.345-3-3-3m0 8c-2.756 0-5-2.242-5-5 0-2.756 2.244-5 5-5 2.758 0 5 2.244 5 5 0 2.758-2.242 5-5 5"></path></svg>