<svg width="96" height="96" viewBox="0 0 96 96" fill="none" xmlns="http://www.w3.org/2000/svg">
<rect width="96" height="96" fill="#FF4700"/>
<path d="M59.7438 73.0425C59.3318 73.1712 58.9971 72.682 59.2546 72.3216L59.821 71.5749C61.7006 69.129 62.2927 65.7046 61.3143 62.3061C60.4647 59.2937 58.1732 56.8735 55.2381 55.8179C51.0156 54.2988 46.9476 55.4059 44.27 57.9549C43.6778 58.4955 43.1371 59.1135 42.6737 59.8086C44.3472 55.8951 48.235 53.166 52.7664 53.166C56.474 53.166 59.3576 54.9682 61.752 57.4399C64.3782 60.1691 67.2876 61.3792 69.5018 61.3792C73.2866 61.3792 75.4493 59.3967 76.9684 56.513C76.9941 56.4358 77.0199 56.3586 77.0456 56.2813C77.4576 54.994 76.9684 53.4749 76.1187 53.4749C74.7799 53.4749 74.3165 55.4059 71.2526 55.4059C70.3772 55.4059 69.4761 55.2 68.6779 54.7623C67.1846 53.9641 66.0775 52.4965 65.7685 50.8487C65.4853 49.2782 66.0518 47.7591 66.0518 47.7591C69.2959 49.9734 73.2609 50.1021 76.7882 48.0938C76.5564 46.3431 75.9385 42.6613 73.1321 40.1123C71.922 39.031 70.3257 38.619 68.6522 38.5675V38.4388C68.6522 36.7395 68.1887 35.066 67.2876 33.6499C66.8757 33.0062 66.3865 32.4141 65.8458 31.8734C65.6656 31.6931 65.2794 31.204 65.0219 31.1782C65.0219 16.966 57.0146 14.3141 55.753 14.0051C55.6758 13.9794 55.6243 14.0566 55.6758 14.1081C57.4266 17.4552 55.3668 20.1328 49.0589 23.4542C43.0084 26.5953 42.1845 31.8476 42.1845 31.8476C42.1845 31.8476 41.9013 27.136 46.2525 23.171C44.27 23.7631 43.1371 24.0978 41.2834 24.999C39.2236 26.0031 37.3441 27.3162 35.7221 28.9382C33.2246 31.4099 31.3966 34.5253 30.341 37.8466C29.8775 39.2884 29.4913 40.8333 29.3883 42.3781C29.1824 40.55 29.2081 38.6963 29.4913 36.8682C29.8775 34.4738 30.6757 32.1566 31.8858 30.0454C32.5037 28.964 33.3276 28.0114 33.9713 26.9557C32.7097 27.6509 31.5253 28.4491 30.3925 29.3244C25.9125 32.8003 22.4625 37.6149 20.5829 42.9702C18.7292 48.2741 18.5232 54.0671 19.862 59.4997C22.2307 69.0775 29.4398 76.9045 38.6829 80.1228C39.0176 80.2516 39.3523 80.3546 39.6871 80.4575C39.893 80.509 40.0733 80.5863 40.2792 80.6378C40.5882 80.7408 40.9229 80.818 41.2319 80.8952C41.7983 81.0497 42.3905 81.1784 42.9826 81.2814C43.1371 81.3072 43.2916 81.3329 43.4461 81.3587C43.8065 81.4102 44.167 81.4617 44.5274 81.5132C44.6819 81.5389 44.8364 81.5647 44.9909 81.5647C44.9909 81.5647 44.9909 81.5647 45.0166 81.5647C45.5573 81.6419 46.098 81.6676 46.6387 81.7191C52.6634 82.0538 58.6109 80.4575 63.6316 77.3422C66.7469 75.4112 69.9138 73.094 71.0209 71.06C71.3813 70.3905 70.0683 68.614 67.9828 68.5625C67.2876 68.5368 66.129 68.8972 65.4853 69.3349C63.6573 70.5965 62.4215 72.2701 59.7438 73.0425ZM33.1474 57.0795C30.444 67.0692 37.0866 74.3041 37.1124 74.3556C37.0609 74.3298 26.7364 66.9662 31.2679 55.0455C35.1299 44.9012 48.8014 45.0042 48.9044 45.0042C48.8272 45.0042 36.0568 46.3431 33.1474 57.0795ZM54.3112 44.3606C54.131 44.3863 54.0795 44.1288 54.234 44.0773C56.165 43.4079 59.2289 42.3266 59.9498 41.8889C60.5162 41.5284 60.3617 40.8075 60.7737 38.4646C61.5976 33.7271 65.0219 31.1782 65.0476 31.1782C64.9704 31.3069 60.7737 39.0567 64.0435 45.2102C64.1722 45.4677 63.889 45.6994 63.6573 45.5449C61.958 44.3606 57.7355 43.9229 54.3112 44.3606Z" fill="white"/>
</svg>
