<svg width="96" height="96" viewBox="0 0 96 96" fill="none" xmlns="http://www.w3.org/2000/svg">
<rect width="96" height="96" fill="#F4F5F8"/>
<path fill-rule="evenodd" clip-rule="evenodd" d="M14.4855 21H81.514C83.2957 21 84.9168 21.7324 86.0921 22.9118L86.0954 22.9154C87.2701 24.0951 88 25.7219 88 27.5113V68.4346C88 70.2219 87.2706 71.8493 86.0954 73.0307L86.0937 73.0323L86.0914 73.0341C84.915 74.2142 83.2939 74.9462 81.514 74.9462H14.4855C12.7016 74.9462 11.0799 74.2142 9.90464 73.0341C8.73004 71.8548 8 70.2265 8 68.4346V27.5113C8 25.7225 8.73004 24.0951 9.90464 22.9154V22.9118C11.0794 21.7324 12.7016 21 14.4855 21ZM81.514 22.9052H14.4855C13.2252 22.9052 12.0783 23.4239 11.2461 24.2589L11.2445 24.2569C10.4136 25.0918 9.89794 26.2446 9.89794 27.5113V68.4346C9.89794 69.7002 10.4148 70.8523 11.2461 71.6871C12.0783 72.5225 13.2252 73.0409 14.4855 73.0409H81.514C82.7771 73.0409 83.9235 72.5236 84.7534 71.6907L84.7573 71.6871C85.587 70.8543 86.1022 69.703 86.1022 68.4346V27.5113C86.1022 26.2442 85.5865 25.0918 84.7555 24.2569C83.9235 23.4229 82.7759 22.9052 81.514 22.9052Z" fill="#0078BF"/>
<path fill-rule="evenodd" clip-rule="evenodd" d="M23.3018 51.0923H72.698C76.346 51.0923 79.3308 54.0885 79.3308 57.7507V57.751C79.3308 61.4134 76.346 64.4095 72.698 64.4095H23.3018C19.6544 64.4095 16.6697 61.4134 16.6697 57.751V57.7507C16.6697 54.0885 19.6544 51.0923 23.3018 51.0923Z" fill="url(#paint0_linear_108_59)"/>
<path fill-rule="evenodd" clip-rule="evenodd" d="M23.2532 53.4263H60.9711C63.3407 53.4263 65.2797 55.3724 65.2797 57.7513C65.2797 60.1303 63.3407 62.0764 60.9711 62.0764H23.2532C20.8833 62.0764 18.945 60.1303 18.945 57.7513C18.945 55.3724 20.8833 53.4263 23.2532 53.4263Z" fill="url(#paint1_linear_108_59)"/>
<path fill-rule="evenodd" clip-rule="evenodd" d="M23.0955 54.1994H61.1288C62.1 54.1994 62.8942 54.9972 62.8942 55.9723C62.8942 56.9473 62.1 57.7448 61.1288 57.7448H23.0955C22.1243 57.7448 21.3301 56.9473 21.3301 55.9723C21.3301 54.9972 22.1243 54.1994 23.0955 54.1994Z" fill="url(#paint2_linear_108_59)"/>
<defs>
<linearGradient id="paint0_linear_108_59" x1="48.4618" y1="71.021" x2="49.0091" y2="86.6307" gradientUnits="userSpaceOnUse">
<stop stop-color="#0D5190"/>
<stop offset="1" stop-color="#00A0E3"/>
</linearGradient>
<linearGradient id="paint1_linear_108_59" x1="42.1123" y1="34.4931" x2="42.1123" y2="43.1433" gradientUnits="userSpaceOnUse">
<stop stop-color="#B0CB1F"/>
<stop offset="1" stop-color="#009846"/>
</linearGradient>
<linearGradient id="paint2_linear_108_59" x1="42.1121" y1="35.1087" x2="42.1121" y2="38.654" gradientUnits="userSpaceOnUse">
<stop stop-color="#FEFEFE"/>
<stop offset="1" stop-color="#5DB139"/>
</linearGradient>
</defs>
</svg>
