<svg width="180" height="72" viewBox="0 0 180 72" fill="none" xmlns="http://www.w3.org/2000/svg">
<g clip-path="url(#clip0_407_30)">
<path d="M62.1151 63.582V68.454H60.3696V57.9262H62.1151V62.3788H62.5345L66.6863 57.9262H68.7919L64.0385 62.9804V62.7982L68.9105 68.3905H66.6863L62.4752 63.5184H62.1151V63.5778V63.582Z" fill="#020203"/>
<path d="M70.5327 57.9262H72.2782V59.731H72.3375C72.579 59.3115 72.8204 58.9472 73.1806 58.6464C73.5407 58.3456 73.9008 58.1041 74.3244 57.9855C74.7438 57.8033 75.2268 57.744 75.7098 57.744C76.6122 57.744 77.3959 57.9855 78.0568 58.4049C78.7177 58.8243 79.26 59.4895 79.6201 60.3283C79.9802 61.1714 80.1624 62.1331 80.1624 63.2176C80.1624 64.3022 79.9802 65.2639 79.6201 66.1069C79.26 66.95 78.7177 67.5516 78.0568 67.971C77.3959 68.3904 76.6121 68.6319 75.7691 68.6319C75.2861 68.6319 74.8074 68.5726 74.3837 68.3904C73.9601 68.2083 73.6 68.0303 73.2399 67.7295C72.8798 67.4287 72.6383 67.0686 72.3968 66.7085H72.3375V72H70.592V57.9262H70.5327ZM76.9087 66.5899C77.3281 66.2891 77.6925 65.8062 77.9297 65.2681C78.1712 64.6665 78.2898 64.0056 78.2898 63.2219C78.2898 62.4381 78.1712 61.7179 77.9297 61.1163C77.6882 60.5147 77.3281 60.0953 76.9087 59.7945C76.4893 59.4937 75.947 59.3115 75.2861 59.3115C74.6845 59.3115 74.1422 59.4937 73.7228 59.7945C73.2399 60.0953 72.8798 60.5783 72.6383 61.1799C72.3968 61.7814 72.2782 62.4423 72.2782 63.2261C72.2782 64.0099 72.3968 64.6708 72.6976 65.2724C72.9391 65.8739 73.2992 66.2934 73.7821 66.6577C74.2651 66.9585 74.7438 67.1407 75.3454 67.1407C75.8877 67.0814 76.43 66.8992 76.9087 66.5984V66.5899Z" fill="#020203"/>
<path d="M83.8864 67.971C83.1662 67.5516 82.6239 66.8865 82.2002 66.1069C81.8401 65.3232 81.5986 64.3615 81.5986 63.2176C81.5986 62.1331 81.7808 61.1714 82.2002 60.3283C82.6196 59.4852 83.1619 58.8836 83.8228 58.4049C84.543 57.922 85.3861 57.744 86.2885 57.744C87.2502 57.744 88.0932 57.9855 88.7541 58.4049C89.415 58.8243 89.9573 59.4895 90.3174 60.269C90.6775 61.0528 90.8597 62.0144 90.8597 63.0355V63.6964H82.4375V62.311H90.0166L89.1143 63.5735V62.9126C89.1143 62.0695 88.9956 61.4086 88.7541 60.8663C88.5127 60.3241 88.1526 59.964 87.7331 59.6632C87.3137 59.4217 86.8308 59.3031 86.2292 59.3031C85.6276 59.3031 85.1446 59.4217 84.7252 59.7225C84.3058 60.0233 83.9414 60.3834 83.7042 60.9257C83.4669 61.4679 83.3441 62.1288 83.3441 62.9126V63.5735C83.3441 64.2937 83.4627 64.9588 83.7042 65.4969C83.9457 66.0392 84.3058 66.3993 84.7887 66.7001C85.2717 67.0009 85.8098 67.1195 86.4113 67.1195C86.8308 67.1195 87.2544 67.0602 87.6145 66.9373C87.9746 66.8187 88.2754 66.6365 88.5169 66.395C88.7584 66.1536 88.9363 65.9121 88.9999 65.6113L89.0592 65.4926H90.8046V65.6113C90.7453 66.0307 90.5632 66.4543 90.3217 66.8145C90.0802 67.1746 89.7794 67.5347 89.36 67.8355C88.9999 68.1362 88.5169 68.3184 88.0382 68.4964C87.5594 68.6743 87.0172 68.7378 86.4749 68.7378C85.4539 68.6192 84.6108 68.3777 83.8864 67.9541V67.971Z" fill="#020203"/>
<path d="M91.7666 71.2798V66.9501H92.669C93.0291 66.7086 93.3299 66.2892 93.5121 65.6876C93.6942 65.086 93.8129 64.4251 93.8722 63.7642L94.2916 57.9305H101.511V66.9543H103.197V71.2841H101.574V68.3947H93.3934V71.2841H91.7708L91.7666 71.2798ZM99.7652 59.3709H95.8549L95.5541 63.76C95.4948 64.4209 95.4354 65.0224 95.2533 65.5647C95.0711 66.107 94.8932 66.5264 94.6517 66.8865V66.9458H99.7652V59.3667V59.3709Z" fill="#020203"/>
<path d="M104.819 57.9262H106.565V65.7469H107.408L106.205 66.4078L111.86 57.9855H113.606V68.5133H111.86V60.6927H111.017L112.221 60.0318L106.565 68.454H104.819V57.9262Z" fill="#020203"/>
<path d="M123.829 59.3709H120.461V68.3947H118.715V59.3709H115.347V57.9262H123.829V59.3709V59.3709Z" fill="#020203"/>
<path d="M61.2718 0.783752H63.2588V29.4143H70.2364V32.0028H63.2588V38.4974C63.2588 39.0397 63.5003 39.5184 63.9197 39.8828C64.5806 40.3657 65.305 40.603 66.1439 40.603H68.7324V42.8907H51.9472V40.603H55.0738C56.0948 40.603 56.8786 40.3615 57.3615 39.9421C57.8445 39.5227 58.0817 38.8575 58.0817 38.0187V32.1257H41V29.2364L61.2718 0.783752ZM58.1453 8.96451L43.525 29.4143H58.1453V8.96451Z" fill="#921C32"/>
<path d="M98.1424 21.0514C96.8206 23.0383 95.3167 24.5423 93.5712 25.504C91.8258 26.525 89.8431 27.0079 87.6782 27.0079C84.6702 27.0079 81.9038 25.9234 79.4381 23.8178C76.9725 21.7123 75.71 18.5857 75.71 14.4339C75.71 10.2821 77.0953 6.97335 79.7982 4.20688C82.5054 1.38535 85.8141 0 89.6016 0C93.7534 0 97.2401 1.74545 100.007 5.23213C102.773 8.72304 104.158 13.5951 104.158 19.8482C104.158 25.0803 103.375 29.4736 101.871 33.0196C100.307 36.6291 98.2611 39.277 95.7361 41.0182C93.2111 42.7636 90.3218 43.666 87.1359 43.666C83.95 43.666 81.6623 43.0051 79.9168 41.6198C78.1714 40.2344 77.3283 38.6118 77.3283 36.7477C77.3283 35.4853 77.6884 34.46 78.4129 33.7398C79.1373 33.0196 80.0355 32.5959 81.12 32.5959C82.0817 32.5959 82.9248 32.956 83.645 33.6169C84.3059 34.2778 84.666 35.0616 84.666 36.0233C84.666 36.6842 84.3652 37.4086 83.7043 38.2475C83.2849 38.7304 83.1027 39.2092 83.1027 39.5693C83.1027 40.1116 83.4628 40.6538 84.1237 41.0139C84.7846 41.4334 85.8692 41.6155 87.3138 41.6155C89.4194 41.6155 91.2242 41.0139 92.8468 39.8701C94.41 38.7262 95.7361 36.8028 96.6978 34.155C97.6595 31.5072 98.2018 28.0798 98.2018 23.8687L98.1424 21.0429V21.0514ZM89.6609 2.16487C87.3732 2.16487 85.5726 3.12657 84.128 4.99064C82.6833 6.85472 81.9631 9.74404 81.9631 13.5315C81.9631 17.0224 82.6833 19.6067 84.128 21.2929C85.5726 22.979 87.496 23.8814 89.8431 23.8814C92.1901 23.8814 94.1135 22.979 95.6768 21.1149C97.2401 19.2508 98.0238 16.7259 98.0238 13.4171C98.0238 10.1084 97.1807 7.28261 95.5582 5.23636C93.9356 3.19011 91.9486 2.16911 89.6651 2.16911L89.6609 2.16487Z" fill="#921C32"/>
<path d="M114.928 2.51143e-05C120.041 1.14389 124.193 1.74548 127.438 1.74548C128.942 1.74548 130.387 1.62686 131.709 1.32606C133.031 1.02527 134.056 0.724474 134.717 0.305056C135.077 0.122885 135.259 0.00426165 135.378 0.00426165C135.56 0.00426165 135.678 0.186433 135.678 0.487227C135.678 1.20744 135.195 2.10982 134.293 3.313C133.391 4.45687 132.128 5.41856 130.565 6.07946C129.002 6.74036 127.197 7.10047 125.151 7.10047C122.804 7.10047 119.978 6.74036 116.728 6.01591L115.767 17.5647C117.271 16.781 118.775 16.2429 120.156 15.8193C121.541 15.4592 122.863 15.2177 124.125 15.2177C128.095 15.2177 131.404 16.5395 134.111 19.128C136.818 21.7758 138.14 25.021 138.14 28.872C138.14 33.1425 136.695 36.6927 133.869 39.4592C130.98 42.2256 127.311 43.611 122.74 43.611C119.249 43.611 116.423 42.59 114.258 40.603C112.094 38.6161 110.95 36.2733 110.95 33.5068C110.95 31.8207 111.31 30.5582 111.971 29.6558C112.691 28.7534 113.534 28.334 114.619 28.334C115.703 28.334 116.542 28.6941 117.207 29.4186C117.868 30.1388 118.228 31.0412 118.228 32.2443C118.228 33.0874 118.046 33.8076 117.745 34.2906C117.385 34.7735 116.783 35.193 115.94 35.4938C115.038 35.8539 114.619 36.214 114.619 36.6969C114.619 37.3578 114.919 38.0823 115.521 38.8618C116.123 39.6413 117.025 40.2472 118.228 40.7852C119.431 41.2682 120.817 41.5054 122.439 41.5054C125.506 41.5054 127.854 40.5437 129.476 38.6161C131.099 36.6927 131.882 33.5619 131.882 29.2322C131.882 25.3218 131.039 22.4367 129.294 20.5684C127.608 18.7637 125.384 17.8613 122.736 17.8613C121.533 17.8613 120.329 18.1028 119.126 18.5222C117.923 18.9416 116.72 19.6067 115.517 20.5091C115.398 21.8945 115.097 22.8562 114.733 23.3349C114.373 23.8179 113.89 24.0551 113.348 24.0551C112.928 24.0551 112.627 23.9365 112.386 23.6357C112.144 23.3349 112.026 22.9748 112.026 22.4325C112.026 21.5301 112.445 20.6871 113.288 19.7847C113.53 19.5432 113.708 19.3017 113.831 19.0645L114.551 10.1635C114.792 6.73612 114.911 3.30453 114.911 -0.00421143L114.928 2.51143e-05Z" fill="#921C32"/>
</g>
<defs>
<clipPath id="clip0_407_30">
<rect width="180" height="72" fill="white"/>
</clipPath>
</defs>
</svg>
