<svg width="180" height="72" viewBox="0 0 180 72" fill="none" xmlns="http://www.w3.org/2000/svg">
<g clip-path="url(#clip0)">
<path d="M25.3889 51.7921C25.1323 51.8723 24.9238 51.5676 25.0842 51.3431L25.437 50.8779C26.6078 49.3543 26.9767 47.2212 26.3673 45.1041C25.838 43.2276 24.4106 41.72 22.5822 41.0624C19.9519 40.1161 17.4178 40.8058 15.7498 42.3936C15.3809 42.7304 15.0441 43.1153 14.7554 43.5484C15.7979 41.1105 18.2197 39.4104 21.0425 39.4104C23.352 39.4104 25.1483 40.5331 26.6399 42.0728C28.2758 43.7729 30.0882 44.5267 31.4675 44.5267C33.8252 44.5267 35.1724 43.2917 36.1187 41.4954C36.1347 41.4473 36.1507 41.3992 36.1668 41.3511C36.4234 40.5492 36.1187 39.6029 35.5894 39.6029C34.7554 39.6029 34.4667 40.8058 32.5581 40.8058C32.0128 40.8058 31.4515 40.6775 30.9543 40.4048C30.024 39.9076 29.3344 38.9934 29.1419 37.967C28.9655 36.9886 29.3183 36.0423 29.3183 36.0423C31.3392 37.4217 33.8091 37.5018 36.0064 36.2508C35.8621 35.1602 35.4771 32.8667 33.7289 31.2789C32.9751 30.6053 31.9807 30.3487 30.9382 30.3166V30.2364C30.9382 29.1779 30.6495 28.1354 30.0882 27.2533C29.8316 26.8523 29.5268 26.4834 29.19 26.1466C29.0778 26.0343 28.8372 25.7296 28.6768 25.7136C28.6768 16.8603 23.6888 15.2083 22.903 15.0159C22.8548 14.9998 22.8228 15.048 22.8548 15.08C23.9455 17.165 22.6624 18.833 18.7329 20.902C14.9639 22.8587 14.4507 26.1306 14.4507 26.1306C14.4507 26.1306 14.2742 23.1955 16.9847 20.7256C15.7498 21.0945 15.0441 21.303 13.8893 21.8643C12.6062 22.4898 11.4354 23.3078 10.425 24.3182C8.86927 25.8579 7.73054 27.7986 7.07296 29.8675C6.78427 30.7657 6.54369 31.728 6.47953 32.6903C6.35123 31.5516 6.36726 30.3968 6.54369 29.2581C6.78427 27.7665 7.28146 26.323 8.03527 25.0079C8.42019 24.3342 8.93342 23.7408 9.33439 23.0832C8.5485 23.5163 7.81073 24.0135 7.10504 24.5588C4.31434 26.724 2.16518 29.7232 0.994369 33.0592C-0.160402 36.3631 -0.28871 39.9718 0.545292 43.3559C2.02083 49.3222 6.51161 54.1979 12.2694 56.2027C12.4779 56.2829 12.6864 56.3471 12.8949 56.4112C13.0232 56.4433 13.1355 56.4914 13.2638 56.5235C13.4563 56.5877 13.6648 56.6358 13.8572 56.6839C14.2101 56.7801 14.579 56.8603 14.9479 56.9245C15.0441 56.9405 15.1403 56.9565 15.2366 56.9726C15.4611 57.0047 15.6856 57.0367 15.9102 57.0688C16.0064 57.0848 16.1026 57.1009 16.1989 57.1009C16.1989 57.1009 16.1989 57.1009 16.2149 57.1009C16.5517 57.149 16.8885 57.165 17.2253 57.1971C20.9783 57.4056 24.6832 56.4112 27.8107 54.4706C29.7514 53.2677 31.7241 51.8242 32.4138 50.5572C32.6383 50.1402 31.8204 49.0335 30.5212 49.0014C30.0882 48.9854 29.3665 49.2099 28.9655 49.4826C27.8268 50.2685 27.0569 51.311 25.3889 51.7921ZM8.82115 41.8483C7.13711 48.0712 11.275 52.578 11.2911 52.6101C11.259 52.5941 4.82757 48.0071 7.65034 40.5812C10.0561 34.2621 18.5726 34.3262 18.6367 34.3262C18.5886 34.3262 10.6335 35.1602 8.82115 41.8483ZM22.0048 33.9253C21.8925 33.9413 21.8604 33.7809 21.9567 33.7488C23.1596 33.3318 25.0681 32.6582 25.5172 32.3856C25.8701 32.161 25.7738 31.712 26.0305 30.2524C26.5437 27.3014 28.6768 25.7136 28.6928 25.7136C28.6447 25.7937 26.0305 30.6213 28.0673 34.4545C28.1475 34.6149 27.9711 34.7593 27.8268 34.663C26.7682 33.9253 24.1379 33.6526 22.0048 33.9253Z" fill="#FF4700"/>
<path d="M54.0176 39.4749C53.0713 38.9456 51.9807 38.673 50.7939 38.673C49.9118 38.673 49.0778 38.8494 48.34 39.1702C47.7626 39.4268 47.2654 39.7796 46.8324 40.2287V33.9897H44.2341V51.183H46.7361V49.6754C47.1692 50.1405 47.6824 50.5094 48.2598 50.782C49.0296 51.1349 49.8797 51.3273 50.7939 51.3273C51.9807 51.3273 53.0713 51.0547 54.0176 50.5254C54.9639 49.9962 55.7177 49.2423 56.263 48.28C56.7923 47.3177 57.0649 46.2111 57.0649 44.9761C57.0649 43.7411 56.7923 42.6345 56.263 41.6882C55.7177 40.758 54.9639 40.0042 54.0176 39.4749ZM54.4507 44.9921C54.4507 45.778 54.2742 46.4837 53.9535 47.0932C53.6167 47.7026 53.1676 48.1678 52.5902 48.5046C52.0128 48.8414 51.3552 49.0018 50.6335 49.0018C49.9278 49.0018 49.2702 48.8253 48.6768 48.5046C48.0994 48.1678 47.6343 47.7026 47.3135 47.0932C46.9928 46.4837 46.8163 45.778 46.8163 44.9921C46.8163 44.2063 46.9767 43.5006 47.3135 42.8911C47.6343 42.2977 48.0994 41.8165 48.6768 41.4958C49.2542 41.175 49.9118 40.9986 50.6335 40.9986C51.3552 40.9986 52.0128 41.1589 52.5902 41.4958C53.1676 41.8165 53.6167 42.2977 53.9535 42.8911C54.2742 43.5006 54.4507 44.2063 54.4507 44.9921Z" fill="#FF4700"/>
<path d="M69.3023 40.0364C68.2117 38.9618 66.8164 38.4165 65.1484 38.4165C63.1435 38.4165 61.5557 39.042 60.433 40.277C59.2943 41.5119 58.7169 43.0837 58.7169 44.9281C58.7169 46.9009 59.3424 48.4887 60.5453 49.6755C61.7482 50.8624 63.3681 51.4558 65.3889 51.4558C67.2975 51.4558 68.8693 50.9105 70.0722 49.8199L70.1844 49.7236L69.3344 47.6066L69.1099 47.8151C68.2598 48.617 67.0569 49.0179 65.5493 49.0179C64.4106 49.0179 63.4643 48.7132 62.7426 48.1038C62.085 47.5424 61.684 46.7726 61.5718 45.8263H70.7939L70.826 45.6499C70.9222 45.1847 70.9703 44.6876 70.9703 44.1583C70.9864 42.4742 70.425 41.0949 69.3023 40.0364ZM62.5662 41.6884C63.2077 41.127 64.0417 40.8544 65.0521 40.8544C66.0305 40.8544 66.8164 41.127 67.3937 41.6563C67.923 42.1374 68.2277 42.8111 68.3079 43.6451H61.4595C61.6038 42.8592 61.9888 42.2016 62.5662 41.6884Z" fill="#FF4700"/>
<path d="M76.5517 31.9688H73.9695V51.1989H76.5517V31.9688Z" fill="#FF4700"/>
<path d="M88.5967 47.2374L86.0465 44.5109L91.4836 38.6889H88.308L83.0313 44.6231V31.9688H80.4491V51.1989H83.0313V44.7194L86.4635 48.8092C87.1532 49.7394 87.9551 50.4451 88.8533 50.8942C89.4307 51.1829 90.0081 51.3432 90.5694 51.3432C90.8902 51.3432 91.2109 51.2951 91.5317 51.1989L91.6761 51.1508L91.7081 48.6648L91.4034 48.7771C90.6817 49.0497 89.7354 48.5365 88.5967 47.2374Z" fill="#FF4700"/>
<path d="M99.3263 38.4165C97.3536 38.4165 95.6695 39.058 94.3223 40.293C92.9911 41.544 92.3175 43.1158 92.3175 44.9281C92.3175 46.8848 92.8789 48.4887 93.9855 49.6595C95.1082 50.8463 96.6319 51.4398 98.5244 51.4398C99.8716 51.4398 101.058 51.0228 102.037 50.1888V51.1831H104.619V39.876L104.523 39.8119C103.047 38.8816 101.299 38.4165 99.3263 38.4165ZM102.053 41.544V47.5584C101.684 47.9594 101.219 48.2962 100.658 48.5689C100.08 48.8576 99.4707 49.0019 98.8933 49.0019C97.7225 49.0019 96.7762 48.6491 96.0865 47.9434C95.3969 47.2377 95.044 46.2593 95.044 45.0404C95.044 43.8536 95.445 42.8592 96.2149 42.0733C97.0168 41.2553 98.0593 40.8544 99.3103 40.8544C100.257 40.8544 101.187 41.0949 102.053 41.544Z" fill="#FF4700"/>
<path d="M123.464 47.542C122.598 48.5203 121.492 49.0336 120.16 49.0336C118.99 49.0336 117.995 48.6486 117.193 47.9109C116.423 47.1891 116.022 46.1948 116.022 44.9598C116.022 43.789 116.407 42.8106 117.161 42.0568C117.931 41.287 118.877 40.886 119.936 40.886C121.251 40.886 122.374 41.287 123.256 42.0889L123.448 42.2653L124.667 40.1964L124.555 40.0841C123.464 38.9935 121.812 38.4321 119.647 38.4321C117.835 38.4321 116.311 39.0737 115.108 40.3247C113.905 41.5757 113.296 43.1314 113.296 44.9598C113.296 46.9325 113.921 48.5203 115.14 49.7072C116.375 50.894 118.011 51.4875 119.984 51.4875C122.101 51.4875 123.721 50.7818 124.795 49.3864L124.892 49.2581L123.641 47.3335L123.464 47.542Z" fill="#FF4700"/>
<path d="M132.622 38.4644C131.467 38.4644 130.521 38.8814 129.799 39.6833V38.6729H127.217V51.1829H129.799V42.4579C130.361 41.4154 131.115 40.9022 132.109 40.9022C132.638 40.9022 133.152 41.0466 133.633 41.3352L133.857 41.4636L134.755 39.0578L134.627 38.9615C134.178 38.6408 133.504 38.4644 132.622 38.4644Z" fill="#FF4700"/>
<path d="M146.143 40.0364C145.052 38.9618 143.657 38.4165 141.989 38.4165C139.984 38.4165 138.396 39.042 137.273 40.277C136.135 41.5119 135.557 43.0837 135.557 44.9281C135.557 46.9009 136.183 48.4887 137.386 49.6755C138.589 50.8624 140.208 51.4558 142.229 51.4558C144.138 51.4558 145.71 50.9105 146.913 49.8199L147.025 49.7236L146.175 47.6066L145.95 47.8151C145.1 48.617 143.897 49.0179 142.39 49.0179C141.251 49.0179 140.305 48.7132 139.583 48.1038C138.925 47.5424 138.524 46.7726 138.412 45.8263H147.634L147.666 45.6499C147.763 45.1847 147.811 44.6876 147.811 44.1583C147.827 42.4742 147.249 41.0949 146.143 40.0364ZM138.3 43.6451C138.444 42.8431 138.829 42.1855 139.406 41.6884C140.048 41.127 140.882 40.8544 141.892 40.8544C142.871 40.8544 143.657 41.127 144.234 41.6563C144.763 42.1374 145.068 42.8111 145.148 43.6451H138.3V43.6451Z" fill="#FF4700"/>
<path d="M159.567 40.2288C159.134 39.7797 158.637 39.4269 158.059 39.1703C157.305 38.8334 156.488 38.6731 155.605 38.6731C154.419 38.6731 153.328 38.9457 152.382 39.475C151.435 40.0043 150.682 40.7581 150.136 41.7043C149.607 42.6506 149.334 43.7573 149.334 44.9922C149.334 46.2272 149.607 47.3338 150.136 48.2962C150.666 49.2585 151.419 50.0123 152.382 50.5415C153.328 51.0708 154.419 51.3435 155.605 51.3435C156.52 51.3435 157.37 51.167 158.139 50.7982C158.717 50.5255 159.23 50.1566 159.663 49.6915V51.1991H162.165V34.0059H159.567V40.2288ZM159.102 42.8912C159.423 43.5006 159.599 44.2063 159.599 44.9922C159.599 45.7781 159.439 46.4838 159.102 47.0933C158.781 47.7027 158.316 48.1678 157.739 48.5047C157.161 48.8415 156.504 49.0018 155.782 49.0018C155.06 49.0018 154.403 48.8254 153.825 48.5047C153.248 48.1678 152.799 47.7027 152.462 47.0933C152.125 46.4838 151.965 45.7781 151.965 44.9922C151.965 44.2063 152.141 43.5006 152.462 42.8912C152.799 42.2817 153.248 41.8166 153.825 41.4958C154.403 41.1751 155.06 40.9986 155.782 40.9986C156.488 40.9986 157.145 41.159 157.739 41.4958C158.316 41.8166 158.765 42.2978 159.102 42.8912Z" fill="#FF4700"/>
<path d="M167.666 32.8511C167.217 32.8511 166.832 32.9954 166.528 33.2681C166.207 33.5568 166.047 33.9096 166.047 34.3587C166.047 34.8238 166.207 35.2248 166.512 35.5135C166.816 35.8182 167.201 35.9625 167.65 35.9625C168.083 35.9625 168.452 35.8022 168.741 35.5135C169.03 35.2087 169.174 34.8238 169.174 34.3587C169.174 33.9257 169.03 33.5568 168.725 33.2841C168.452 32.9954 168.083 32.8511 167.666 32.8511Z" fill="#FF4700"/>
<path d="M168.901 38.689H166.319V51.199H168.901V38.689Z" fill="#FF4700"/>
<path d="M179.166 48.1677L178.941 48.3441C178.396 48.7611 177.819 48.9696 177.161 48.9696C175.862 48.9696 175.221 48.0554 175.221 46.1789V41.1268H179.647V38.689H175.221V35.3369H172.638V46.4035C172.638 48.0715 172.959 49.3385 173.601 50.1565C174.242 50.9905 175.269 51.4235 176.648 51.4235C177.915 51.4235 178.99 51.0707 179.872 50.3489L180 50.2527L179.166 48.1677Z" fill="#FF4700"/>
</g>
<defs>
<clipPath id="clip0">
<rect width="180" height="42.2293" fill="white" transform="translate(0 15)"/>
</clipPath>
</defs>
</svg>
