<svg width="180" height="72" viewBox="0 0 180 72" fill="none" xmlns="http://www.w3.org/2000/svg">
<g clip-path="url(#clip0_4226_337)">
<path d="M19.1117 28.0242C16.1163 28.0242 13.429 29.2822 11.7252 31.0142H11.6212L14.4635 17.1602H5.63033L0.620947 42.5082C0.233905 44.1593 0.0258983 45.8488 0.000663337 47.5462C-0.0503726 52.0602 2.84101 55.0002 9.55617 55.0002C21.4358 55.0002 26.7553 45.5002 26.7553 36.9462C26.7553 32.3262 24.2761 28.0242 19.1117 28.0242ZM11.4661 48.2822C10.1235 48.2822 9.19499 47.4422 9.14199 45.8682C9.03992 44.8682 9.24603 43.9782 9.4011 43.1382L9.76228 41.3022C10.4866 37.4702 12.6556 35.2662 14.8247 35.2662C16.6325 35.2662 17.5099 36.7362 17.5099 38.9402C17.5099 42.9282 14.8247 48.2822 11.4661 48.2822Z" fill="#282735"/>
<path d="M71.353 27.3574C68.0769 27.3574 64.3257 27.3574 55.6633 34.6114L55.4985 34.7494L55.3552 34.5994C51.6256 30.7994 49.0738 27.3594 43.0339 27.3594C34.1497 27.3594 27.4365 33.7114 27.4365 43.7354C27.4365 49.8234 31.7216 54.3354 38.5408 54.3354C41.7502 54.3354 45.5661 54.3354 54.2304 47.0814L54.3933 46.9454C54.4483 46.9954 54.4993 47.0474 54.5484 47.0974C58.278 50.8974 60.6472 54.3354 66.8697 54.3354C75.7519 54.3354 82.4671 47.9854 82.4671 37.9614C82.4572 31.8714 78.1702 27.3574 71.353 27.3574ZM40.8943 45.5714C38.0756 45.5714 36.9017 43.1714 36.9017 41.0174C36.9017 38.4914 38.9392 35.6054 42.555 35.6054C46.0018 35.6054 49.5881 41.1494 49.5881 41.0174C49.5881 40.8534 44.6631 45.5714 40.8943 45.5714ZM67.4703 45.5714C64.0234 45.5714 60.4372 40.0294 60.4372 40.1594C60.4372 40.3234 65.3621 35.6054 69.131 35.6054C71.9497 35.6054 73.1235 38.0054 73.1235 40.1594C73.1235 42.6854 71.086 45.5714 67.4703 45.5714Z" fill="#282735"/>
<path d="M165.008 29.4394C162.08 28.5305 159.039 28.0536 155.978 28.0234C142.86 28.0234 137.541 37.2594 137.541 45.8134C137.541 51.4294 140.793 54.9994 145.392 54.9994C148.078 54.9994 151.228 53.7994 153.397 49.9594H153.501C153.45 51.4294 153.346 52.9594 153.295 54.4214H161.343C161.241 51.0634 161.808 45.7614 162.325 42.9794L165.008 29.4394ZM154.112 40.0934C152.975 46.1814 150.857 47.8094 149.255 47.8094C147.707 47.8094 146.725 46.5494 146.725 44.1354C146.725 40.3554 149.411 34.7354 153.543 34.7354C154.08 34.743 154.615 34.7952 155.144 34.8914L154.112 40.0934Z" fill="#282735"/>
<path d="M139.998 28.0756C139.5 28.0323 139 28.015 138.501 28.0236C134.989 28.0236 132.149 30.3836 130.288 33.7436H130.142C130.298 32.0116 130.402 30.3316 130.506 28.5996H122.903C122.644 30.7516 122.334 35.4756 121.612 39.5696L118.822 54.4216H127.655L129.255 45.5996C130.133 40.8776 131.889 36.7316 137.107 36.7316H138.243L139.998 28.0756Z" fill="#282735"/>
<path d="M95.4518 34.4776C97.2954 34.4841 99.12 34.8585 100.822 35.5796L102.836 29.3796C101.494 28.6436 99.0675 28.0156 95.813 28.0156C88.7896 28.0156 83.8392 31.5836 83.8392 37.3036C83.8392 40.7156 86.6285 42.8676 89.5199 44.2836C91.7419 45.2836 92.5153 46.0156 92.5153 46.9616C92.5153 47.8016 91.7929 48.4836 90.0361 48.4836C87.4019 48.5356 84.4594 47.3816 82.9087 46.6456L80.8438 52.8456C82.4965 54.0456 85.8021 54.8916 89.2097 54.9976C96.4922 55.0496 101.71 51.7436 101.71 45.5976C101.71 41.7156 98.351 39.7736 95.6147 38.4616C93.6518 37.5676 92.7214 36.7816 92.7214 36.0476C92.7135 34.9996 93.799 34.4776 95.4518 34.4776Z" fill="#282735"/>
<path d="M113.283 45.3999C113.336 44.4279 113.46 43.4613 113.654 42.5079L115.101 35.3699H120.265L121.547 28.6H116.382L117.725 21.252L108.696 23.72L107.808 28.6H104.709L103.419 35.3699H106.517L104.762 44.3999C104.399 46.4459 104.246 47.8119 104.246 49.1759C104.246 52.6399 106.621 55.0019 111.424 55.0019C113.128 55.0019 115.195 54.7919 116.278 54.3719L117.415 47.3379C116.73 47.4235 116.04 47.4589 115.35 47.4439C113.748 47.4419 113.283 46.5499 113.283 45.3999Z" fill="#282735"/>
<path d="M167.124 20.888C167.116 19.6814 167.406 18.4922 167.968 17.43C168.515 16.3912 169.329 15.524 170.323 14.922C171.302 14.3189 172.424 14 173.568 14C174.712 14 175.834 14.3189 176.813 14.922C177.804 15.5233 178.614 16.391 179.153 17.43C179.719 18.4906 180.011 19.6807 180.001 20.888C180.006 22.0725 179.726 23.2401 179.184 24.288C178.649 25.3372 177.846 26.2201 176.86 26.844C175.875 27.4784 174.731 27.8102 173.566 27.8C172.402 27.8081 171.26 27.4786 170.272 26.85C169.29 26.2273 168.489 25.3491 167.95 24.306C167.401 23.2542 167.117 22.0796 167.124 20.888V20.888ZM168.168 20.888C168.16 21.9157 168.41 22.9284 168.894 23.83C169.352 24.7 170.03 25.4293 170.857 25.942C171.676 26.4435 172.613 26.7077 173.568 26.7059C174.522 26.7042 175.459 26.4366 176.275 25.932C177.104 25.4174 177.782 24.6852 178.238 23.812C178.717 22.9153 178.964 21.9089 178.954 20.888C178.963 19.873 178.715 18.8729 178.234 17.984C177.781 17.1131 177.102 16.3859 176.271 15.882C175.455 15.3762 174.519 15.1079 173.564 15.1061C172.609 15.1043 171.671 15.3692 170.853 15.872C170.019 16.3764 169.335 17.1031 168.875 17.974C168.402 18.8691 168.159 19.8715 168.168 20.888V20.888ZM172.233 21.58V24.696H170.954V16.868H173.458C174.385 16.868 175.105 17.068 175.617 17.468C176.13 17.868 176.388 18.452 176.389 19.22C176.389 19.976 176.002 20.554 175.229 20.954C175.967 21.262 176.339 21.8887 176.344 22.834V23.4C176.323 23.7873 176.375 24.1751 176.499 24.542V24.69H175.184C175.077 24.3066 175.034 23.9078 175.056 23.51C175.064 23.1718 175.055 22.8333 175.029 22.496C174.932 21.9067 174.539 21.5994 173.851 21.574L172.233 21.58ZM172.233 20.4H173.649C174.024 20.4074 174.392 20.294 174.701 20.076C174.826 19.9856 174.927 19.8654 174.995 19.7259C175.064 19.5864 175.097 19.4319 175.093 19.276C175.093 18.828 174.975 18.5114 174.738 18.326C174.501 18.1407 174.081 18.0454 173.478 18.04H172.226L172.233 20.4Z" fill="#282735"/>
</g>
<defs>
<clipPath id="clip0_4226_337">
<rect width="180" height="72" fill="white"/>
</clipPath>
</defs>
</svg>
