<svg width="180" height="72" viewBox="0 0 180 72" fill="none" xmlns="http://www.w3.org/2000/svg">
<g clip-path="url(#clip0_2726_1172)">
<path fill-rule="evenodd" clip-rule="evenodd" d="M2.18105 22H25.5585C26.7549 22 27.7395 22.9741 27.7395 24.181V47.5585C27.7395 48.7549 26.7655 49.7395 25.5585 49.7395H2.18105C0.984648 49.7395 0 48.7549 0 47.5585V24.181C0 22.9741 0.97406 22 2.18105 22ZM6.8396 33.3393H4.60561C4.30916 33.3393 4.07623 33.5828 4.07623 33.8687V36.1027C4.07623 36.3992 4.31975 36.6321 4.60561 36.6321H6.8396C7.13605 36.6321 7.36898 36.3886 7.36898 36.1027V33.8687C7.36898 33.5723 7.12546 33.3393 6.8396 33.3393V33.3393ZM19.4918 33.7628C19.7777 33.1382 19.9471 32.4394 19.9471 31.7088C19.9471 30.3748 19.3965 29.1572 18.5071 28.2785C17.6284 27.3997 16.4002 26.8491 15.0662 26.8491H8.49127C8.17364 26.8491 7.89836 26.9762 7.69719 27.1773C7.49603 27.3785 7.36898 27.6644 7.36898 27.9714V30.036H10.1323C10.4288 30.036 10.6617 30.2795 10.6617 30.5654V33.3287H13.4251C13.7215 33.3287 13.9545 33.5723 13.9545 33.8581V36.0921C13.9545 36.3886 13.711 36.6215 13.4251 36.6215H10.6617V39.3849C10.6617 39.6813 10.4182 39.9142 10.1323 39.9142H7.36898V43.7046C7.36898 44.0222 7.49603 44.2975 7.69719 44.4987C7.89836 44.6998 8.18422 44.8269 8.49127 44.8269H15.8285C17.2684 44.8269 18.5813 44.234 19.5341 43.2811C20.487 42.3282 21.0799 41.0154 21.0799 39.5754C21.0799 38.559 20.7941 37.6167 20.2859 36.8121C19.8518 36.1133 19.2589 35.5204 18.5601 35.0969C18.9412 34.7051 19.2589 34.2393 19.4918 33.7417V33.7628Z" fill="url(#paint0_linear_2726_1172)"/>
<path fill-rule="evenodd" clip-rule="evenodd" d="M45.3679 44.8482C43.3669 44.8482 41.5564 44.0329 40.2435 42.7201C38.9307 41.4072 38.126 39.5861 38.126 37.5851V27.9398C38.126 27.6539 38.2425 27.3998 38.4225 27.2092C38.6024 27.0187 38.8671 26.9022 39.1424 26.9022C39.4177 26.9022 39.693 27.0187 39.8835 27.1986C40.0741 27.3892 40.18 27.6433 40.18 27.9398V37.5851C40.18 39.025 40.7623 40.3167 41.7046 41.259C42.6469 42.2013 43.9492 42.7836 45.3785 42.7836C46.8078 42.7836 48.1207 42.2013 49.0524 41.2696C49.9947 40.3273 50.5664 39.0356 50.5664 37.5957V27.9398C50.5664 27.6539 50.6829 27.3892 50.8629 27.1986C51.0535 27.0081 51.3076 26.9022 51.604 26.9022C51.9005 26.9022 52.1546 27.0187 52.3452 27.1986C52.5357 27.3892 52.6416 27.6433 52.6416 27.9398V37.5851C52.6416 39.5967 51.8264 41.4072 50.5135 42.7307C49.2006 44.0435 47.3796 44.8588 45.3679 44.8588V44.8482ZM69.063 44.8482H65.0609C64.775 44.8482 64.5103 44.7317 64.3303 44.5517C64.1398 44.3612 64.0339 44.1071 64.0339 43.8106V27.9398C64.0339 27.6539 64.1503 27.3892 64.3303 27.1986C64.5209 27.0081 64.775 26.9022 65.0715 26.9022H69.0736C71.5511 26.9022 73.7957 27.908 75.4262 29.5279C77.0461 31.1478 78.0519 33.3924 78.0519 35.8805C78.0519 38.3686 77.0461 40.6026 75.4262 42.2331C73.8062 43.853 71.5617 44.8588 69.0736 44.8588L69.063 44.8482ZM66.0985 42.773H69.063C70.9688 42.773 72.7051 42.0001 73.9545 40.7508C75.2144 39.5014 75.9873 37.7757 75.9873 35.8699C75.9873 33.9641 75.2144 32.2278 73.9545 30.9784C72.6946 29.7291 70.9688 28.9456 69.063 28.9456H66.0985V42.773ZM98.4013 44.8482C95.9344 44.8482 93.6792 43.8424 92.0593 42.2119C90.4394 40.592 89.423 38.3474 89.423 35.8699C89.423 33.3924 90.4288 31.1478 92.0593 29.5279C93.6898 27.908 95.9344 26.8916 98.4013 26.8916C99.693 26.8916 100.963 27.1669 102.107 27.6857C103.261 28.2045 104.309 28.9668 105.156 29.9408C105.347 30.1738 105.421 30.449 105.41 30.7031C105.389 30.9678 105.273 31.2219 105.061 31.4019L105.04 31.4231C104.828 31.6031 104.574 31.6772 104.32 31.6666C104.066 31.656 103.822 31.5396 103.632 31.3384L103.6 31.3066C102.943 30.5549 102.139 29.962 101.26 29.5597C100.371 29.1574 99.3965 28.9456 98.4013 28.9456C96.5061 28.9456 94.7697 29.7185 93.5204 30.9784C92.271 32.2278 91.4981 33.9641 91.4981 35.8699C91.4981 37.7757 92.271 39.5014 93.5204 40.7508C94.7697 42.0001 96.4955 42.773 98.3907 42.773C99.3436 42.773 100.275 42.5824 101.122 42.2119C101.948 41.8625 102.7 41.3437 103.335 40.6978V37.5322H99.0048C98.7189 37.5322 98.4542 37.4157 98.2636 37.2357C98.0731 37.0451 97.9672 36.791 97.9672 36.4946C97.9672 36.1981 98.0836 35.944 98.2636 35.7534C98.4542 35.5629 98.7083 35.4464 99.0048 35.4464H104.373C104.659 35.4464 104.923 35.5629 105.114 35.7534C105.304 35.944 105.41 36.1981 105.41 36.4946V41.0896C105.41 41.2166 105.389 41.3331 105.347 41.4496C105.304 41.566 105.241 41.6719 105.156 41.7672C104.309 42.7518 103.261 43.5142 102.107 44.0435C100.953 44.5729 99.6824 44.8482 98.3907 44.8482H98.4013ZM119.132 42.773H128.46C128.735 42.773 128.999 42.8895 129.19 43.0801C129.381 43.2706 129.497 43.5247 129.497 43.8106C129.497 44.0965 129.381 44.3506 129.19 44.5412C128.999 44.7317 128.735 44.8482 128.46 44.8482H118.094C117.808 44.8482 117.544 44.7317 117.353 44.5517C117.163 44.3612 117.057 44.1071 117.057 43.8106V27.9398C117.057 27.6539 117.173 27.3892 117.353 27.1986C117.544 27.0081 117.798 26.9022 118.094 26.9022H128.46C128.735 26.9022 128.999 27.0187 129.19 27.2092C129.381 27.3998 129.497 27.6539 129.497 27.9398C129.497 28.2256 129.381 28.4692 129.19 28.6491C128.999 28.8291 128.735 28.9456 128.46 28.9456H119.132V34.4617H125.791C126.067 34.4617 126.331 34.5782 126.522 34.7582C126.713 34.9382 126.829 35.1923 126.829 35.4676C126.829 35.7428 126.713 36.0075 126.522 36.1981C126.331 36.3887 126.067 36.5052 125.791 36.5052H119.132V42.7624V42.773ZM141.916 26.8916H153.711C153.997 26.8916 154.262 27.0081 154.452 27.1881C154.643 27.3786 154.749 27.6327 154.749 27.9292C154.749 28.2256 154.632 28.4692 154.441 28.6491C154.251 28.8291 153.997 28.9456 153.711 28.9456H148.841V43.8106C148.841 44.0965 148.724 44.3506 148.544 44.5412C148.364 44.7317 148.1 44.8482 147.824 44.8482C147.549 44.8482 147.274 44.7317 147.083 44.5517C146.893 44.3612 146.787 44.1071 146.787 43.8106V28.9456H141.916C141.63 28.9456 141.376 28.8291 141.186 28.6491C140.995 28.4692 140.879 28.2045 140.879 27.9292C140.879 27.6539 140.995 27.3786 141.175 27.1881C141.366 26.9975 141.62 26.8916 141.916 26.8916V26.8916ZM167.168 26.8916H178.962C179.248 26.8916 179.513 27.0081 179.704 27.1881C179.894 27.3786 180 27.6327 180 27.9292C180 28.2256 179.884 28.4692 179.693 28.6491C179.502 28.8291 179.248 28.9456 178.962 28.9456H174.092V43.8106C174.092 44.0965 173.976 44.3506 173.796 44.5412C173.616 44.7317 173.351 44.8482 173.076 44.8482C172.8 44.8482 172.525 44.7317 172.335 44.5517C172.144 44.3612 172.038 44.1071 172.038 43.8106V28.9456H167.168C166.882 28.9456 166.628 28.8291 166.437 28.6491C166.247 28.4692 166.13 28.2045 166.13 27.9292C166.13 27.6539 166.247 27.3786 166.427 27.1881C166.617 26.9975 166.871 26.8916 167.168 26.8916V26.8916Z" fill="#1C2A40"/>
</g>
<defs>
<linearGradient id="paint0_linear_2726_1172" x1="6.08788" y1="46.5844" x2="21.6517" y2="25.1445" gradientUnits="userSpaceOnUse">
<stop stop-color="#1E1347"/>
<stop offset="1" stop-color="#996C95"/>
</linearGradient>
<clipPath id="clip0_2726_1172">
<rect width="180" height="72" fill="white"/>
</clipPath>
</defs>
</svg>
