<svg width="180" height="72" viewBox="0 0 180 72" fill="none" xmlns="http://www.w3.org/2000/svg">
<path d="M123.002 33.4363L92.4223 1.05765C91.0959 -0.34669 88.9053 -0.34669 87.579 1.05765L56.9991 33.4363C55.6728 34.8407 55.6728 37.1602 56.9991 38.5646L87.579 70.9433C88.9053 72.3476 91.0959 72.3476 92.4223 70.9433L123.002 38.5646C124.328 37.1602 124.328 34.8407 123.002 33.4363ZM113.092 41.4521V45.2864L112.377 45.4127C111.885 45.5074 111.378 45.5389 110.872 45.5389C110.38 45.5389 109.873 45.4916 109.366 45.4127L108.651 45.2864V41.4679L108.1 40.458L106.669 41.9886C106.907 42.6513 107.042 43.3614 107.086 44.103L107.131 44.75L106.565 45.0024C106.505 45.034 105.089 45.6336 103.241 45.6336L89.9932 59.8032L74.2859 43.0143C74.1071 43.03 73.9283 43.0458 73.7644 43.0458C73.3471 43.0458 72.9298 42.9985 72.5126 42.9038L72.0506 42.7934L71.6929 42.6987L71.6333 45.2707L70.9329 45.3969C70.456 45.4758 69.9642 45.5231 69.4873 45.5231C69.0105 45.5231 68.5187 45.4758 68.0418 45.3969L67.2967 45.2707L67.8332 31.1326L68.5336 31.0221C69.0552 30.9433 69.5917 30.8959 70.1133 30.8959C70.6348 30.8959 71.1713 30.9433 71.7078 31.0221L72.1996 31.101L72.3039 31.1168L77.9222 25.1208C77.8327 24.6001 77.788 24.032 77.788 23.4324C77.788 19.9768 79.5167 15.9531 84.3749 15.9531C85.12 15.9531 85.7758 16.0478 86.2973 16.1582L90.023 12.1819L97.0718 19.7085C97.7424 19.6296 98.7856 19.535 99.2327 19.535H99.2923C99.4115 19.535 99.6053 19.5192 99.8586 19.5192C102.854 19.5192 104.657 20.9866 104.657 23.464C104.657 24.6474 104.24 25.5152 103.793 26.0675L104.657 27.8032L111.676 35.2983L112.049 34.604L112.451 34.5409C112.973 34.4462 113.494 34.4147 114.001 34.4147C114.523 34.4147 115.044 34.462 115.551 34.5409L116.773 34.746L113.092 41.4521Z" fill="#FFCB05"/>
<path d="M84.3147 29.9328C81.5875 29.9328 78.6219 28.2602 78.6219 23.4318C78.6219 20.7336 79.8588 16.8677 84.3594 16.8677C86.1924 16.8677 87.3995 17.4673 87.3995 17.4673C87.3101 18.3351 87.0865 19.1872 86.714 19.9919C86.714 19.9919 81.662 17.6882 81.662 23.4318C81.662 29.0649 86.8481 26.7927 86.8481 26.7927C87.2207 27.5817 87.4591 28.418 87.5634 29.3332C87.5634 29.3332 86.2967 29.9328 84.3147 29.9328ZM92.8687 23.8894C92.8687 23.274 92.6154 22.7217 91.2443 22.7217C90.1266 22.7217 89.1282 23.132 89.1282 23.132C88.8301 22.485 88.6364 21.7908 88.6215 21.0018C88.6215 21.0018 95.3723 18.5087 95.3723 24.1892C95.3723 24.6468 95.3723 29.3489 95.3723 29.3489C95.3723 29.3489 88.0552 31.7 88.0552 26.7769C88.0552 23.984 90.8867 23.8894 92.8687 23.8894ZM90.4396 26.7296C90.4396 28.2917 92.8687 27.7079 92.8687 27.7079C92.8687 27.7079 92.8687 26.13 92.8687 25.6724C92.0193 25.6724 90.4396 25.5462 90.4396 26.7296ZM76.4611 31.9209L73.9724 38.6113L71.5582 31.9209C70.5895 31.7631 69.6208 31.7631 68.6522 31.9209L68.1753 44.5126C69.0396 44.6704 69.9189 44.6704 70.7832 44.5126L70.9621 37.27L71.0515 37.2543L72.6907 42.0038C73.4061 42.1616 74.1363 42.1616 74.8516 42.0038L76.6846 37.1754L76.774 37.1911L77.0125 44.4969C77.9364 44.6547 78.8455 44.6547 79.7694 44.4969L79.2031 31.9051C78.2792 31.7631 77.3701 31.7631 76.4611 31.9209ZM99.2768 22.7375C99.2768 22.7375 99.5748 22.7059 99.8133 22.7059C100.767 22.7059 100.931 23.3213 100.931 23.8894C100.931 25.0412 99.694 25.5777 99.694 25.5777L101.527 29.7276C102.555 29.8854 103.569 29.8854 104.597 29.7276L102.689 25.8775C102.689 25.8775 103.762 25.1833 103.762 23.4791C103.762 20.0077 99.5003 20.4653 99.2022 20.4653C98.5912 20.4653 96.5496 20.702 96.5496 20.702V29.7434C97.4587 29.9012 98.3528 29.9012 99.2619 29.7434V22.7375H99.2768ZM89.1133 40.0314C89.1133 43.4081 87.1163 44.7335 84.8363 44.7335C82.5562 44.7335 80.5742 43.3923 80.5742 40.0314C80.5742 36.6704 82.5264 35.2345 84.8363 35.2345C87.1461 35.2345 89.1133 36.6547 89.1133 40.0314ZM86.3861 39.984C86.3861 39.1635 86.2371 37.4909 84.8363 37.4909C83.4354 37.4909 83.3013 39.1793 83.3013 39.984C83.3013 40.7888 83.3758 42.4771 84.8363 42.4771C86.2967 42.4771 86.3861 40.8046 86.3861 39.984ZM115.371 35.4397C114.433 35.2819 113.479 35.2819 112.54 35.4397L110.871 38.5166L109.202 35.4397C108.263 35.2819 107.309 35.2819 106.37 35.4397L109.515 41.2148V44.5126C110.424 44.6704 111.333 44.6704 112.227 44.5126V41.2148L115.371 35.4397ZM106.728 39.4633C106.728 39.984 106.609 40.8992 106.609 40.8992H101.497C101.497 40.8992 101.572 42.3194 103.241 42.3194C104.627 42.3194 105.685 41.8302 105.685 41.8302C106.013 42.556 106.192 43.3292 106.251 44.1813C106.251 44.1813 104.94 44.7493 103.256 44.7493C100.827 44.7493 98.7552 43.5659 98.7552 40.0629C98.7552 37.8065 99.8282 35.2503 103.002 35.2503C105.61 35.2345 106.728 37.3489 106.728 39.4633ZM104.239 38.9426C104.239 38.9426 104.224 37.3963 102.883 37.3963C101.482 37.3963 101.467 38.9426 101.467 38.9426H104.239ZM90.1564 35.8341V44.5284C91.0655 44.6862 91.9895 44.6862 92.8985 44.5284V37.8381C92.8985 37.8381 93.3009 37.7592 93.5989 37.7592C94.4633 37.7592 94.9849 38.0906 94.9849 39.5896V44.5284C95.8939 44.6862 96.8179 44.6862 97.7269 44.5284C97.7269 44.5284 97.7269 39.4949 97.7269 39.0373C97.7418 33.3253 90.1564 35.8341 90.1564 35.8341Z" fill="black"/>
</svg>
