<svg width="180" height="72" viewBox="0 0 180 72" fill="none" xmlns="http://www.w3.org/2000/svg">
<g clip-path="url(#clip0_501_125)">
<path d="M22.3875 40.4463C23.205 38.9838 23.6737 37.3 23.6737 35.5075C23.6737 33.715 23.2087 32.0313 22.3912 30.5725L25.005 28.3525C26.3062 30.4263 27.0562 32.8788 27.0562 35.5075C27.0562 38.1363 26.3062 40.5888 25.005 42.6625L22.3912 40.4425L22.3875 40.4463Z" fill="#F08B18"/>
<path d="M46.7625 45.4375C44.8125 45.4375 43.0425 45.0138 41.46 44.17C39.8963 43.3075 38.6625 42.1188 37.7588 40.6113C36.8738 39.1038 36.4313 37.4013 36.4313 35.5075C36.4313 33.6138 36.8813 31.9113 37.785 30.4038C38.6888 28.8963 39.9225 27.7188 41.4863 26.875C43.0688 26.0125 44.835 25.5775 46.7888 25.5775C48.3713 25.5775 49.8188 25.855 51.1238 26.4063C52.4325 26.9575 53.535 27.7563 54.4388 28.8063L52.1175 30.985C50.7188 29.4775 48.9975 28.7238 46.9538 28.7238C45.6263 28.7238 44.4413 29.0163 43.3913 29.605C42.3413 30.175 41.5238 30.9738 40.935 32.005C40.3463 33.0363 40.05 34.2025 40.05 35.5075C40.05 36.8125 40.3463 37.9788 40.935 39.01C41.5238 40.0413 42.345 40.8475 43.3913 41.4363C44.4413 42.0063 45.63 42.2913 46.9538 42.2913C48.9975 42.2913 50.7188 41.53 52.1175 40.0038L54.4388 42.2088C53.5388 43.255 52.4213 44.0575 51.0975 44.6088C49.7888 45.16 48.345 45.4375 46.7625 45.4375V45.4375Z" fill="#5D9922"/>
<path d="M70.0163 40.6937H60.3488L58.4438 45.16H54.7426L63.4426 25.855H66.9788L75.7051 45.16H71.9476L70.0163 40.6937V40.6937ZM68.8276 37.8812L65.1826 29.44L61.5638 37.8812H68.8276Z" fill="#5D9922"/>
<path d="M90.81 45.16L86.8613 39.505C86.6963 39.5237 86.4488 39.5312 86.115 39.5312H81.75V45.1562H78.1613V25.855H86.115C87.7913 25.855 89.2463 26.1325 90.48 26.6837C91.7325 27.235 92.6888 28.0262 93.3525 29.0537C94.0163 30.085 94.3463 31.3075 94.3463 32.7212C94.3463 34.135 93.9863 35.425 93.27 36.4712C92.5688 37.5175 91.5563 38.3012 90.2325 38.815L94.68 45.16H90.8138H90.81ZM90.7275 32.7212C90.7275 31.4912 90.3225 30.5425 89.5125 29.8787C88.7025 29.215 87.5138 28.885 85.95 28.885H81.7538V36.58H85.95C87.5138 36.58 88.7025 36.25 89.5125 35.5862C90.3225 34.9075 90.7275 33.9512 90.7275 32.7175V32.7212Z" fill="#5D9922"/>
<path d="M110.899 40.6937H101.231L99.3262 45.16H95.625L104.325 25.855H107.861L116.587 45.16H112.83L110.895 40.6937H110.899ZM109.71 37.8812L106.065 29.44L102.446 37.8812H109.71Z" fill="#5D9922"/>
<path d="M136.226 25.855V45.16H133.271L122.61 32.0875V45.16H119.047V25.855H122.002L132.664 38.9275V25.855H136.226Z" fill="#5D9922"/>
<path d="M153.641 35.2862H157.039V42.9812C156.045 43.7725 154.886 44.38 153.559 44.8C152.231 45.2237 150.87 45.4337 149.471 45.4337C147.503 45.4337 145.725 45.01 144.143 44.1662C142.56 43.3037 141.315 42.115 140.415 40.6075C139.511 39.1 139.061 37.3975 139.061 35.5037C139.061 33.61 139.511 31.9075 140.415 30.4C141.315 28.8925 142.56 27.715 144.143 26.8712C145.744 26.0087 147.54 25.5737 149.528 25.5737C151.148 25.5737 152.621 25.84 153.945 26.3725C155.269 26.905 156.383 27.6887 157.286 28.7162L155.021 30.9212C153.548 29.4512 151.77 28.7162 149.693 28.7162C148.331 28.7162 147.116 29.0012 146.048 29.5712C144.998 30.1412 144.169 30.94 143.561 31.9712C142.973 33.0025 142.676 34.1762 142.676 35.5C142.676 36.8237 142.973 37.945 143.561 38.9762C144.169 40.0075 144.998 40.8137 146.048 41.4025C147.116 41.9912 148.32 42.2837 149.666 42.2837C151.178 42.2837 152.501 41.9537 153.645 41.29V35.2787L153.641 35.2862Z" fill="#5D9922"/>
<path d="M174.311 40.6937H164.644L162.739 45.16H159.037L167.737 25.855H171.274L180 45.16H176.242L174.311 40.6937V40.6937ZM173.122 37.8812L169.477 29.44L165.859 37.8812H173.122Z" fill="#5D9922"/>
<path d="M13.5262 22C16.9425 22 20.0663 23.2637 22.4475 25.3525L19.8337 27.5725C18.1012 26.2 15.9112 25.3787 13.5262 25.3787C7.92375 25.3787 3.3825 29.9162 3.3825 35.5112C3.3825 41.1062 7.92375 45.6437 13.5262 45.6437C15.9075 45.6437 18.1012 44.8225 19.8337 43.45L22.4475 45.67C20.0663 47.7587 16.9463 49.0225 13.53 49.0225C6.05625 49.015 0 42.97 0 35.5075C0 28.045 6.05625 22 13.5262 22Z" fill="#5D9922"/>
<path d="M19.3238 35.5075C19.3238 38.7063 16.7288 41.2975 13.5263 41.2975C10.3238 41.2975 7.72876 38.7063 7.72876 35.5075C7.72876 32.3088 10.3238 29.7175 13.5263 29.7175C16.7288 29.7175 19.3238 32.3088 19.3238 35.5075Z" fill="#5D9922"/>
</g>
<defs>
<clipPath id="clip0_501_125">
<rect width="180" height="72" fill="white"/>
</clipPath>
</defs>
</svg>
