<svg width="180" height="72" viewBox="0 0 180 72" fill="none" xmlns="http://www.w3.org/2000/svg">
<path fill-rule="evenodd" clip-rule="evenodd" d="M9.54986 41.1499C7.05476 39.5158 5.37406 36.6317 5.37406 33.3689C5.33775 28.1245 9.3268 23.8657 14.2548 23.8657C16.864 23.8657 20.1112 25.1573 21.1176 27.6265H27.1245C25.9677 22.8749 20.2202 19 14.2496 19C6.41671 19 0 25.4219 0 33.3689C0 39.4951 4.00461 44.7135 9.54986 46.638V41.1499Z" fill="#2156DF"/>
<path fill-rule="evenodd" clip-rule="evenodd" d="M50.2392 46.9541H55.0478V35.8532C55.0478 33.3063 57.0398 31.2158 59.483 31.2158V26.542C57.8646 26.542 55.8726 27.4186 55.0478 28.5184V27.1126H50.2392V46.9593V46.9541Z" fill="#2156DF"/>
<path fill-rule="evenodd" clip-rule="evenodd" d="M104.706 27.2738V29.2346C103.482 27.8392 100.919 26.7083 98.9896 26.7083C93.2732 26.7083 88.8536 31.3873 88.8536 37.0778C88.8536 42.7683 93.2732 47.5251 98.9896 47.5251C101.07 47.5251 103.632 46.3942 104.706 44.9988V46.9596H109.458V27.2738H104.706ZM121.829 31.3873C124.874 31.3873 127.323 33.9498 127.323 37.1193C127.323 40.2887 124.874 42.8513 121.866 42.8513C118.857 42.8513 116.409 40.2887 116.409 37.1193C116.409 33.9498 118.821 31.3873 121.829 31.3873ZM111.657 27.2738V53.864H116.409V44.9988C117.488 46.3942 120.045 47.5251 122.125 47.5251C127.733 47.5251 132.261 42.8461 132.261 37.0778C132.261 31.3095 127.733 26.7083 122.125 26.7083C120.195 26.7083 117.633 27.8392 116.409 29.2346V27.2738H111.657ZM134.149 20.5251V25.204H138.901V20.5199H134.149V20.5251ZM134.149 27.2738V46.9596H138.901V27.2738H134.149ZM143.071 27.2738H140.4V31.3873H143.071V46.9648H147.823V31.3873H150.495V27.2738H147.823V20.5199H143.071V27.2686V27.2738ZM166.897 27.2738V29.2346C165.673 27.8392 163.11 26.7083 161.18 26.7083C155.464 26.7083 151.044 31.3873 151.044 37.0778C151.044 42.7683 155.464 47.5251 161.18 47.5251C163.261 47.5251 165.823 46.3942 166.897 44.9988V46.9596H171.648V27.2738H166.897ZM161.403 31.3873C164.448 31.3873 166.897 33.9498 166.897 37.1193C166.897 40.2887 164.448 42.8513 161.44 42.8513C158.431 42.8513 155.983 40.2887 155.983 37.1193C155.983 33.9498 158.395 31.3873 161.403 31.3873ZM175.248 20.5251V46.9648H180V20.5199H175.248V20.5251ZM74.8997 42.7008C70.0755 42.7008 66.0657 38.5873 66.0657 33.5712C66.0294 28.3683 70.0029 24.1406 74.8997 24.1406C77.4986 24.1406 80.7303 25.4219 81.7314 27.8755H87.7072C86.5556 23.1602 80.8392 19.3164 74.8997 19.3164C67.1032 19.3164 60.7176 25.6916 60.7176 33.5712C60.7176 41.4507 67.1032 47.5251 74.8997 47.5251C80.5072 47.5251 86.2599 43.7176 87.6709 38.8104H81.7314C80.5798 41.3366 77.5712 42.6957 74.8997 42.6957V42.7008ZM99.2075 31.3873C102.252 31.3873 104.701 33.9498 104.701 37.1193C104.701 40.2887 102.252 42.8513 99.2438 42.8513C96.2352 42.8513 93.7868 40.2887 93.7868 37.1193C93.7868 33.9498 96.1989 31.3873 99.2075 31.3873Z" fill="#191A1C"/>
<path fill-rule="evenodd" clip-rule="evenodd" d="M37.8156 31.5068C40.8657 31.5068 43.3245 34.059 43.3245 37.2129C43.3245 40.3668 40.8709 42.9189 37.8571 42.9189C34.8432 42.9189 32.3896 40.3668 32.3896 37.2129C32.3896 34.059 34.8069 31.5068 37.8207 31.5068H37.8156ZM43.3245 27.4141V29.3645C42.0951 27.9743 39.5274 26.8486 37.5925 26.8486C31.8605 26.8486 27.4357 31.5068 27.4357 37.1766C27.4357 42.8463 31.8657 47.5772 37.5925 47.5772C39.6778 47.5772 42.2455 46.4515 43.3245 45.0613V47.0117H48.0864V27.4141H43.3245Z" fill="#2156DF"/>
<path fill-rule="evenodd" clip-rule="evenodd" d="M12.5533 46.1398C12.2888 46.1398 11.8219 45.8338 11.7233 45.6989C11.4744 45.3514 11.5833 45.0972 11.713 44.7756H13.2847C13.596 44.7756 13.6167 44.9831 14.0006 45.3877C14.1043 45.4966 14.2081 45.6419 14.3066 45.7612C14.4259 45.9064 14.5038 45.9479 14.6023 46.1346H12.5533V46.1398ZM22.6893 46.1398C22.7723 45.9894 23.4363 45.2217 23.5919 45.0505C23.7164 44.9156 23.7216 44.7756 23.9758 44.7756H25.5787C25.7135 45.1024 25.8173 45.3825 25.5527 45.7197C25.4542 45.8442 24.9925 46.1398 24.7383 46.1398H22.6893ZM15.204 45.175H22.0876C22.0669 45.5433 21.9061 45.7975 21.7141 45.9427C21.4288 46.1554 21.2265 46.145 20.8167 46.145H16.4438C16.0184 46.145 15.8421 46.145 15.5568 45.9323C15.37 45.7923 15.23 45.5329 15.204 45.1802V45.175ZM21.294 44.5162C20.4173 44.5318 19.5251 44.5162 18.6432 44.5162C17.7614 44.5162 16.8744 44.5318 15.9925 44.5162C15.2352 44.5058 14.9343 43.707 14.9084 42.9185H22.3833C22.347 43.7122 22.0461 44.5058 21.2888 44.5162H21.294ZM25.1066 41.7202C25.7602 41.5491 26.362 42.3479 26.0715 43.0223C25.7758 43.707 25.117 43.6499 24.2248 43.6136C23.9239 43.6032 23.3844 43.5565 23.2081 43.3854C22.736 42.9289 24.4012 41.907 25.1066 41.7202ZM12.6415 43.6136C12.3147 43.6136 11.9308 43.6395 11.6559 43.5099C10.8259 43.126 11.0179 41.6943 12.0657 41.6943C12.5637 41.6943 14.7942 43.0171 13.9746 43.4476C13.6634 43.6084 13.0306 43.6136 12.6363 43.6136H12.6415ZM13.0876 40.3352C13.1602 40.2159 13.2329 40.1744 13.3366 40.0862C13.4248 40.0084 13.4974 39.9306 13.5804 39.8424L14.5712 38.862C15.3804 38.0424 15.313 38.1047 16.7239 38.1047H20.5833C22.0357 38.1047 21.9216 38.0736 22.736 38.8931C22.902 39.0643 23.0628 39.1992 23.234 39.3652L23.955 40.0966C24.0536 40.1796 24.121 40.2263 24.1885 40.3352H13.0876ZM10.468 42.7058V45.3514C10.5199 45.4603 10.5251 45.6159 10.5666 45.7352C10.7637 46.3577 10.9971 46.2384 10.9919 46.6845C10.9919 47.1877 10.8986 47.7687 11.4484 48.0643C11.713 48.2044 12.7712 48.2251 13.1135 48.1525C13.6375 48.0436 13.8346 47.6857 13.8501 47.0787H23.4311C23.4311 47.4055 23.4571 47.6027 23.6127 47.8257C24.0536 48.4534 25.6824 48.1421 25.838 48.054C26.3308 47.7635 26.2686 47.3122 26.2738 46.6534C26.2738 46.4355 26.2945 46.4355 26.3983 46.311C26.7199 45.922 26.7458 45.4655 26.7977 45.3514V42.6591L26.7718 42.6073C26.7458 42.5346 26.7718 42.6073 26.751 42.5554L26.6732 42.2338C26.6317 42.0885 26.6006 41.99 26.5435 41.8447C26.2219 41.0459 25.8173 40.7658 25.2986 40.2419C25.283 40.2263 25.2519 40.19 25.2363 40.1744C25.2 40.1329 25.2156 40.1537 25.2 40.1174C25.5994 39.9254 25.7447 39.9151 25.9833 39.6142C26.2323 39.3029 26.2167 38.9502 25.8951 38.7479C25.615 38.5715 25.2208 38.4989 24.8525 38.53C24.4323 38.5663 24.3078 38.7998 24.2767 39.2096L23.2807 38.2603C22.9228 37.9024 22.7723 37.6586 22.2329 37.4044C21.7297 37.1658 21.102 37.228 20.5055 37.228H16.7084C16.1222 37.228 15.5101 37.171 15.0121 37.4044C14.4726 37.6586 14.3118 37.9179 13.9487 38.2759L12.9683 39.2096C12.932 38.7894 12.8023 38.5508 12.3614 38.53C11.5055 38.4834 10.6963 38.945 11.272 39.6401C11.5107 39.9254 11.6559 39.9358 12.0398 40.1225L11.9723 40.2107C11.8115 40.3871 11.4432 40.7035 11.2617 40.9214L11.0386 41.2171C10.4732 42.1093 10.6184 42.3427 10.4473 42.711L10.468 42.7058Z" fill="#2156DF"/>
</svg>
