<svg width="180" height="72" viewBox="0 0 180 72" fill="none" xmlns="http://www.w3.org/2000/svg">
<g clip-path="url(#clip0_826_2721)">
<path d="M74.1382 41.4095C73.3665 42.033 72.4075 42.379 71.4155 42.3918C70.9601 42.4052 70.5069 42.324 70.0844 42.1534C69.662 41.9829 69.2795 41.7266 68.9611 41.4007C68.6427 41.0749 68.3953 40.6866 68.2345 40.2603C68.0737 39.834 68.003 39.3791 68.0269 38.9241C68.0033 38.4714 68.0749 38.0188 68.237 37.5955C68.3991 37.1722 68.6482 36.7876 68.9681 36.4664C69.288 36.1453 69.6716 35.8948 70.0943 35.731C70.517 35.5673 70.9693 35.4939 71.4221 35.5157C72.4192 35.5126 73.3889 35.842 74.1778 36.4519L75.8918 33.538C74.4468 32.3814 72.6466 31.7596 70.7958 31.7777C66.9589 31.7777 63.8208 34.4873 63.8208 39.0296C63.8208 43.7762 67.2753 46.1166 70.7694 46.1166C72.7199 46.0913 74.6018 45.3926 76.0962 44.1388L74.1382 41.4095Z" fill="#00475D"/>
<path d="M90.3626 43.0642C89.6506 42.6357 89.4396 42.1874 89.4396 40.9941V36.8144C89.4396 33.472 87.3696 31.7908 83.7173 31.7908C81.707 31.7481 79.73 32.3084 78.0411 33.3994L79.2475 36.142C80.3524 35.5387 81.5883 35.215 82.8471 35.1992C84.2842 35.1992 85.2929 35.7069 85.2929 36.966V37.3814C84.4988 37.2025 83.6874 37.1118 82.8734 37.1111C79.3925 37.1111 77.1708 38.924 77.1708 41.6731C77.1708 44.4223 79.3596 46.1166 81.9307 46.1166C82.6604 46.1514 83.3872 46.0039 84.0456 45.6873C84.704 45.3708 85.2731 44.8952 85.7016 44.3036C86.1038 45.5694 87.6794 46.077 89.8879 46.077L90.3626 43.0642ZM85.2929 40.1041V40.7172C85.2929 42.0951 84.0403 42.8137 82.8471 42.8137C81.99 42.8137 81.133 42.4313 81.133 41.416C81.133 40.4008 81.9373 39.88 83.4997 39.88C84.1042 39.8836 84.7061 39.9588 85.2929 40.1041V40.1041Z" fill="#00475D"/>
<path d="M93.593 41.4361L91.8789 43.8028C93.4348 45.1213 94.951 46.1168 97.5947 46.1168C100.812 46.1168 103.106 44.6401 103.106 41.5943C103.106 36.3993 96.3948 38.1134 96.3948 36.0038C96.3948 35.4039 96.9288 35.0149 97.8979 35.0149C99.0856 35.0764 100.237 35.4444 101.24 36.0829L102.658 33.6436C101.24 32.4182 99.4224 31.7545 97.5485 31.7779C94.7137 31.7779 92.3206 33.136 92.3206 36.2807C92.3206 41.502 98.9132 39.6099 98.9132 41.7459C98.9132 42.4052 98.2539 42.748 97.2387 42.748C95.9195 42.6857 94.6494 42.2287 93.593 41.4361V41.4361Z" fill="#00475D"/>
<path d="M118.071 45.8399V37.4409C118.071 34.0259 116.502 31.7911 113.199 31.7911C112.542 31.7546 111.885 31.8527 111.267 32.0795C110.649 32.3062 110.084 32.6567 109.606 33.1096V25.3501L105.42 26.0753V45.8531H109.626V37.9749C109.597 37.6642 109.636 37.351 109.739 37.0565C109.842 36.762 110.008 36.4933 110.224 36.2686C110.441 36.0439 110.703 35.8686 110.994 35.7546C111.284 35.6407 111.596 35.5907 111.907 35.6082C113.226 35.6082 113.885 36.4322 113.885 37.8035V45.8399H118.071Z" fill="#00475D"/>
<path d="M132.008 45.8399H133.748V25.3501L131.698 25.7786V34.1644C131.183 33.4112 130.486 32.7993 129.673 32.3847C128.86 31.9701 127.956 31.766 127.044 31.7911C123.563 31.7911 120.642 34.4808 120.642 39.0429C120.642 43.7236 123.734 46.1299 126.978 46.1299C127.932 46.1414 128.874 45.914 129.718 45.4684C130.562 45.0228 131.281 44.3731 131.81 43.5786L132.008 45.8399ZM127.228 44.2247C124.591 44.2247 122.693 42.181 122.693 38.9836C122.693 35.7862 124.539 33.7095 127.242 33.7095C129.945 33.7095 131.771 35.6873 131.771 38.9111C131.771 41.9502 130.01 44.2247 127.228 44.2247Z" fill="#00475D"/>
<path d="M137.75 45.8395H139.794V39.0294C139.794 36.2407 140.875 33.7553 143.604 33.7553C144.07 33.7551 144.532 33.8263 144.976 33.9663L145.285 31.9885C144.768 31.8447 144.233 31.7737 143.697 31.7775C142.861 31.7477 142.035 31.9716 141.329 32.42C140.623 32.8684 140.07 33.5201 139.741 34.2893V34.2893L139.517 32.0544H137.776L137.75 45.8395Z" fill="#00475D"/>
<path d="M148.424 29.0416C148.72 29.0508 149.012 28.9713 149.264 28.8133C149.515 28.6553 149.713 28.4259 149.833 28.1546C149.952 27.8833 149.989 27.5824 149.936 27.2904C149.884 26.9984 149.746 26.7286 149.54 26.5156C149.333 26.3026 149.068 26.156 148.778 26.0947C148.488 26.0334 148.186 26.0601 147.911 26.1713C147.636 26.2826 147.4 26.4734 147.234 26.7194C147.069 26.9653 146.98 27.2551 146.98 27.5517C146.974 27.9405 147.123 28.3156 147.394 28.5948C147.665 28.874 148.035 29.0347 148.424 29.0416V29.0416ZM147.395 45.8396H149.439V32.0676H147.395V45.8396Z" fill="#00475D"/>
<path d="M154.35 32.0679H152.129L157.35 45.8398H159.479L164.892 32.0679H162.795L158.477 43.4994L154.35 32.0679Z" fill="#00475D"/>
<path d="M177.958 44.3367L177.022 42.9852C175.874 43.8267 174.49 44.2877 173.067 44.3037C170.285 44.3037 168.452 42.5237 168.247 39.6889H178.98C179.019 39.3608 179.039 39.0306 179.04 38.7C179.04 34.8632 176.594 31.8569 172.783 31.8569C169.098 31.8569 166.191 34.6654 166.191 39.1088C166.191 43.6709 169.25 46.1695 172.981 46.1695C174.804 46.1656 176.568 45.5163 177.958 44.3367V44.3367ZM168.254 37.9815C168.505 35.4829 170.285 33.6369 172.757 33.6369C175.394 33.6369 176.851 35.7004 176.956 37.9815H168.254Z" fill="#00475D"/>
<path fill-rule="evenodd" clip-rule="evenodd" d="M39.2898 15.2964C40.4581 15.2939 41.5804 15.7509 42.4147 16.5688L53.2727 27.2884C53.6803 27.6928 54.0038 28.174 54.2246 28.7041C54.4454 29.2342 54.5591 29.8028 54.5591 30.377C54.5591 30.9512 54.4454 31.5198 54.2246 32.0499C54.0038 32.58 53.6803 33.0612 53.2727 33.4656L30.9765 55.5113C30.1433 56.329 29.0224 56.7871 27.8549 56.7871C26.6875 56.7871 25.5666 56.329 24.7333 55.5113L13.8753 44.7851C13.4669 44.3811 13.1427 43.9001 12.9214 43.3699C12.7001 42.8398 12.5862 42.271 12.5862 41.6965C12.5862 41.122 12.7001 40.5532 12.9214 40.023C13.1427 39.4929 13.4669 39.0119 13.8753 38.6079L36.1715 16.549C37.0073 15.74 38.1266 15.2904 39.2898 15.2964V15.2964ZM46.0472 26.6291C45.7857 26.6352 45.5323 26.5381 45.3418 26.3588L41.05 22.1132C40.958 22.0263 40.8848 21.9216 40.8347 21.8054C40.7846 21.6892 40.7588 21.564 40.7588 21.4374C40.7588 21.3109 40.7846 21.1857 40.8347 21.0695C40.8848 20.9533 40.958 20.8486 41.05 20.7617C41.138 20.6694 41.2439 20.5958 41.3612 20.5456C41.4785 20.4954 41.6048 20.4695 41.7323 20.4695C41.8599 20.4695 41.9862 20.4954 42.1035 20.5456C42.2208 20.5958 42.3266 20.6694 42.4147 20.7617L46.713 25.0073C46.8 25.0937 46.8689 25.1964 46.916 25.3096C46.963 25.4227 46.9873 25.5441 46.9873 25.6666C46.9873 25.7891 46.963 25.9105 46.916 26.0236C46.8689 26.1367 46.8 26.2395 46.713 26.3259C46.5361 26.5057 46.299 26.6137 46.0472 26.6291V26.6291ZM48.7765 27.4004C48.7791 27.5942 48.724 27.7844 48.6181 27.9467C48.5122 28.1091 48.3603 28.2362 48.1819 28.3119C48.0035 28.3875 47.8066 28.4084 47.6162 28.3717C47.4259 28.335 47.2509 28.2425 47.1133 28.1059C46.9758 27.9693 46.8821 27.7949 46.8441 27.6048C46.8061 27.4148 46.8256 27.2177 46.9001 27.0388C46.9746 26.8598 47.1006 26.7071 47.2622 26.6001C47.4238 26.4931 47.6136 26.4366 47.8074 26.4379C48.0633 26.4379 48.3088 26.5391 48.4904 26.7194C48.6719 26.8998 48.7748 27.1446 48.7765 27.4004Z" fill="#40BAB5"/>
<path d="M4.50727 33.7557L10.8889 40.0648C11.1823 38.9988 11.7533 38.0296 12.5436 37.2563L21.503 28.3432C18.6682 27.8685 15.6619 26.5038 14.7719 25.8446L16.0245 24.3415C17.0398 25.126 22.0963 27.1631 24.496 26.4379L25.1553 26.2467L25.5508 26.7873C28.7878 31.0725 35.5056 31.2307 37.0681 30.7429C37.1723 30.7078 37.2662 30.6472 37.341 30.5666C37.4159 30.486 37.4693 30.388 37.4966 30.2814C37.5334 30.1643 37.5342 30.0389 37.499 29.9214C37.4637 29.8039 37.394 29.6996 37.2988 29.6221L28.7285 21.1704L28.6889 21.0979L23.0259 15.4678C22.5207 14.9708 21.9222 14.5786 21.2648 14.3138C20.6075 14.0491 19.9042 13.917 19.1956 13.9252C17.7679 13.9176 16.3946 14.4717 15.3719 15.4678L4.50727 26.2467C3.5189 27.2464 2.96457 28.5954 2.96457 30.0012C2.96457 31.407 3.5189 32.756 4.50727 33.7557V33.7557Z" fill="#F9A056"/>
<path d="M25.1157 50.5073C25.3198 50.2999 25.563 50.1349 25.8311 50.0218C26.0993 49.9086 26.3871 49.8496 26.6781 49.8481C26.9706 49.8393 27.2616 49.8936 27.5312 50.0074C27.8008 50.1212 28.0428 50.2917 28.2406 50.5073L31.1347 53.3619C31.3382 53.5647 31.4997 53.8056 31.6099 54.0709C31.7201 54.3362 31.7768 54.6206 31.7768 54.9079C31.7768 55.1952 31.7201 55.4796 31.6099 55.7449C31.4997 56.0102 31.3382 56.2511 31.1347 56.4539L30.6601 56.9153C30.2444 57.3248 29.6844 57.5543 29.1009 57.5543C28.5175 57.5543 27.9574 57.3248 27.5418 56.9153L24.6476 54.0608C24.4441 53.858 24.2826 53.6171 24.1724 53.3518C24.0622 53.0865 24.0055 52.8021 24.0055 52.5148C24.0055 52.2275 24.0622 51.9431 24.1724 51.6778C24.2826 51.4125 24.4441 51.1716 24.6476 50.9688L25.1157 50.5073Z" fill="#F9A056"/>
<path d="M30.1524 44.9036C29.8208 44.8984 29.4915 44.9592 29.1836 45.0826C28.8757 45.206 28.5955 45.3894 28.3593 45.6222C27.891 46.095 27.6284 46.7335 27.6284 47.3989C27.6284 48.0643 27.891 48.7028 28.3593 49.1756L32.2621 53.0389C32.744 53.5049 33.3882 53.7654 34.0586 53.7654C34.729 53.7654 35.3731 53.5049 35.855 53.0389C36.3232 52.5661 36.5859 51.9276 36.5859 51.2622C36.5859 50.5968 36.3232 49.9583 35.855 49.4855L31.9852 45.6222C31.4877 45.1586 30.8325 44.9017 30.1524 44.9036V44.9036Z" fill="#F9A056"/>
<path d="M32.4598 40.4209C32.695 40.1857 32.9747 39.9998 33.2827 39.8742C33.5906 39.7485 33.9205 39.6856 34.253 39.6891C34.925 39.691 35.5701 39.9533 36.0528 40.4209L40.8522 45.1741C41.3204 45.6469 41.5831 46.2854 41.5831 46.9508C41.5831 47.6162 41.3204 48.2548 40.8522 48.7275C40.3703 49.1936 39.7261 49.4541 39.0557 49.4541C38.3853 49.4541 37.7412 49.1936 37.2593 48.7275L32.4598 43.9743C31.9916 43.5015 31.729 42.863 31.729 42.1976C31.729 41.5322 31.9916 40.8937 32.4598 40.4209V40.4209Z" fill="#F9A056"/>
<path d="M39.448 36.3265C39.1158 36.3214 38.786 36.3829 38.478 36.5075C38.17 36.632 37.8901 36.8171 37.6548 37.0517C37.1866 37.5244 36.924 38.163 36.924 38.8284C36.924 39.4938 37.1866 40.1323 37.6548 40.6051L41.5576 44.4683C42.0396 44.9343 42.6837 45.1949 43.3541 45.1949C44.0245 45.1949 44.6687 44.9343 45.1506 44.4683C45.6188 43.9955 45.8815 43.357 45.8815 42.6916C45.8815 42.0262 45.6188 41.3877 45.1506 40.9149L41.2148 37.0517C40.7372 36.5977 40.1069 36.3389 39.448 36.3265Z" fill="#F9A056"/>
<path d="M45.3418 26.3588C45.5323 26.5381 45.7857 26.6352 46.0472 26.6291C46.2923 26.621 46.5262 26.5251 46.7064 26.3588C46.7934 26.2724 46.8623 26.1697 46.9094 26.0566C46.9565 25.9434 46.9807 25.8221 46.9807 25.6995C46.9807 25.577 46.9565 25.4557 46.9094 25.3425C46.8623 25.2294 46.7934 25.1267 46.7064 25.0403L42.4081 20.7947C42.32 20.7023 42.2142 20.6288 42.0969 20.5786C41.9796 20.5283 41.8533 20.5024 41.7257 20.5024C41.5982 20.5024 41.4719 20.5283 41.3546 20.5786C41.2373 20.6288 41.1314 20.7023 41.0434 20.7947C40.9514 20.8815 40.8782 20.9863 40.8281 21.1025C40.778 21.2187 40.7522 21.3439 40.7522 21.4704C40.7522 21.5969 40.778 21.7221 40.8281 21.8383C40.8782 21.9545 40.9514 22.0593 41.0434 22.1461L45.3418 26.3588Z" fill="#00475D"/>
<path d="M48.7765 27.4005C48.7791 27.5943 48.724 27.7845 48.6181 27.9468C48.5122 28.1092 48.3603 28.2363 48.1819 28.3119C48.0035 28.3876 47.8065 28.4084 47.6162 28.3718C47.4259 28.3351 47.2508 28.2425 47.1133 28.106C46.9758 27.9694 46.8821 27.795 46.8441 27.6049C46.8061 27.4148 46.8256 27.2178 46.9001 27.0388C46.9745 26.8599 47.1006 26.7072 47.2622 26.6002C47.4238 26.4932 47.6136 26.4367 47.8074 26.438C48.0633 26.438 48.3088 26.5392 48.4903 26.7195C48.6719 26.8998 48.7748 27.1446 48.7765 27.4005Z" fill="#00475D"/>
<path fill-rule="evenodd" clip-rule="evenodd" d="M3.13601 35.1266L10.6977 42.629C10.9004 43.9769 11.5369 45.222 12.5107 46.1758L23.3621 56.9151C24.2465 57.7948 25.3697 58.3954 26.5925 58.6424C27.3172 59.1842 28.1994 59.4736 29.1042 59.4665C30.2088 59.454 31.2682 59.0255 32.0709 58.2666L32.539 57.8051C33.1218 57.2337 33.5212 56.5015 33.6861 55.7021C33.8113 55.7087 33.9367 55.7087 34.0619 55.7021C34.6556 55.7054 35.2441 55.5905 35.793 55.3641C36.342 55.1377 36.8404 54.8044 37.2593 54.3836C38.0782 53.5811 38.5513 52.4906 38.5778 51.3444C38.7381 51.3541 38.8988 51.3541 39.059 51.3444C40.249 51.3484 41.3946 50.8925 42.2565 50.072C43.0608 49.2838 43.5326 48.2175 43.575 47.0922C44.698 47.0401 45.761 46.5697 46.5548 45.7736C47.0859 45.2464 47.4745 44.5931 47.6844 43.8748C47.8942 43.1565 47.9184 42.3967 47.7547 41.6665L54.6373 34.8563C55.2308 34.275 55.7022 33.5811 56.0241 32.8153C56.3459 32.0495 56.5117 31.2271 56.5117 30.3964C56.5117 29.5657 56.3459 28.7434 56.0241 27.9775C55.7022 27.2117 55.2308 26.5178 54.6373 25.9365L43.7793 15.1972C43.1952 14.5991 42.4967 14.1245 41.7254 13.8017C40.9541 13.479 40.1259 13.3146 39.2898 13.3183C38.4563 13.3163 37.6307 13.4789 36.8602 13.7968C36.0898 14.1147 35.3897 14.5816 34.8002 15.1708L30.1327 19.7856L24.3773 14.0896C22.9901 12.7323 21.1265 11.9722 19.1857 11.9722C17.2449 11.9722 15.3812 12.7323 13.994 14.0896L3.13601 24.8553C2.46027 25.529 1.92413 26.3294 1.55831 27.2107C1.19249 28.092 1.00418 29.0368 1.00418 29.991C1.00418 30.9452 1.19249 31.89 1.55831 32.7712C1.92413 33.6525 2.46027 34.4529 3.13601 35.1266V35.1266ZM28.7482 21.1635L23.0193 15.4675C22.5141 14.9705 21.9156 14.5783 21.2582 14.3135C20.6009 14.0487 19.8976 13.9167 19.189 13.9248C17.7613 13.9173 16.388 14.4714 15.3653 15.4675L4.50727 26.2464C3.51889 27.246 2.96456 28.5951 2.96456 30.0009C2.96456 31.4066 3.51889 32.7557 4.50727 33.7553L10.8889 40.0645C11.1823 38.9984 11.7533 38.0293 12.5436 37.256L21.5162 28.3428C18.6747 27.8748 15.6619 26.5035 14.7719 25.8442L16.0245 24.3411C18.2333 25.6491 20.716 26.4255 23.2764 26.609C23.6811 26.6153 24.0847 26.5665 24.4762 26.4639L25.1355 26.2728L25.531 26.8133L25.5904 26.8859L25.6497 26.965C28.946 31.1051 35.5056 31.2502 37.0483 30.7491C37.1526 30.7141 37.2464 30.6535 37.3212 30.5729C37.3961 30.4923 37.4496 30.3942 37.4768 30.2876C37.5136 30.1706 37.5144 30.0452 37.4792 29.9276C37.4439 29.8101 37.3742 29.7059 37.279 29.6284L28.7482 21.1635ZM31.5039 21.1635L38.6701 28.2505C38.9865 28.5627 39.2171 28.9512 39.3395 29.3785C39.4619 29.8058 39.472 30.2574 39.3689 30.6898C39.2714 31.1221 39.0616 31.521 38.7607 31.8463C38.4597 32.1715 38.0783 32.4116 37.6548 32.5423C36.8375 32.8141 35.977 32.9325 35.1167 32.8917C31.9852 32.8917 27.2649 31.883 24.3773 28.4813H24.1136L13.8753 38.6075C13.4669 39.0115 13.1427 39.4925 12.9214 40.0227C12.7001 40.5528 12.5862 41.1216 12.5862 41.6961C12.5862 42.2706 12.7001 42.8394 12.9214 43.3696C13.1427 43.8997 13.4669 44.3807 13.8753 44.7848L22.0963 52.8739C22.0399 52.2693 22.119 51.6598 22.3277 51.0896C22.5364 50.5194 22.8695 50.0029 23.3027 49.5776L23.7708 49.1161C24.3169 48.575 25.001 48.1942 25.7486 48.0151C25.6527 47.3304 25.7184 46.6327 25.9405 45.9779C26.1626 45.323 26.5349 44.7293 27.0276 44.2442C27.7867 43.4792 28.7947 43.0115 29.869 42.9256C29.7516 42.2249 29.8047 41.5061 30.0239 40.8302C30.2431 40.1543 30.6218 39.5411 31.1282 39.0426C31.6409 38.5359 32.2677 38.1595 32.956 37.945C33.6442 37.7305 34.3738 37.6841 35.0837 37.8098C35.2705 37.0308 35.6614 36.3157 36.2162 35.7379C36.771 35.1601 37.4697 34.7405 38.2405 34.5223C39.0112 34.3041 39.8262 34.2952 40.6015 34.4964C41.3769 34.6976 42.0846 35.1017 42.652 35.6672L46.5548 39.5305C46.6537 39.6293 46.746 39.7348 46.8317 39.8337L53.2727 33.4653C53.6803 33.0608 54.0038 32.5796 54.2246 32.0495C54.4454 31.5194 54.5591 30.9509 54.5591 30.3766C54.5591 29.8024 54.4454 29.2338 54.2246 28.7037C54.0038 28.1736 53.6803 27.6925 53.2727 27.288L42.4147 16.5487C41.5806 15.7325 40.4601 15.2754 39.2931 15.2754C38.1261 15.2754 37.0055 15.7325 36.1715 16.5487L31.5039 21.1635ZM27.5484 56.9151C27.964 57.3246 28.5241 57.5541 29.1075 57.5541C29.691 57.5541 30.251 57.3246 30.6667 56.9151L31.1413 56.4536C31.5161 56.0941 31.75 55.6124 31.8006 55.0956C31.4804 54.9054 31.1877 54.6725 30.9304 54.4033L27.0276 50.5401C26.8165 50.3403 26.6265 50.1194 26.4606 49.8808C25.9589 49.9441 25.4937 50.1767 25.1421 50.5401L24.6674 51.0016C24.4639 51.2043 24.3024 51.4452 24.1922 51.7105C24.082 51.9758 24.0253 52.2603 24.0253 52.5475C24.0253 52.8348 24.082 53.1192 24.1922 53.3845C24.3024 53.6498 24.4639 53.8908 24.6674 54.0935L27.5484 56.9151ZM32.9807 53.5331C33.454 53.7488 33.9814 53.817 34.494 53.7288C35.0067 53.6406 35.4809 53.4001 35.855 53.0387C36.1747 52.7251 36.4044 52.3316 36.5203 51.8991C36.6363 51.4667 36.6342 51.011 36.5143 50.5796C36.2994 50.4265 36.0986 50.2544 35.9144 50.0654L31.115 45.3517C30.9876 45.2303 30.8687 45.1003 30.759 44.9628C30.567 44.9151 30.37 44.8908 30.1722 44.8902C29.8364 44.8841 29.5027 44.9457 29.1912 45.0714C28.8797 45.1972 28.5967 45.3844 28.3593 45.622C27.8911 46.0948 27.6284 46.7333 27.6284 47.3987C27.6284 48.0641 27.8911 48.7026 28.3593 49.1754L32.2621 53.0387C32.4696 53.2458 32.7131 53.4133 32.9807 53.5331V53.5331ZM37.8658 49.1556C37.7675 49.1026 37.6728 49.0431 37.5823 48.9776C37.4673 48.8991 37.3593 48.8109 37.2593 48.7139L32.4599 43.9739C31.9916 43.5011 31.729 42.8626 31.729 42.1972C31.729 41.5318 31.9916 40.8933 32.4599 40.4205C32.695 40.1853 32.9747 39.9994 33.2827 39.8738C33.5906 39.7481 33.9205 39.6852 34.253 39.6887C34.5357 39.688 34.8165 39.7348 35.0837 39.8271C35.2761 40.6392 35.6917 41.3813 36.2836 41.9697L40.193 45.833C40.5869 46.2381 41.0575 46.5608 41.5774 46.7823C41.6038 47.1396 41.5527 47.4984 41.4276 47.834C41.3024 48.1697 41.1061 48.4744 40.8522 48.7271C40.6097 48.9712 40.3174 49.1601 39.9952 49.2809C39.652 49.4115 39.2853 49.469 38.9187 49.4497C38.552 49.4304 38.1934 49.3347 37.8658 49.1688V49.1556ZM44.4056 44.9628C44.7755 44.7989 45.1001 44.5477 45.3515 44.2307C45.6028 43.9137 45.7735 43.5404 45.8487 43.1428C45.9239 42.7453 45.9015 42.3355 45.7833 41.9486C45.6652 41.5616 45.4548 41.2092 45.1704 40.9215L41.2148 37.0516C40.7315 36.5891 40.0905 36.3275 39.4216 36.3199C39.0934 36.3191 38.7683 36.3834 38.465 36.509C38.1618 36.6346 37.8864 36.819 37.6548 37.0516C37.1866 37.5244 36.9239 38.1629 36.9239 38.8283C36.9239 39.4937 37.1866 40.1323 37.6548 40.605L41.5576 44.4683C41.6553 44.5672 41.7611 44.6576 41.8741 44.7386C42.243 44.9862 42.6685 45.1366 43.1111 45.1758C43.5536 45.215 43.9989 45.1417 44.4056 44.9628Z" fill="#00475D"/>
</g>
<defs>
<clipPath id="clip0_826_2721">
<rect width="178" height="47.4667" fill="white" transform="translate(1 12)"/>
</clipPath>
</defs>
</svg>
