<svg width="64" height="64" xmlns="http://www.w3.org/2000/svg"><path d="M21.479 34.572c.168.795.382 1.573.633 2.334l-.426.498a7.009 7.009 0 0 0-1.685 4.554V58c0 .552.449 1 1 1h9c.551 0 1-.448 1-1v-9.564a21.8 21.8 0 0 0 2 1.16V58c0 1.655-1.346 3-3 3h-9c-1.654 0-3-1.345-3-3V41.96c0-2.147.77-4.227 2.167-5.857zM21.577 25a21.958 21.958 0 0 0-.368 2H14.71c-1.55 0-3.14.695-4.052 1.771l-6.417 7.583a.988.988 0 0 0-.144 1.067.987.987 0 0 0 .908.579h9.996a1 1 0 1 1 0 2H5.386l-1.145 1.354a.988.988 0 0 0-.144 1.067.987.987 0 0 0 .908.579h9.996a1 1 0 1 1 0 2H5.386l-1.145 1.354a.988.988 0 0 0-.144 1.067.987.987 0 0 0 .908.579h9.996a1 1 0 1 1 0 2H5.386l-1.145 1.354a.988.988 0 0 0-.144 1.067.987.987 0 0 0 .908.579h9.996a1 1 0 1 1 0 2H5.386l-1.145 1.354a.988.988 0 0 0-.144 1.067.987.987 0 0 0 .908.579h9.996a1 1 0 1 1 0 2H5.005a2.971 2.971 0 0 1-2.722-1.738 2.97 2.97 0 0 1 .432-3.2l.534-.631a2.994 2.994 0 0 1-.966-1.169 2.97 2.97 0 0 1 .432-3.2l.534-.631a2.994 2.994 0 0 1-.966-1.169 2.97 2.97 0 0 1 .432-3.2l.534-.631a2.994 2.994 0 0 1-.966-1.169 2.97 2.97 0 0 1 .432-3.2l.534-.631a2.994 2.994 0 0 1-.966-1.169 2.97 2.97 0 0 1 .432-3.2l6.417-7.583C10.426 25.949 12.563 25 14.71 25zm39.667 17.298.004.014a2.96 2.96 0 0 1-.631 2.626l-.533.63a3.032 3.032 0 0 1 1.164 1.744 2.96 2.96 0 0 1-.631 2.626l-5.219 6.166A10.975 10.975 0 0 1 47.001 60h-11a1 1 0 1 1 0-2h11a8.981 8.981 0 0 0 6.87-3.186l5.219-6.166a.972.972 0 0 0 .213-.87 1.009 1.009 0 0 0-.528-.663l-3.377 3.99A10.975 10.975 0 0 1 47.001 55h-11a1 1 0 1 1 0-2h11a8.981 8.981 0 0 0 6.87-3.186l1.211-1.43a22.115 22.115 0 0 0 6.162-6.085zM46.5 3a2.5 2.5 0 0 1 .5 4.95v2.45c9.13 1.854 16 9.924 16 19.6 0 11.046-8.954 20-20 20s-20-8.954-20-20c0-9.676 6.871-17.747 16-19.6V7.95a2.5 2.5 0 0 1 .336-4.945L39.5 3h7zM43 12c-9.941 0-18 8.059-18 18s8.059 18 18 18 18-8.059 18-18-8.059-18-18-18zm0 2c8.836 0 16 7.164 16 16s-7.164 16-16 16-16-7.164-16-16 7.164-16 16-16zm0 2c-7.732 0-14 6.268-14 14s6.268 14 14 14 14-6.268 14-14-6.268-14-14-14zm9.083 7.581-.055.093-5.45 8.32c-1.469 2.244-4.684 2.434-6.407.38-1.679-2-1.014-5.027 1.3-6.158l.185-.085 9.141-3.924c.877-.376 1.71.564 1.286 1.374zm-3.546 1.772-6.092 2.616a1.998 1.998 0 1 0 2.367 3.06l.092-.13 3.633-5.546zM45 8h-4v2h4V8zm1.5-3h-7a.5.5 0 0 0-.09.992L39.5 6h7a.5.5 0 1 0 0-1z" fill="#D6D9E0" fill-rule="evenodd"/></svg>