<svg xmlns="http://www.w3.org/2000/svg" width="24" height="24" viewBox="0 0 24 24"><path fill="#a4a9b5" d="M11.854 12.14a6.013 6.013 0 100-12.027 6.013 6.013 0 000 12.027zm0-8.971a2.96 2.96 0 012.957 2.959 2.956 2.956 0 01-2.957 2.957 2.957 2.957 0 110-5.916zm6.932 9.705c-.34-.683-1.28-1.246-2.531-.266-1.688 1.335-4.4 1.335-4.4 1.335s-2.713 0-4.404-1.335c-1.248-.98-2.188-.417-2.526.266-.592 1.19.075 1.767 1.585 2.732 1.289.828 3.061 1.141 4.204 1.253l-.957.956c-1.345 1.346-2.644 2.641-3.543 3.544a1.377 1.377 0 000 1.949l.164.161a1.374 1.374 0 001.95 0l3.542-3.542c1.345 1.344 2.641 2.644 3.544 3.542a1.373 1.373 0 001.949 0l.163-.161a1.379 1.379 0 000-1.949l-4.502-4.502c1.147-.119 2.896-.429 4.176-1.251 1.507-.965 2.177-1.542 1.586-2.732z"></path></svg>