<svg xmlns="http://www.w3.org/2000/svg" width="24" height="24" viewBox="0 0 24 24"><path fill="#a4a9b5" d="M23 4.26a9.343 9.343 0 01-2.707.751 4.78 4.78 0 002.071-2.643 9.43 9.43 0 01-2.996 1.16 4.673 4.673 0 00-3.44-1.51c-2.604 0-4.717 2.141-4.717 4.779 0 .375.043.74.122 1.09-3.92-.201-7.395-2.103-9.721-4.996a4.837 4.837 0 00-.638 2.405c0 1.659.865 3.119 2.132 3.977C2.331 9.248 2 9.032 1 8.675v.062c0 2.314 1.593 4.245 3.75 4.684a4.797 4.797 0 01-1.258.168 4.59 4.59 0 01-.896-.087c.601 1.9 2.339 3.282 4.401 3.319a9.377 9.377 0 01-5.858 2.045 9.94 9.94 0 01-1.125-.063 13.224 13.224 0 007.228 2.146c8.676 0 13.418-7.281 13.418-13.596 0-.208-.004-.413-.014-.618A9.759 9.759 0 0023 4.26z"></path></svg>