<svg xmlns="http://www.w3.org/2000/svg" width="24" height="24" viewBox="0 0 24 24"><path fill="#a4a9b5" d="M19.522 19h-.112c-1.211-.203-2.035-1.074-2.739-1.883-.397-.455-1.007-1.486-1.733-1.369-1.031.172-.521 1.969-.95 2.738-.349.623-1.831.51-2.853.398-3.226-.348-4.874-2.104-6.319-3.99C3.272 12.878 2.07 10.769.958 8.453.599 7.703.12 6.873.12 5.945c.522-.436 1.375-.286 2.236-.286.73 0 1.87-.163 2.404.114.317.164.638 1.038.895 1.597.588 1.28 1.13 2.2 1.845 3.249.31.455.785 1.311 1.342 1.197.541-.111.592-1.469.616-2.338.026-.986-.002-2.212-.28-2.737-.263-.494-.744-.503-1.23-.797.405-.831 1.515-.913 2.852-.913 1.125 0 2.693-.128 3.132.627.446.768.141 2.154.112 3.193-.032 1.168-.23 2.371.559 2.906.607-.066.935-.668 1.286-1.139.771-1.031 1.249-1.922 1.846-3.25.245-.545.508-1.482.951-1.653.675-.261 1.751-.058 2.739-.058.81 0 2.257-.228 2.517.342.216.473-.42 1.668-.615 1.995-.749 1.252-1.483 2.049-2.293 3.137-.322.434-.989 1.129-.95 1.822.03.529.549.934.95 1.312.869.822 1.478 1.422 2.182 2.338.265.346.837 1.092.782 1.539-.172 1.395-3.391.522-4.476.858z"></path></svg>